<svg width="13" height="20" viewBox="0 0 13 20" fill="none" xmlns="http://www.w3.org/2000/svg">
<path fill-rule="evenodd" clip-rule="evenodd" d="M6.45499 2.66802C4.16292 2.66802 2.30483 4.52611 2.30483 6.81818C2.30483 9.11025 4.16292 10.9683 6.45499 10.9683C8.74706 10.9683 10.6051 9.11025 10.6051 6.81818C10.6051 4.52611 8.74706 2.66802 6.45499 2.66802ZM0.545898 6.81818C0.545898 3.55468 3.19149 0.909088 6.45499 0.909088C9.71849 0.909088 12.3641 3.55468 12.3641 6.81818C12.3641 10.0817 9.71849 12.7273 6.45499 12.7273C3.19149 12.7273 0.545898 10.0817 0.545898 6.81818Z" fill="#505F79"/>
<path fill-rule="evenodd" clip-rule="evenodd" d="M9.56001 10.9167C10.0494 10.8538 10.4988 11.1871 10.5637 11.661L11.4474 18.1113C11.4925 18.4409 11.3389 18.7663 11.052 18.9488C10.7651 19.1313 10.3957 19.1386 10.1013 18.9675L6.90971 17.113L3.71808 18.9675C3.42375 19.1386 3.05428 19.1313 2.76739 18.9488C2.4805 18.7662 2.32687 18.4408 2.37206 18.1112L3.25573 11.668C3.32073 11.194 3.77016 10.8608 4.25954 10.9238C4.74893 10.9867 5.09297 11.422 5.02796 11.8959L4.38846 16.5589L6.44981 15.3611C6.73289 15.1966 7.08654 15.1966 7.36962 15.3611L9.43125 16.559L8.79144 11.8887C8.72651 11.4148 9.07061 10.9796 9.56001 10.9167Z" fill="#505F79"/>
</svg>
