<svg width="16" height="15" viewBox="0 0 16 15" fill="none" xmlns="http://www.w3.org/2000/svg">
<path fill-rule="evenodd" clip-rule="evenodd" d="M12 2.36851H14.4C15.2837 2.36851 16 3.07543 16 3.94746V13.4211C16 14.2932 15.2837 15.0001 14.4 15.0001H1.6C0.716345 15.0001 0 14.2932 0 13.4211V3.94746C0 3.07543 0.716344 2.36851 1.6 2.36851H4C4 1.06047 5.07452 9.15527e-05 6.4 9.15527e-05H9.6C10.9255 9.15527e-05 12 1.06047 12 2.36851ZM9.6 1.57904H6.4C5.95817 1.57904 5.6 1.9325 5.6 2.36851H10.4C10.4 1.9325 10.0418 1.57904 9.6 1.57904ZM14.4 3.94746H1.6V5.52641H14.4V3.94746ZM1.6 13.4211V7.10535H4V8.6843H7.2V7.10535H8.8V8.6843H12V7.10535H14.4V13.4211H1.6Z" fill="#505F79"/>
</svg>
