<svg width="16" height="21" viewBox="0 0 16 21" fill="none" xmlns="http://www.w3.org/2000/svg">
<path d="M15.3046 8.72045C15.6231 6.59145 14.0021 5.44695 11.7856 4.68345L12.5046 1.79945L10.7491 1.36195L10.0491 4.16995C9.5876 4.05495 9.1136 3.94645 8.6426 3.83895L9.3476 1.01245L7.5931 0.574951L6.8736 3.45795C6.4916 3.37095 6.1166 3.28495 5.7526 3.19445L5.7546 3.18545L3.3336 2.58095L2.8666 4.45595C2.8666 4.45595 4.1691 4.75445 4.1416 4.77295C4.8526 4.95045 4.9811 5.42095 4.9596 5.79395L4.1406 9.07945C4.1896 9.09195 4.2531 9.10995 4.3231 9.13795C4.2646 9.12345 4.2021 9.10745 4.1376 9.09195L2.9896 13.6945C2.9026 13.9104 2.6821 14.2345 2.1851 14.1115C2.2026 14.137 0.909098 13.793 0.909098 13.793L0.0375977 15.8025L2.3221 16.372C2.7471 16.4785 3.1636 16.59 3.5736 16.695L2.8471 19.612L4.6006 20.0495L5.3201 17.1635C5.7991 17.2935 6.2641 17.4135 6.7191 17.5265L6.0021 20.399L7.7576 20.8365L8.4841 17.925C11.4776 18.4915 13.7286 18.263 14.6761 15.5555C15.4396 13.3755 14.6381 12.118 13.0631 11.298C14.2101 11.0335 15.0741 10.279 15.3046 8.72045ZM11.2936 14.345C10.7511 16.525 7.0806 15.3465 5.8906 15.051L6.8546 11.1865C8.0446 11.4835 11.8606 12.0715 11.2936 14.345ZM11.8366 8.68895C11.3416 10.672 8.2866 9.66445 7.2956 9.41745L8.1696 5.91245C9.1606 6.15945 12.3521 6.62045 11.8366 8.68895Z" fill="white"/>
</svg>
