<svg width="370" height="225" viewBox="0 0 370 225" fill="none" xmlns="http://www.w3.org/2000/svg">
<path d="M235.491 225C209.061 225 188.159 215.1 167.942 205.53C147.883 196.029 127.13 186.199 101.069 186.199C74.9987 186.199 54.255 196.022 34.1956 205.523C23.4464 210.613 12.3287 215.878 0.491392 219.594L0 218.62C11.732 214.932 22.8059 209.694 33.5112 204.618C53.7285 195.048 74.6302 185.148 101.06 185.148C127.49 185.148 148.392 195.048 168.609 204.618C188.668 214.118 209.421 223.948 235.482 223.948C261.543 223.948 282.296 214.125 302.355 204.618C322.573 195.048 343.474 185.148 369.904 185.148V186.199C343.834 186.199 323.09 196.022 303.031 205.53C282.822 215.1 261.912 225 235.491 225Z" fill="white"/>
<path d="M235.491 217.946C209.061 217.946 188.159 208.047 167.942 198.469C147.883 188.969 127.13 179.139 101.069 179.139C74.9987 179.139 54.255 188.962 34.1956 198.469C23.4464 203.559 12.3287 208.825 0.491392 212.541L0 211.566C11.732 207.878 22.8059 202.634 33.5112 197.565C53.7285 187.987 74.6302 178.087 101.06 178.087C127.49 178.087 148.392 187.987 168.609 197.565C188.668 207.065 209.421 216.895 235.482 216.895C261.543 216.895 282.296 207.072 302.355 197.565C322.573 187.987 343.474 178.087 369.904 178.087V179.139C343.834 179.139 323.09 188.962 303.031 198.469C282.822 208.047 261.912 217.946 235.491 217.946Z" fill="white"/>
<path d="M235.491 210.893C209.061 210.893 188.159 200.993 167.942 191.423C147.883 181.922 127.13 172.092 101.069 172.092C74.9987 172.092 54.255 181.915 34.1956 191.416C23.4464 196.506 12.3287 201.771 0.491392 205.487L0 204.513C11.732 200.825 22.8059 195.587 33.5112 190.511C53.7285 180.941 74.6302 171.041 101.06 171.041C127.49 171.041 148.392 180.941 168.609 190.511C188.668 200.011 209.421 209.841 235.482 209.841C261.543 209.841 282.296 200.019 302.355 190.511C322.573 180.941 343.474 171.041 369.904 171.041V172.092C343.834 172.092 323.09 181.915 303.031 191.423C282.822 200.993 261.912 210.893 235.491 210.893Z" fill="white"/>
<path d="M235.491 203.833C209.061 203.833 188.159 193.933 167.942 184.362C147.883 174.862 127.13 165.032 101.069 165.032C74.9987 165.032 54.255 174.855 34.1956 184.355C23.4464 189.446 12.3287 194.711 0.491392 198.427L0 197.46C11.732 193.772 22.8059 188.534 33.5112 183.458C53.7285 173.888 74.6302 163.988 101.06 163.988C127.49 163.988 148.392 173.888 168.609 183.458C188.668 192.958 209.421 202.788 235.482 202.788C261.543 202.788 282.296 192.965 302.355 183.458C322.573 173.888 343.474 163.988 369.904 163.988V165.039C343.834 165.039 323.09 174.862 303.031 184.369C282.822 193.933 261.912 203.833 235.491 203.833Z" fill="white"/>
<path d="M235.491 196.779C209.061 196.779 188.159 186.879 167.942 177.309C147.883 167.808 127.13 157.986 101.069 157.986C74.9987 157.986 54.255 167.808 34.1956 177.309C23.4464 182.399 12.3287 187.664 0.491392 191.38L0 190.399C11.732 186.711 22.8059 181.473 33.5112 176.397C53.7285 166.827 74.6302 156.927 101.06 156.927C127.49 156.927 148.392 166.827 168.609 176.397C188.668 185.898 209.421 195.72 235.482 195.72C261.543 195.72 282.296 185.898 302.355 176.397C322.573 166.82 343.474 156.927 369.904 156.927V157.979C343.834 157.979 323.09 167.801 303.031 177.302C282.822 186.879 261.912 196.779 235.491 196.779Z" fill="white"/>
<path d="M235.491 189.726C209.061 189.726 188.159 179.826 167.942 170.256C147.883 160.755 127.13 150.926 101.069 150.926C74.9987 150.926 54.255 160.748 34.1956 170.249C23.4289 175.346 12.3111 180.611 0.482617 184.327L0 183.346C11.732 179.658 22.8059 174.421 33.5112 169.344C53.7285 159.774 74.6302 149.874 101.06 149.874C127.49 149.874 148.392 159.774 168.609 169.344C188.668 178.845 209.421 188.674 235.482 188.674C261.543 188.674 282.296 178.852 302.355 169.344C322.573 159.774 343.474 149.874 369.904 149.874V150.926C343.834 150.926 323.09 160.748 303.031 170.256C282.822 179.826 261.912 189.726 235.491 189.726Z" fill="white"/>
<path d="M235.491 182.673C209.061 182.673 188.159 172.773 167.942 163.202C147.883 153.702 127.13 143.879 101.069 143.879C74.9987 143.879 54.255 153.702 34.1956 163.202C23.4464 168.293 12.3287 173.558 0.491392 177.274L0 176.292C11.732 172.605 22.8059 167.367 33.5112 162.291C53.7285 152.72 74.6302 142.82 101.06 142.82C127.49 142.82 148.392 152.72 168.609 162.291C188.668 171.791 209.421 181.614 235.482 181.614C261.543 181.614 282.296 171.791 302.355 162.291C322.573 152.713 343.474 142.82 369.904 142.82V143.872C343.834 143.872 323.09 153.695 303.031 163.195C282.822 172.773 261.912 182.673 235.491 182.673Z" fill="white"/>
<path d="M235.491 175.62C209.061 175.62 188.159 165.72 167.942 156.149C147.883 146.649 127.13 136.819 101.069 136.819C74.9987 136.819 54.255 146.642 34.1956 156.142C23.4464 161.232 12.3287 166.498 0.491392 170.214L0 169.239C11.732 165.551 22.8059 160.314 33.5112 155.238C53.7285 145.667 74.6302 135.767 101.06 135.767C127.49 135.767 148.392 145.667 168.609 155.238C188.668 164.738 209.421 174.568 235.482 174.568C261.543 174.568 282.296 164.745 302.355 155.238C322.573 145.667 343.474 135.767 369.904 135.767V136.819C343.834 136.819 323.09 146.642 303.031 156.149C282.822 165.72 261.912 175.62 235.491 175.62Z" fill="white"/>
<path d="M235.491 168.566C209.061 168.566 188.159 158.666 167.942 149.095C147.883 139.595 127.13 129.765 101.069 129.765C74.9987 129.765 54.255 139.588 34.1956 149.088C23.4464 154.179 12.3287 159.444 0.491392 163.16L0 162.186C11.732 158.498 22.8059 153.26 33.5112 148.184C53.7285 138.614 74.6302 128.714 101.06 128.714C127.49 128.714 148.392 138.614 168.609 148.184C188.668 157.684 209.421 167.514 235.482 167.514C261.543 167.514 282.296 157.691 302.355 148.184C322.573 138.614 343.474 128.714 369.904 128.714V129.765C343.834 129.765 323.09 139.588 303.031 149.095C282.822 158.666 261.912 168.566 235.491 168.566Z" fill="white"/>
<path d="M235.491 161.506C209.061 161.506 188.159 151.606 167.942 142.035C147.883 132.535 127.13 122.712 101.069 122.712C74.9987 122.712 54.255 132.535 34.1956 142.035C23.4464 147.125 12.3287 152.391 0.491392 156.107L0 155.132C11.732 151.444 22.8059 146.2 33.5112 141.131C53.7285 131.56 74.6302 121.66 101.06 121.66C127.49 121.66 148.392 131.56 168.609 141.131C188.668 150.631 209.421 160.454 235.482 160.454C261.543 160.454 282.296 150.631 302.355 141.131C322.573 131.553 343.474 121.66 369.904 121.66V122.712C343.834 122.712 323.09 132.535 303.031 142.035C282.822 151.606 261.912 161.506 235.491 161.506Z" fill="white"/>
<path d="M235.491 154.452C209.061 154.452 188.159 144.552 167.942 134.982C147.883 125.482 127.13 115.652 101.069 115.652C74.9987 115.652 54.255 125.474 34.1956 134.975C23.4464 140.065 12.3287 145.331 0.491392 149.047L0 148.072C11.732 144.384 22.8059 139.14 33.5112 134.07C53.7285 124.5 74.6302 114.6 101.06 114.6C127.49 114.6 148.392 124.5 168.609 134.07C188.668 143.571 209.421 153.401 235.482 153.401C261.543 153.401 282.296 143.578 302.355 134.07C322.573 124.5 343.474 114.6 369.904 114.6V115.652C343.834 115.652 323.09 125.474 303.031 134.982C282.822 144.552 261.912 154.452 235.491 154.452Z" fill="white"/>
<path d="M235.491 147.399C209.061 147.399 188.159 137.499 167.942 127.928C147.883 118.428 127.13 108.605 101.069 108.605C74.9987 108.605 54.255 118.428 34.1956 127.928C23.4464 133.018 12.3287 138.284 0.491392 142L0 141.018C11.732 137.33 22.8059 132.093 33.5112 127.017C53.7285 117.446 74.6302 107.546 101.06 107.546C127.49 107.546 148.392 117.446 168.609 127.017C188.668 136.517 209.421 146.34 235.482 146.34C261.543 146.34 282.296 136.517 302.355 127.017C322.573 117.446 343.474 107.546 369.904 107.546V108.598C343.834 108.598 323.09 118.421 303.031 127.921C282.822 137.499 261.912 147.399 235.491 147.399Z" fill="white"/>
<path d="M235.491 140.345C209.061 140.345 188.159 130.445 167.942 120.875C147.883 111.375 127.13 101.545 101.069 101.545C74.9987 101.545 54.255 111.368 34.1956 120.868C23.4464 125.958 12.3287 131.224 0.491392 134.94L0 133.965C11.732 130.277 22.8059 125.033 33.5112 119.963C53.7285 110.393 74.6302 100.493 101.06 100.493C127.49 100.493 148.392 110.393 168.609 119.963C188.668 129.464 209.421 139.294 235.482 139.294C261.543 139.294 282.296 129.471 302.355 119.963C322.573 110.386 343.474 100.493 369.904 100.493V101.545C343.834 101.545 323.09 111.368 303.031 120.875C282.822 130.445 261.912 140.345 235.491 140.345Z" fill="white"/>
<path d="M235.491 133.292C209.061 133.292 188.159 123.392 167.942 113.821C147.883 104.321 127.13 94.4913 101.069 94.4913C74.9987 94.4913 54.255 104.314 34.1956 113.821C23.4289 118.905 12.3111 124.17 0.482617 127.886L0 126.912C11.732 123.224 22.8059 117.986 33.5112 112.91C53.7285 103.34 74.6302 93.4396 101.06 93.4396C127.49 93.4396 148.392 103.34 168.609 112.91C188.668 122.41 209.421 132.233 235.482 132.233C261.543 132.233 282.296 122.41 302.355 112.91C322.573 103.333 343.474 93.4396 369.904 93.4396V94.4913C343.834 94.4913 323.09 104.314 303.031 113.821C282.822 123.392 261.912 133.292 235.491 133.292Z" fill="white"/>
<path d="M235.491 126.231C209.061 126.231 188.159 116.331 167.942 106.761C147.883 97.2607 127.13 87.4379 101.069 87.4379C74.9987 87.4379 54.255 97.2607 34.1956 106.761C23.4464 111.851 12.3287 117.117 0.491392 120.833L0 119.858C11.732 116.17 22.8059 110.933 33.5112 105.857C53.7285 96.2791 74.6302 86.3862 101.06 86.3862C127.49 86.3862 148.392 96.2862 168.609 105.857C188.668 115.357 209.421 125.187 235.482 125.187C261.543 125.187 282.296 115.364 302.355 105.857C322.573 96.2791 343.474 86.3862 369.904 86.3862V87.4379C343.834 87.4379 323.09 97.2607 303.031 106.761C282.822 116.339 261.912 126.231 235.491 126.231Z" fill="white"/>
<path d="M235.491 119.178C209.061 119.178 188.159 109.278 167.942 99.7078C147.883 90.2075 127.13 80.3847 101.069 80.3847C74.9987 80.3847 54.255 90.2075 34.1956 99.7078C23.4464 104.798 12.3287 110.064 0.491392 113.78L0 112.798C11.732 109.11 22.8059 103.873 33.5112 98.7964C53.7285 89.2259 74.6302 79.326 101.06 79.326C127.49 79.326 148.392 89.2259 168.609 98.7964C188.668 108.297 209.421 118.12 235.482 118.12C261.543 118.12 282.296 108.297 302.355 98.7964C322.573 89.2259 343.474 79.326 369.904 79.326V80.3777C343.834 80.3777 323.09 90.2005 303.031 99.7008C282.822 109.278 261.912 119.178 235.491 119.178Z" fill="white"/>
<path d="M235.491 112.125C209.061 112.125 188.159 102.225 167.942 92.6544C147.883 83.1541 127.13 73.3312 101.069 73.3312C74.9987 73.3312 54.255 83.1541 34.1956 92.6544C23.4464 97.7446 12.3287 103.01 0.491392 106.726L0 105.745C11.732 102.057 22.8059 96.8121 33.5112 91.7429C53.7285 82.1725 74.6302 72.2725 101.06 72.2725C127.49 72.2725 148.392 82.1725 168.609 91.7429C188.668 101.243 209.421 111.066 235.482 111.066C261.543 111.066 282.296 101.243 302.355 91.7429C322.573 82.1655 343.474 72.2725 369.904 72.2725V73.3242C343.834 73.3242 323.09 83.1471 303.031 92.6474C282.822 102.225 261.912 112.125 235.491 112.125Z" fill="white"/>
<path d="M235.491 105.071C209.061 105.071 188.159 95.1714 167.942 85.601C147.883 76.1006 127.13 66.2778 101.069 66.2778C74.9987 66.2778 54.255 76.1006 34.1956 85.601C23.4464 90.6912 12.3287 95.9567 0.491392 99.6727L0 98.6911C11.732 95.0031 22.8059 89.7657 33.5112 84.6895C53.7285 75.1191 74.6302 65.2191 101.06 65.2191C127.49 65.2191 148.392 75.1191 168.609 84.6895C188.668 94.1898 209.421 104.013 235.482 104.013C261.543 104.013 282.296 94.1898 302.355 84.6895C322.573 75.1121 343.474 65.2191 369.904 65.2191V66.2708C343.834 66.2708 323.09 76.0936 303.031 85.594C282.822 95.1714 261.912 105.071 235.491 105.071Z" fill="white"/>
<path d="M235.491 98.0179C209.061 98.0179 188.159 88.118 167.942 78.5475C147.883 69.0472 127.13 59.2244 101.069 59.2244C74.9987 59.2244 54.255 69.0472 34.1956 78.5475C23.4464 83.6377 12.3287 88.9032 0.491392 92.6192L0 91.6376C11.732 87.9497 22.8059 82.7122 33.5112 77.6361C53.7285 68.0656 74.6302 58.1657 101.06 58.1657C127.49 58.1657 148.392 68.0656 168.609 77.6361C188.668 87.1364 209.421 96.9662 235.482 96.9662C261.543 96.9662 282.296 87.1434 302.355 77.6361C322.573 68.0586 343.474 58.1657 369.904 58.1657V59.2174C343.834 59.2174 323.09 69.0402 303.031 78.5405C282.822 88.118 261.912 98.0179 235.491 98.0179Z" fill="white"/>
<path d="M235.491 90.9647C209.061 90.9647 188.159 81.0648 167.942 71.4943C147.883 61.994 127.13 52.1712 101.069 52.1712C75.0075 52.1712 54.255 61.994 34.1956 71.4943C23.4464 76.5845 12.3287 81.85 0.491392 85.566L0 84.5844C11.732 80.8965 22.8059 75.659 33.5112 70.5829C53.7285 61.0124 74.6302 51.1125 101.06 51.1125C127.49 51.1125 148.392 61.0124 168.609 70.5829C188.668 80.0832 209.421 89.913 235.482 89.913C261.543 89.913 282.296 80.0902 302.355 70.5829C322.573 61.0124 343.474 51.1125 369.904 51.1125V52.1642C343.834 52.1642 323.09 61.987 303.031 71.4873C282.822 81.0648 261.912 90.9647 235.491 90.9647Z" fill="white"/>
<path d="M235.491 83.9043C209.061 83.9043 188.159 74.0043 167.942 64.4339C147.883 54.9336 127.13 45.1107 101.069 45.1107C74.9987 45.1107 54.255 54.9336 34.1956 64.4339C23.4464 69.5241 12.3287 74.7896 0.491392 78.5056L0 77.531C11.732 73.8431 22.8059 68.6056 33.5112 63.5294C53.7285 53.959 74.6302 44.059 101.06 44.059C127.49 44.059 148.392 53.959 168.609 63.5294C188.668 73.0297 209.421 82.8596 235.482 82.8596C261.543 82.8596 282.296 73.0368 302.355 63.5294C322.573 53.959 343.474 44.059 369.904 44.059V45.1107C343.834 45.1107 323.09 54.9336 303.031 64.4339C282.822 74.0043 261.912 83.9043 235.491 83.9043Z" fill="white"/>
<path d="M235.491 76.8513C209.061 76.8513 188.159 66.9514 167.942 57.3809C147.883 47.8806 127.13 38.0578 101.069 38.0578C74.9987 38.0578 54.255 47.8806 34.1956 57.3809C23.4289 62.4711 12.3111 67.7366 0.482617 71.4526L0 70.471C11.732 66.7831 22.8059 61.5456 33.5112 56.4695C53.7285 46.899 74.6302 36.9991 101.06 36.9991C127.49 36.9991 148.392 46.899 168.609 56.4695C188.668 65.9698 209.421 75.7926 235.482 75.7926C261.543 75.7926 282.296 65.9698 302.355 56.4695C322.573 46.892 343.474 36.9991 369.904 36.9991V38.0508C343.834 38.0508 323.09 47.8736 303.031 57.3739C282.822 66.9514 261.912 76.8513 235.491 76.8513Z" fill="white"/>
<path d="M235.491 69.7976C209.061 69.7976 188.159 59.8977 167.942 50.3272C147.883 40.8269 127.13 31.0041 101.069 31.0041C74.9987 31.0041 54.255 40.8269 34.1956 50.3272C23.4289 55.4175 12.3111 60.6829 0.482617 64.3989L0 63.4174C11.732 59.7294 22.8059 54.485 33.5112 49.4158C53.7285 39.8453 74.6302 29.9454 101.06 29.9454C127.49 29.9454 148.392 39.8453 168.609 49.4158C188.668 58.9161 209.421 68.7389 235.482 68.7389C261.543 68.7389 282.296 58.9161 302.355 49.4158C322.573 39.8453 343.474 29.9454 369.904 29.9454V30.9971C343.834 30.9971 323.09 40.8199 303.031 50.3202C282.822 59.8977 261.912 69.7976 235.491 69.7976Z" fill="white"/>
<path d="M235.491 62.7444C209.061 62.7444 188.159 52.8445 167.942 43.274C147.883 33.7737 127.13 23.9509 101.069 23.9509C74.9987 23.9509 54.255 33.7737 34.1956 43.274C23.4289 48.3643 12.3111 53.6297 0.482617 57.3457L0 56.3642C11.732 52.6762 22.8059 47.4388 33.5112 42.3626C53.7285 32.7921 74.6302 22.8922 101.06 22.8922C127.49 22.8922 148.392 32.7921 168.609 42.3626C188.668 51.8629 209.421 61.6857 235.482 61.6857C261.543 61.6857 282.296 51.8629 302.355 42.3626C322.573 32.7851 343.474 22.8922 369.904 22.8922V23.9439C343.834 23.9439 323.09 33.7667 303.031 43.267C282.822 52.8445 261.912 62.7444 235.491 62.7444Z" fill="white"/>
<path d="M235.491 55.6912C209.061 55.6912 188.159 45.7913 167.942 36.2208C147.883 26.7205 127.13 16.8907 101.069 16.8907C74.9987 16.8907 54.255 26.7135 34.1956 36.2138C23.4289 41.304 12.3111 46.5695 0.482617 50.2855L0 49.311C11.732 45.623 22.8059 40.3856 33.5112 35.3094C53.7285 25.7389 74.6302 15.839 101.06 15.839C127.49 15.839 148.392 25.7389 168.609 35.3094C188.668 44.8097 209.421 54.6325 235.482 54.6325C261.543 54.6325 282.296 44.8097 302.355 35.3094C322.573 25.7389 343.474 15.839 369.904 15.839V16.8907C343.834 16.8907 323.09 26.7135 303.031 36.2208C282.822 45.7913 261.912 55.6912 235.491 55.6912Z" fill="white"/>
<path d="M235.491 48.6373C209.061 48.6373 188.159 38.7374 167.942 29.1669C147.883 19.6666 127.13 9.83676 101.069 9.83676C74.9987 9.83676 54.255 19.6596 34.1956 29.1599C23.4289 34.2501 12.3111 39.5156 0.482617 43.2316L0 42.257C11.732 38.5691 22.8059 33.3316 33.5112 28.2555C53.7285 18.685 74.6302 8.78506 101.06 8.78506C127.49 8.78506 148.392 18.685 168.609 28.2555C188.668 37.7558 209.421 47.5856 235.482 47.5856C261.543 47.5856 282.296 37.7628 302.355 28.2555C322.573 18.685 343.474 8.78506 369.904 8.78506V9.83676C343.834 9.83676 323.09 19.6596 303.031 29.1669C282.822 38.7374 261.912 48.6373 235.491 48.6373Z" fill="white"/>
<path d="M235.491 41.5771C209.061 41.5771 188.159 31.6771 167.942 22.1067C147.883 12.6064 127.13 2.78355 101.069 2.78355C74.9987 2.78355 54.255 12.6064 34.1956 22.1067C23.4289 27.1969 12.3111 32.4624 0.482617 36.1784L0 35.2038C11.732 31.5159 22.8059 26.2714 33.5112 21.2023C53.7285 11.6248 74.6302 1.72485 101.06 1.72485C127.49 1.72485 148.392 11.6248 168.609 21.1952C188.668 30.6956 209.421 40.5184 235.482 40.5184C261.543 40.5184 282.296 30.6956 302.355 21.1952C322.573 11.6178 343.474 1.72485 369.904 1.72485V2.77654C343.834 2.77654 323.09 12.5994 303.031 22.0997C282.822 31.6771 261.912 41.5771 235.491 41.5771Z" fill="white"/>
<path d="M235.491 34.5237C209.061 34.5237 188.159 24.6237 167.942 15.0463C157.158 9.94904 146.014 4.66953 134.194 0.981583L134.677 0C146.602 3.723 157.79 9.02355 168.609 14.1488C188.677 23.6491 209.421 33.479 235.491 33.479C261.561 33.479 282.305 23.6561 302.364 14.1558C313.183 9.02355 324.38 3.723 336.305 0L336.788 0.981583C324.968 4.66953 313.824 9.94904 303.04 15.0533C282.822 24.6237 261.912 34.5237 235.491 34.5237Z" fill="white"/>
<path d="M0.482617 29.125L0 28.1434C11.732 24.4554 22.8059 19.218 33.5112 14.1418C44.3394 9.02355 55.5273 3.723 67.4523 0L67.935 0.981583C56.1064 4.66953 44.9624 9.94904 34.1869 15.0533C23.4289 20.1435 12.3111 25.409 0.482617 29.125Z" fill="white"/>
<path d="M235.491 27.4701C209.061 27.4701 188.159 17.5701 167.942 7.99265C162.967 5.63685 157.816 3.19692 152.665 0.94629L153.297 0.0207971C158.465 2.27844 163.625 4.71837 168.609 7.08118C188.668 16.5815 209.421 26.4114 235.491 26.4114C261.561 26.4114 282.305 16.5885 302.373 7.08118C307.366 4.71837 312.517 2.27844 317.685 0.0207971L318.317 0.94629C313.175 3.19692 308.024 5.63685 303.04 7.99265C282.823 17.5701 261.912 27.4701 235.491 27.4701Z" fill="white"/>
<path d="M0.482617 22.0708L0 21.0892C11.732 17.4013 22.8059 12.1638 33.5112 7.09467C38.5041 4.73186 43.6637 2.29192 48.8321 0.0272695L49.4639 0.952762C44.313 3.20339 39.1622 5.63631 34.1781 7.99912C23.4289 13.0893 12.3111 18.3548 0.482617 22.0708Z" fill="white"/>
<path d="M235.491 20.4172C209.061 20.4172 188.159 10.5172 167.942 0.939766L168.609 0.0353072C188.677 9.53563 209.421 19.3655 235.491 19.3655C261.561 19.3655 282.305 9.54264 302.364 0.0423185L303.04 0.946777C282.814 10.5172 261.912 20.4172 235.491 20.4172Z" fill="white"/>
<path d="M0.482617 15.0175L0 14.036C11.732 10.355 22.7971 5.11056 33.4936 0.0413825L34.1781 0.93883C23.4201 6.03605 12.3111 11.3015 0.482617 15.0175Z" fill="white"/>
<path d="M235.491 13.3629C214.484 13.3629 197.294 7.0878 183.254 0.95291L183.886 0.0274176C197.777 6.09921 214.782 12.3112 235.491 12.3112C256.2 12.3112 273.197 6.10622 287.096 0.0274176L287.728 0.95291C273.679 7.0878 256.498 13.3629 235.491 13.3629Z" fill="white"/>
<path d="M0.482617 7.95706L0 6.98249C5.65101 5.20863 11.4424 3.00006 18.2342 0.0272695L18.8659 0.952762C12.0216 3.94659 6.1775 6.16917 0.482617 7.95706Z" fill="white"/>
<path d="M235.491 6.31018C224.356 6.31018 213.361 4.56436 201.874 0.981583L202.357 0C213.685 3.5337 224.522 5.25848 235.491 5.25848C246.459 5.25848 257.296 3.54071 268.625 0L269.107 0.981583C257.612 4.56436 246.617 6.31018 235.491 6.31018Z" fill="white"/>
</svg>
