<svg width="15" height="4" viewBox="0 0 15 4" fill="none" xmlns="http://www.w3.org/2000/svg">
<path fill-rule="evenodd" clip-rule="evenodd" d="M2.25 0.25C1.2875 0.25 0.5 1.0375 0.5 2C0.5 2.9625 1.2875 3.75 2.25 3.75C3.2125 3.75 4 2.9625 4 2C4 1.0375 3.2125 0.25 2.25 0.25ZM12.75 0.25C11.7875 0.25 11 1.0375 11 2C11 2.9625 11.7875 3.75 12.75 3.75C13.7125 3.75 14.5 2.9625 14.5 2C14.5 1.0375 13.7125 0.25 12.75 0.25ZM7.5 0.25C6.5375 0.25 5.75 1.0375 5.75 2C5.75 2.9625 6.5375 3.75 7.5 3.75C8.4625 3.75 9.25 2.9625 9.25 2C9.25 1.0375 8.4625 0.25 7.5 0.25Z" fill="white"/>
</svg>
