<svg width="132" height="22" viewBox="0 0 132 22" fill="none" xmlns="http://www.w3.org/2000/svg">
<path d="M37.064 17.192C35.3147 17.192 33.9867 16.7227 33.08 15.784C32.1733 14.8453 31.72 13.4213 31.72 11.512C31.72 9.61333 32.1733 8.19467 33.08 7.256C33.9867 6.30667 35.3147 5.832 37.064 5.832C38.4933 5.832 39.6453 6.18933 40.52 6.904C41.4053 7.61867 41.848 8.65867 41.848 10.024H40.04C40.04 9.16 39.7733 8.49867 39.24 8.04C38.7067 7.57067 37.9867 7.336 37.08 7.336C35.8747 7.336 34.984 7.66667 34.408 8.328C33.8427 8.97867 33.5547 10.008 33.544 11.416V11.592C33.544 13.0107 33.832 14.0507 34.408 14.712C34.984 15.3627 35.8747 15.688 37.08 15.688C38.0187 15.688 38.7547 15.464 39.288 15.016C39.832 14.5573 40.104 13.896 40.104 13.032H41.848C41.848 14.408 41.4107 15.448 40.536 16.152C39.6613 16.8453 38.504 17.192 37.064 17.192ZM43.8849 8.584H45.2129L45.3729 9.88H45.4689C45.8529 8.888 46.4982 8.392 47.4049 8.392C47.7035 8.392 47.9649 8.43467 48.1889 8.52V10.088H47.5969C46.9675 10.088 46.4662 10.2693 46.0929 10.632C45.7195 10.9947 45.5329 11.5493 45.5329 12.296V17H43.8849V8.584ZM53.2646 17.192C51.91 17.192 50.902 16.8347 50.2406 16.12C49.5793 15.4053 49.2486 14.296 49.2486 12.792C49.2486 11.288 49.5793 10.1787 50.2406 9.464C50.902 8.74933 51.91 8.392 53.2646 8.392C54.4913 8.392 55.4086 8.728 56.0166 9.4C56.6246 10.0613 56.9286 11.1173 56.9286 12.568V13.208H50.9446C50.9873 14.1147 51.19 14.7867 51.5526 15.224C51.926 15.6507 52.502 15.864 53.2806 15.864C53.8886 15.864 54.3793 15.72 54.7526 15.432C55.126 15.144 55.3126 14.7013 55.3126 14.104H56.9286C56.9286 15.1067 56.5873 15.8747 55.9046 16.408C55.2326 16.9307 54.3526 17.192 53.2646 17.192ZM55.2166 11.96C55.2166 10.4667 54.566 9.72 53.2646 9.72C52.5393 9.72 51.9953 9.90133 51.6326 10.264C51.27 10.616 51.0513 11.1813 50.9766 11.96H55.2166ZM61.0453 17.192C60.3519 17.192 59.7226 17.0213 59.1573 16.68C58.6026 16.3387 58.3253 15.72 58.3253 14.824C58.3253 13.7467 58.7946 13 59.7333 12.584C60.6719 12.168 62.0159 11.96 63.7653 11.96V11.128C63.7653 10.6693 63.6426 10.3227 63.3973 10.088C63.1626 9.84267 62.7199 9.72 62.0693 9.72C61.4399 9.72 60.9919 9.832 60.7253 10.056C60.4693 10.28 60.3413 10.552 60.3413 10.872V11.08H58.7413C58.7306 11.016 58.7253 10.8987 58.7253 10.728C58.7253 9.992 59.0346 9.42133 59.6533 9.016C60.2719 8.6 61.0986 8.392 62.1333 8.392C63.2213 8.392 64.0373 8.616 64.5813 9.064C65.1359 9.512 65.4133 10.1467 65.4133 10.968V15.272C65.4133 15.464 65.4666 15.608 65.5733 15.704C65.6799 15.7893 65.8133 15.832 65.9733 15.832H66.5493V16.936C66.2719 17.0747 65.8933 17.144 65.4133 17.144C65.0293 17.144 64.7039 17.0427 64.4373 16.84C64.1813 16.6267 64.0106 16.3387 63.9253 15.976H63.8133C63.5146 16.36 63.1306 16.6587 62.6613 16.872C62.2026 17.0853 61.6639 17.192 61.0453 17.192ZM61.5253 15.848C62.1546 15.848 62.6826 15.6613 63.1093 15.288C63.5466 14.904 63.7653 14.3813 63.7653 13.72V13.208C62.5493 13.208 61.6213 13.3147 60.9813 13.528C60.3413 13.7307 60.0213 14.12 60.0213 14.696C60.0213 15.0907 60.1439 15.384 60.3893 15.576C60.6453 15.7573 61.0239 15.848 61.5253 15.848ZM70.0259 17.176C69.3859 17.176 68.9219 16.9947 68.6339 16.632C68.3459 16.2587 68.2019 15.8 68.2019 15.256V9.944H67.1779V8.584H68.2179L68.5379 6.232H69.8499V8.584H71.2739V9.944H69.8499V15.096C69.8499 15.5867 70.0792 15.832 70.5379 15.832H71.2739V16.952C71.1352 17.016 70.9432 17.0693 70.6979 17.112C70.4632 17.1547 70.2392 17.176 70.0259 17.176ZM76.5146 17.192C75.16 17.192 74.152 16.8347 73.4906 16.12C72.8293 15.4053 72.4986 14.296 72.4986 12.792C72.4986 11.288 72.8293 10.1787 73.4906 9.464C74.152 8.74933 75.16 8.392 76.5146 8.392C77.7413 8.392 78.6586 8.728 79.2666 9.4C79.8746 10.0613 80.1786 11.1173 80.1786 12.568V13.208H74.1946C74.2373 14.1147 74.44 14.7867 74.8026 15.224C75.176 15.6507 75.752 15.864 76.5306 15.864C77.1386 15.864 77.6293 15.72 78.0026 15.432C78.376 15.144 78.5626 14.7013 78.5626 14.104H80.1786C80.1786 15.1067 79.8373 15.8747 79.1546 16.408C78.4826 16.9307 77.6026 17.192 76.5146 17.192ZM78.4666 11.96C78.4666 10.4667 77.816 9.72 76.5146 9.72C75.7893 9.72 75.2453 9.90133 74.8826 10.264C74.52 10.616 74.3013 11.1813 74.2266 11.96H78.4666ZM85.8624 6.024H87.7344L89.7504 13.464C89.825 13.7307 89.9477 14.2747 90.1184 15.096H90.1984L90.5024 13.464L92.1664 6.024H94.5344L96.2464 13.464C96.321 13.7733 96.4277 14.3173 96.5664 15.096H96.6464C96.817 14.2853 96.9397 13.7413 97.0144 13.464L98.9984 6.024H100.71L97.6224 17H95.3984L93.6384 9.512C93.5424 9.096 93.4304 8.52533 93.3024 7.8H93.2224C93.105 8.58933 93.0037 9.16 92.9184 9.512L91.1744 17H88.9504L85.8624 6.024ZM103.264 17.192C102.571 17.192 101.941 17.0213 101.376 16.68C100.821 16.3387 100.544 15.72 100.544 14.824C100.544 13.7467 101.013 13 101.952 12.584C102.891 12.168 104.235 11.96 105.984 11.96V11.128C105.984 10.6693 105.861 10.3227 105.616 10.088C105.381 9.84267 104.939 9.72 104.288 9.72C103.659 9.72 103.211 9.832 102.944 10.056C102.688 10.28 102.56 10.552 102.56 10.872V11.08H100.96C100.949 11.016 100.944 10.8987 100.944 10.728C100.944 9.992 101.253 9.42133 101.872 9.016C102.491 8.6 103.317 8.392 104.352 8.392C105.44 8.392 106.256 8.616 106.8 9.064C107.355 9.512 107.632 10.1467 107.632 10.968V15.272C107.632 15.464 107.685 15.608 107.792 15.704C107.899 15.7893 108.032 15.832 108.192 15.832H108.768V16.936C108.491 17.0747 108.112 17.144 107.632 17.144C107.248 17.144 106.923 17.0427 106.656 16.84C106.4 16.6267 106.229 16.3387 106.144 15.976H106.032C105.733 16.36 105.349 16.6587 104.88 16.872C104.421 17.0853 103.883 17.192 103.264 17.192ZM103.744 15.848C104.373 15.848 104.901 15.6613 105.328 15.288C105.765 14.904 105.984 14.3813 105.984 13.72V13.208C104.768 13.208 103.84 13.3147 103.2 13.528C102.56 13.7307 102.24 14.12 102.24 14.696C102.24 15.0907 102.363 15.384 102.608 15.576C102.864 15.7573 103.243 15.848 103.744 15.848ZM110.229 5.432H111.877V17H110.229V5.432ZM114.307 5.432H115.955V17H114.307V5.432ZM121.921 17.192C120.566 17.192 119.558 16.8347 118.897 16.12C118.236 15.4053 117.905 14.296 117.905 12.792C117.905 11.288 118.236 10.1787 118.897 9.464C119.558 8.74933 120.566 8.392 121.921 8.392C123.148 8.392 124.065 8.728 124.673 9.4C125.281 10.0613 125.585 11.1173 125.585 12.568V13.208H119.601C119.644 14.1147 119.846 14.7867 120.209 15.224C120.582 15.6507 121.158 15.864 121.937 15.864C122.545 15.864 123.036 15.72 123.409 15.432C123.782 15.144 123.969 14.7013 123.969 14.104H125.585C125.585 15.1067 125.244 15.8747 124.561 16.408C123.889 16.9307 123.009 17.192 121.921 17.192ZM123.873 11.96C123.873 10.4667 123.222 9.72 121.921 9.72C121.196 9.72 120.652 9.90133 120.289 10.264C119.926 10.616 119.708 11.1813 119.633 11.96H123.873ZM129.542 17.176C128.902 17.176 128.438 16.9947 128.15 16.632C127.862 16.2587 127.718 15.8 127.718 15.256V9.944H126.694V8.584H127.734L128.054 6.232H129.366V8.584H130.79V9.944H129.366V15.096C129.366 15.5867 129.595 15.832 130.054 15.832H130.79V16.952C130.651 17.016 130.459 17.0693 130.214 17.112C129.979 17.1547 129.755 17.176 129.542 17.176Z" fill="#334659"/>
<path fill-rule="evenodd" clip-rule="evenodd" d="M18.8384 5.83953L18.6373 4.68869C18.4425 3.57438 17.4033 2.83285 16.316 3.03247L4.02094 5.28979C3.49811 5.38575 3.05933 5.68195 2.76642 6.08749C2.2998 6.46277 2 7.04603 2 7.70105V17.9502C2 19.0823 2.89545 20 4 20H18C19.1046 20 20 19.0823 20 17.9502V7.70105C20 6.87589 19.5242 6.16451 18.8384 5.83953ZM18 8.21254C18 7.92954 17.7761 7.70009 17.5 7.70009H4.5C4.22388 7.70009 4 7.92954 4 8.21254V17.4368C4 17.7198 4.22388 17.9492 4.5 17.9492H17.5C17.7761 17.9492 18 17.7198 18 17.4368V8.21254ZM16 12.8249C16 13.957 15.1046 14.8747 14 14.8747C12.8954 14.8747 12 13.957 12 12.8249C12 11.6928 12.8954 10.7751 14 10.7751C15.1046 10.7751 16 11.6928 16 12.8249Z" fill="#99A6B6"/>
</svg>
