<svg width="121" height="97" viewBox="0 0 121 97" fill="none" xmlns="http://www.w3.org/2000/svg">
<g opacity="0.24" filter="url(#filter0_f)">
<ellipse cx="72.8327" cy="47.0786" rx="15.1672" ry="14.4309" fill="#FF7EFA" fill-opacity="0.98"/>
</g>
<path d="M46.5312 90.8683L61.9513 82.1777V65.1099L46.5312 74.0644V90.8683Z" fill="url(#paint0_linear)"/>
<path d="M46.5406 91.0001L31.8013 82.9716V65.3557L46.5406 74.2118V91.0001Z" fill="url(#paint1_linear)"/>
<path opacity="0.4" d="M44.2045 86.9356L34.1372 81.452V69.4199L44.2045 75.4689V86.9356Z" stroke="url(#paint2_linear)" stroke-width="0.991613"/>
<path opacity="0.405357" d="M46.843 63.5125L39.2674 59.3353L8 6H48.1509L53.3364 59.3353L46.843 63.5125Z" fill="url(#paint3_linear)"/>
<path opacity="0.405357" d="M53.3364 59.3894L68.4876 9.91187H39.2673L50.0897 65.5741L53.3364 59.3894Z" fill="url(#paint4_linear)"/>
<path d="M61.0588 38.7778C62.8709 37.6389 64.1469 37.5149 64.9247 38.0428L66.1525 38.6609L65.8647 39.0597C66.8035 41.7607 64.3803 47.9195 59.2944 50.8474C58.2237 51.4638 57.3445 51.7733 56.6435 51.8364L56.377 52.2056L55.4915 51.6604C52.806 50.3361 55.3465 42.3679 61.0588 38.7778Z" fill="#D7911D"/>
<path d="M62.5363 39.3609C55.0997 44.0538 52.6463 56.1404 60.5478 51.5731C68.4492 47.0057 69.9728 34.6679 62.5363 39.3609Z" fill="url(#paint5_linear)"/>
<path opacity="0.4" d="M62.1389 41.215C56.8138 44.6855 55.1621 53.3609 60.8201 49.9833C66.4781 46.6057 67.4639 37.7446 62.1389 41.215Z" stroke="#D7911D" stroke-width="0.57385"/>
<path d="M23.861 36.3087C21.7249 36.6389 20.5068 36.252 20.0191 35.4649L19.1583 34.4189L19.5896 34.1674C19.8719 31.3319 24.685 26.6554 30.567 25.9742C31.8053 25.8307 32.7391 25.8926 33.4062 26.1098L33.8054 25.8769L34.3843 26.7221C36.2787 28.9845 30.5947 35.268 23.861 36.3087Z" fill="#D7911D"/>
<path d="M22.7572 35.1967C31.5316 33.8243 38.8742 23.7443 29.7281 24.8197C20.5821 25.895 13.9829 36.569 22.7572 35.1967Z" fill="url(#paint6_linear)"/>
<path opacity="0.4" d="M23.9027 33.6585C30.2321 32.5752 35.4025 25.2973 28.8082 26.1652C22.2138 27.033 17.5732 34.7417 23.9027 33.6585Z" stroke="#D7911D" stroke-width="0.57385"/>
<path d="M56.6307 21.7775C56.6244 20.352 57.0362 19.6291 57.6577 19.4385L58.5067 19.0484L58.6414 19.3651C60.6586 19.9899 63.5129 23.8164 63.3656 27.7059C63.3346 28.5247 63.1884 29.1156 62.959 29.5107L63.0838 29.8038L62.4105 30.044C60.5706 30.9087 56.6504 26.2709 56.6307 21.7775Z" fill="#D7911D"/>
<path d="M57.488 21.3319C57.5254 27.1895 64.0072 33.4876 64.2247 27.4372C64.4422 21.3869 57.4506 15.4742 57.488 21.3319Z" fill="url(#paint7_linear)"/>
<path opacity="0.3" d="M58.233 22.0123C58.262 26.5665 63.3015 31.463 63.4706 26.7591C63.6397 22.0551 58.2039 17.4581 58.233 22.0123Z" stroke="#D7911D" stroke-width="0.57385"/>
<path d="M31.8013 65.4908L46.9378 57.4875L61.7226 65.2449L46.5558 74.1625L31.8013 65.4908Z" fill="url(#paint8_linear)"/>
<path d="M39.2954 65.6798L46.8777 61.6675L54.2837 65.5565L46.6863 70.0272L39.2954 65.6798Z" fill="url(#paint9_linear)"/>
<g opacity="0.405357" filter="url(#filter1_f)">
<ellipse cx="60.4859" cy="78.9525" rx="9.69071" ry="9.22029" fill="#FFC37E" fill-opacity="0.98"/>
</g>
<g opacity="0.405357" filter="url(#filter2_f)">
<ellipse cx="28.996" cy="67.9797" rx="9.20866" ry="8.76164" fill="#FF7E95" fill-opacity="0.98"/>
</g>
<path d="M47.0481 65.3555V52.0237L53.0498 47.5606C53.3014 47.3735 53.4497 47.0785 53.4497 46.7649V38.3093" stroke="url(#paint10_linear)" stroke-width="0.991613"/>
<path d="M47.0258 51.9796V46.545C47.0258 45.9974 46.5818 45.5534 46.0342 45.5534H41.6213V38.5554" stroke="url(#paint11_linear)" stroke-width="0.991613"/>
<ellipse cx="41.7503" cy="38.6782" rx="1.16289" ry="1.10644" fill="url(#paint12_linear)"/>
<ellipse cx="53.3797" cy="38.6782" rx="1.16289" ry="1.10644" fill="url(#paint13_linear)"/>
<ellipse cx="47.177" cy="51.7097" rx="1.16289" ry="1.10644" fill="url(#paint14_linear)"/>
<path d="M30.8639 48.0468C31.7282 46.4277 32.6399 45.8146 33.4656 45.9101L34.6727 45.8935L34.6329 46.3201C36.5523 48.0398 37.4697 53.8091 34.9238 58.1447C34.3878 59.0574 33.8598 59.654 33.3566 59.9869L33.3198 60.3818L32.4047 60.3165C29.7769 60.3744 28.1394 53.1509 30.8639 48.0468Z" fill="#D7911D"/>
<path d="M32.1133 47.971C28.575 54.6306 32.1202 65.0206 36.0671 58.2704C40.014 51.5202 35.6516 41.3113 32.1133 47.971Z" fill="url(#paint15_linear)"/>
<path opacity="0.4" d="M32.6216 49.309C30.0032 54.2371 32.6267 61.9257 35.5474 56.9306C38.4681 51.9354 35.24 44.3809 32.6216 49.309Z" stroke="#D7911D" stroke-width="0.57385"/>
<path opacity="0.2" fill-rule="evenodd" clip-rule="evenodd" d="M37.4809 54.2009C37.4408 54.2171 37.4005 54.2337 37.3598 54.2506C35.022 55.2255 33.0607 56.865 31.6556 58.6249C32.6883 60.8331 34.4331 61.4457 36.1734 58.3389C36.8969 57.0472 37.3098 55.6182 37.4809 54.2009Z" fill="black"/>
<defs>
<filter id="filter0_f" x="25.5299" y="0.512112" width="94.6056" height="93.1331" filterUnits="userSpaceOnUse" color-interpolation-filters="sRGB">
<feFlood flood-opacity="0" result="BackgroundImageFix"/>
<feBlend mode="normal" in="SourceGraphic" in2="BackgroundImageFix" result="shape"/>
<feGaussianBlur stdDeviation="16.0678" result="effect1_foregroundBlur"/>
</filter>
<filter id="filter1_f" x="42.7613" y="61.6983" width="35.4492" height="34.5084" filterUnits="userSpaceOnUse" color-interpolation-filters="sRGB">
<feFlood flood-opacity="0" result="BackgroundImageFix"/>
<feBlend mode="normal" in="SourceGraphic" in2="BackgroundImageFix" result="shape"/>
<feGaussianBlur stdDeviation="4.01695" result="effect1_foregroundBlur"/>
</filter>
<filter id="filter2_f" x="0.276459" y="39.7071" width="57.4391" height="56.5451" filterUnits="userSpaceOnUse" color-interpolation-filters="sRGB">
<feFlood flood-opacity="0" result="BackgroundImageFix"/>
<feBlend mode="normal" in="SourceGraphic" in2="BackgroundImageFix" result="shape"/>
<feGaussianBlur stdDeviation="9.75545" result="effect1_foregroundBlur"/>
</filter>
<linearGradient id="paint0_linear" x1="55.6317" y1="35.1514" x2="7.62851" y2="52.5987" gradientUnits="userSpaceOnUse">
<stop stop-color="#EDB64F"/>
<stop offset="1" stop-color="#DD26BC"/>
</linearGradient>
<linearGradient id="paint1_linear" x1="54.0415" y1="78.2873" x2="25.4651" y2="60.3844" gradientUnits="userSpaceOnUse">
<stop stop-color="#6B1B98"/>
<stop offset="1" stop-color="#DE0F62"/>
</linearGradient>
<linearGradient id="paint2_linear" x1="32.9851" y1="65.041" x2="21.1541" y2="81.7537" gradientUnits="userSpaceOnUse">
<stop stop-color="#FFD599"/>
<stop offset="0.482372" stop-color="#D178A0"/>
<stop offset="1" stop-color="#FFCE08"/>
</linearGradient>
<linearGradient id="paint3_linear" x1="19.4004" y1="12.1342" x2="19.4004" y2="87.4887" gradientUnits="userSpaceOnUse">
<stop stop-color="#FDF27D" stop-opacity="0.01"/>
<stop offset="0.4936" stop-color="#FCF17B" stop-opacity="0.240234"/>
<stop offset="1" stop-color="#FBF079"/>
</linearGradient>
<linearGradient id="paint4_linear" x1="33.6598" y1="16.1414" x2="33.6598" y2="70.1683" gradientUnits="userSpaceOnUse">
<stop stop-color="#FDF27D" stop-opacity="0.01"/>
<stop offset="0.4936" stop-color="#FCF17B" stop-opacity="0.240234"/>
<stop offset="1" stop-color="#FBF079"/>
</linearGradient>
<linearGradient id="paint5_linear" x1="53.8747" y1="35.8014" x2="47.9398" y2="53.8619" gradientUnits="userSpaceOnUse">
<stop stop-color="#FFF585"/>
<stop offset="1" stop-color="#DCC613"/>
</linearGradient>
<linearGradient id="paint6_linear" x1="29.1676" y1="41.8434" x2="41.9985" y2="27.4798" gradientUnits="userSpaceOnUse">
<stop stop-color="#FFF585"/>
<stop offset="1" stop-color="#DCC613"/>
</linearGradient>
<linearGradient id="paint7_linear" x1="51.9907" y1="24.4157" x2="59.6091" y2="35.8218" gradientUnits="userSpaceOnUse">
<stop stop-color="#FFF585"/>
<stop offset="1" stop-color="#DCC613"/>
</linearGradient>
<linearGradient id="paint8_linear" x1="57.2913" y1="46.3433" x2="28.8431" y2="79.8247" gradientUnits="userSpaceOnUse">
<stop stop-color="#EDB64F"/>
<stop offset="0.977895" stop-color="#E64082"/>
</linearGradient>
<linearGradient id="paint9_linear" x1="51.3061" y1="60.755" x2="33.0458" y2="60.755" gradientUnits="userSpaceOnUse">
<stop stop-color="#FFD066"/>
<stop offset="1" stop-color="#CE1D64"/>
</linearGradient>
<linearGradient id="paint10_linear" x1="46.3155" y1="31.5478" x2="29.4781" y2="41.3426" gradientUnits="userSpaceOnUse">
<stop stop-color="#FFD599"/>
<stop offset="0.482372" stop-color="#D178A0"/>
<stop offset="1" stop-color="#FFE26F"/>
</linearGradient>
<linearGradient id="paint11_linear" x1="38.6253" y1="36.7607" x2="30.3837" y2="62.9282" gradientUnits="userSpaceOnUse">
<stop stop-color="#FFD599"/>
<stop offset="1" stop-color="#A014A8"/>
</linearGradient>
<linearGradient id="paint12_linear" x1="46.1232" y1="41.6955" x2="43.9943" y2="35.5193" gradientUnits="userSpaceOnUse">
<stop stop-color="#FFFCF5"/>
<stop offset="1" stop-color="#FFEFAD"/>
</linearGradient>
<linearGradient id="paint13_linear" x1="57.7526" y1="41.6955" x2="55.6237" y2="35.5193" gradientUnits="userSpaceOnUse">
<stop stop-color="#FFFCF5"/>
<stop offset="1" stop-color="#FFEFAD"/>
</linearGradient>
<linearGradient id="paint14_linear" x1="51.5499" y1="54.727" x2="49.4211" y2="48.5508" gradientUnits="userSpaceOnUse">
<stop stop-color="#FFFCF5"/>
<stop offset="1" stop-color="#FFEFAD"/>
</linearGradient>
<linearGradient id="paint15_linear" x1="23.9561" y1="48.7109" x2="26.6944" y2="65.2935" gradientUnits="userSpaceOnUse">
<stop stop-color="#FFF585"/>
<stop offset="1" stop-color="#DCC613"/>
</linearGradient>
</defs>
</svg>
