<svg width="350" height="225" viewBox="0 0 350 225" fill="none" xmlns="http://www.w3.org/2000/svg">
<mask id="mask0" mask-type="alpha" maskUnits="userSpaceOnUse" x="0" y="0" width="350" height="225">
<rect x="0.75" width="349" height="225" rx="10" fill="#025DFF"/>
</mask>
<g mask="url(#mask0)">
<rect x="0.75" width="349" height="225" fill="url(#paint0_linear)"/>
<rect x="0.75" width="349" height="225" fill="url(#paint1_linear)"/>
<rect x="0.75" width="349" height="225" fill="url(#paint2_linear)"/>
<g opacity="0.05">
<path d="M222.875 225C197.945 225 178.23 215.1 159.16 205.53C140.239 196.029 120.665 186.199 96.0825 186.199C71.492 186.199 51.9256 196.022 33.0048 205.523C22.8657 210.613 12.3789 215.878 1.2135 219.594L0.75 218.62C11.8161 214.932 22.2615 209.694 32.3592 204.618C51.429 195.048 71.1444 185.148 96.0742 185.148C121.004 185.148 140.719 195.048 159.789 204.618C178.71 214.118 198.285 223.948 222.867 223.948C247.449 223.948 267.024 214.125 285.945 204.618C305.014 195.048 324.73 185.148 349.66 185.148V186.199C325.069 186.199 305.503 196.022 286.582 205.53C267.52 215.1 247.797 225 222.875 225Z" fill="white"/>
<path d="M222.875 217.946C197.945 217.946 178.23 208.047 159.16 198.469C140.239 188.969 120.665 179.139 96.0825 179.139C71.492 179.139 51.9256 188.962 33.0048 198.469C22.8657 203.559 12.3789 208.825 1.2135 212.541L0.75 211.566C11.8161 207.878 22.2615 202.634 32.3592 197.565C51.429 187.987 71.1444 178.087 96.0742 178.087C121.004 178.087 140.719 187.987 159.789 197.565C178.71 207.065 198.285 216.895 222.867 216.895C247.449 216.895 267.024 207.072 285.945 197.565C305.014 187.987 324.73 178.087 349.66 178.087V179.139C325.069 179.139 305.503 188.962 286.582 198.469C267.52 208.047 247.797 217.946 222.875 217.946Z" fill="white"/>
<path d="M222.875 210.893C197.945 210.893 178.23 200.993 159.16 191.423C140.239 181.922 120.665 172.092 96.0825 172.092C71.492 172.092 51.9256 181.915 33.0048 191.416C22.8657 196.506 12.3789 201.771 1.2135 205.487L0.75 204.513C11.8161 200.825 22.2615 195.587 32.3592 190.511C51.429 180.941 71.1444 171.041 96.0742 171.041C121.004 171.041 140.719 180.941 159.789 190.511C178.71 200.011 198.285 209.841 222.867 209.841C247.449 209.841 267.024 200.019 285.945 190.511C305.014 180.941 324.73 171.041 349.66 171.041V172.092C325.069 172.092 305.503 181.915 286.582 191.423C267.52 200.993 247.797 210.893 222.875 210.893Z" fill="white"/>
<path d="M222.875 203.833C197.945 203.833 178.23 193.933 159.16 184.362C140.239 174.862 120.665 165.032 96.0825 165.032C71.492 165.032 51.9256 174.855 33.0048 184.355C22.8657 189.446 12.3789 194.711 1.2135 198.427L0.75 197.46C11.8161 193.772 22.2615 188.534 32.3592 183.458C51.429 173.888 71.1444 163.988 96.0742 163.988C121.004 163.988 140.719 173.888 159.789 183.458C178.71 192.958 198.285 202.788 222.867 202.788C247.449 202.788 267.024 192.965 285.945 183.458C305.014 173.888 324.73 163.988 349.66 163.988V165.039C325.069 165.039 305.503 174.862 286.582 184.369C267.52 193.933 247.797 203.833 222.875 203.833Z" fill="white"/>
<path d="M222.875 196.779C197.945 196.779 178.23 186.879 159.16 177.309C140.239 167.808 120.665 157.986 96.0825 157.986C71.492 157.986 51.9256 167.808 33.0048 177.309C22.8657 182.399 12.3789 187.664 1.2135 191.38L0.75 190.399C11.8161 186.711 22.2615 181.473 32.3592 176.397C51.429 166.827 71.1444 156.927 96.0742 156.927C121.004 156.927 140.719 166.827 159.789 176.397C178.71 185.898 198.285 195.72 222.867 195.72C247.449 195.72 267.024 185.898 285.945 176.397C305.014 166.82 324.73 156.927 349.66 156.927V157.979C325.069 157.979 305.503 167.801 286.582 177.302C267.52 186.879 247.797 196.779 222.875 196.779Z" fill="white"/>
<path d="M222.875 189.726C197.945 189.726 178.23 179.826 159.16 170.256C140.239 160.755 120.665 150.926 96.0825 150.926C71.492 150.926 51.9256 160.748 33.0048 170.249C22.8491 175.346 12.3624 180.611 1.20523 184.327L0.75 183.346C11.8161 179.658 22.2615 174.421 32.3592 169.344C51.429 159.774 71.1444 149.874 96.0742 149.874C121.004 149.874 140.719 159.774 159.789 169.344C178.71 178.845 198.285 188.674 222.867 188.674C247.449 188.674 267.024 178.852 285.945 169.344C305.014 159.774 324.73 149.874 349.66 149.874V150.926C325.069 150.926 305.503 160.748 286.582 170.256C267.52 179.826 247.797 189.726 222.875 189.726Z" fill="white"/>
<path d="M222.875 182.673C197.945 182.673 178.23 172.773 159.16 163.202C140.239 153.702 120.665 143.879 96.0825 143.879C71.492 143.879 51.9256 153.702 33.0048 163.202C22.8657 168.293 12.3789 173.558 1.2135 177.274L0.75 176.292C11.8161 172.605 22.2615 167.367 32.3592 162.291C51.429 152.72 71.1444 142.82 96.0742 142.82C121.004 142.82 140.719 152.72 159.789 162.291C178.71 171.791 198.285 181.614 222.867 181.614C247.449 181.614 267.024 171.791 285.945 162.291C305.014 152.713 324.73 142.82 349.66 142.82V143.872C325.069 143.872 305.503 153.695 286.582 163.195C267.52 172.773 247.797 182.673 222.875 182.673Z" fill="white"/>
<path d="M222.875 175.62C197.945 175.62 178.23 165.72 159.16 156.149C140.239 146.649 120.665 136.819 96.0825 136.819C71.492 136.819 51.9256 146.642 33.0048 156.142C22.8657 161.232 12.3789 166.498 1.2135 170.214L0.75 169.239C11.8161 165.551 22.2615 160.314 32.3592 155.238C51.429 145.667 71.1444 135.767 96.0742 135.767C121.004 135.767 140.719 145.667 159.789 155.238C178.71 164.738 198.285 174.568 222.867 174.568C247.449 174.568 267.024 164.745 285.945 155.238C305.014 145.667 324.73 135.767 349.66 135.767V136.819C325.069 136.819 305.503 146.642 286.582 156.149C267.52 165.72 247.797 175.62 222.875 175.62Z" fill="white"/>
<path d="M222.875 168.566C197.945 168.566 178.23 158.666 159.16 149.095C140.239 139.595 120.665 129.765 96.0825 129.765C71.492 129.765 51.9256 139.588 33.0048 149.088C22.8657 154.179 12.3789 159.444 1.2135 163.16L0.75 162.186C11.8161 158.498 22.2615 153.26 32.3592 148.184C51.429 138.614 71.1444 128.714 96.0742 128.714C121.004 128.714 140.719 138.614 159.789 148.184C178.71 157.684 198.285 167.514 222.867 167.514C247.449 167.514 267.024 157.691 285.945 148.184C305.014 138.614 324.73 128.714 349.66 128.714V129.765C325.069 129.765 305.503 139.588 286.582 149.095C267.52 158.666 247.797 168.566 222.875 168.566Z" fill="white"/>
<path d="M222.875 161.506C197.945 161.506 178.23 151.606 159.16 142.035C140.239 132.535 120.665 122.712 96.0825 122.712C71.492 122.712 51.9256 132.535 33.0048 142.035C22.8657 147.125 12.3789 152.391 1.2135 156.107L0.75 155.132C11.8161 151.444 22.2615 146.2 32.3592 141.131C51.429 131.56 71.1444 121.66 96.0742 121.66C121.004 121.66 140.719 131.56 159.789 141.131C178.71 150.631 198.285 160.454 222.867 160.454C247.449 160.454 267.024 150.631 285.945 141.131C305.014 131.553 324.73 121.66 349.66 121.66V122.712C325.069 122.712 305.503 132.535 286.582 142.035C267.52 151.606 247.797 161.506 222.875 161.506Z" fill="white"/>
<path d="M222.875 154.452C197.945 154.452 178.23 144.552 159.16 134.982C140.239 125.482 120.665 115.652 96.0825 115.652C71.492 115.652 51.9256 125.474 33.0048 134.975C22.8657 140.065 12.3789 145.331 1.2135 149.047L0.75 148.072C11.8161 144.384 22.2615 139.14 32.3592 134.07C51.429 124.5 71.1444 114.6 96.0742 114.6C121.004 114.6 140.719 124.5 159.789 134.07C178.71 143.571 198.285 153.401 222.867 153.401C247.449 153.401 267.024 143.578 285.945 134.07C305.014 124.5 324.73 114.6 349.66 114.6V115.652C325.069 115.652 305.503 125.474 286.582 134.982C267.52 144.552 247.797 154.452 222.875 154.452Z" fill="white"/>
<path d="M222.875 147.399C197.945 147.399 178.23 137.499 159.16 127.928C140.239 118.428 120.665 108.605 96.0825 108.605C71.492 108.605 51.9256 118.428 33.0048 127.928C22.8657 133.018 12.3789 138.284 1.2135 142L0.75 141.018C11.8161 137.33 22.2615 132.093 32.3592 127.017C51.429 117.446 71.1444 107.546 96.0742 107.546C121.004 107.546 140.719 117.446 159.789 127.017C178.71 136.517 198.285 146.34 222.867 146.34C247.449 146.34 267.024 136.517 285.945 127.017C305.014 117.446 324.73 107.546 349.66 107.546V108.598C325.069 108.598 305.503 118.421 286.582 127.921C267.52 137.499 247.797 147.399 222.875 147.399Z" fill="white"/>
<path d="M222.875 140.345C197.945 140.345 178.23 130.445 159.16 120.875C140.239 111.375 120.665 101.545 96.0825 101.545C71.492 101.545 51.9256 111.368 33.0048 120.868C22.8657 125.958 12.3789 131.224 1.2135 134.94L0.75 133.965C11.8161 130.277 22.2615 125.033 32.3592 119.963C51.429 110.393 71.1444 100.493 96.0742 100.493C121.004 100.493 140.719 110.393 159.789 119.963C178.71 129.464 198.285 139.294 222.867 139.294C247.449 139.294 267.024 129.471 285.945 119.963C305.014 110.386 324.73 100.493 349.66 100.493V101.545C325.069 101.545 305.503 111.368 286.582 120.875C267.52 130.445 247.797 140.345 222.875 140.345Z" fill="white"/>
<path d="M222.875 133.292C197.945 133.292 178.23 123.392 159.16 113.821C140.239 104.321 120.665 94.4913 96.0825 94.4913C71.492 94.4913 51.9256 104.314 33.0048 113.821C22.8491 118.905 12.3624 124.17 1.20523 127.886L0.75 126.912C11.8161 123.224 22.2615 117.986 32.3592 112.91C51.429 103.34 71.1444 93.4396 96.0742 93.4396C121.004 93.4396 140.719 103.34 159.789 112.91C178.71 122.41 198.285 132.233 222.867 132.233C247.449 132.233 267.024 122.41 285.945 112.91C305.014 103.333 324.73 93.4396 349.66 93.4396V94.4913C325.069 94.4913 305.503 104.314 286.582 113.821C267.52 123.392 247.797 133.292 222.875 133.292Z" fill="white"/>
<path d="M222.875 126.231C197.945 126.231 178.23 116.331 159.16 106.761C140.239 97.2607 120.665 87.4379 96.0825 87.4379C71.492 87.4379 51.9256 97.2607 33.0048 106.761C22.8657 111.851 12.3789 117.117 1.2135 120.833L0.75 119.858C11.8161 116.17 22.2615 110.933 32.3592 105.857C51.429 96.2791 71.1444 86.3862 96.0742 86.3862C121.004 86.3862 140.719 96.2862 159.789 105.857C178.71 115.357 198.285 125.187 222.867 125.187C247.449 125.187 267.024 115.364 285.945 105.857C305.014 96.2791 324.73 86.3862 349.66 86.3862V87.4379C325.069 87.4379 305.503 97.2607 286.582 106.761C267.52 116.339 247.797 126.231 222.875 126.231Z" fill="white"/>
<path d="M222.875 119.178C197.945 119.178 178.23 109.278 159.16 99.7078C140.239 90.2075 120.665 80.3847 96.0825 80.3847C71.492 80.3847 51.9256 90.2075 33.0048 99.7078C22.8657 104.798 12.3789 110.064 1.2135 113.78L0.75 112.798C11.8161 109.11 22.2615 103.873 32.3592 98.7964C51.429 89.2259 71.1444 79.326 96.0742 79.326C121.004 79.326 140.719 89.2259 159.789 98.7964C178.71 108.297 198.285 118.12 222.867 118.12C247.449 118.12 267.024 108.297 285.945 98.7964C305.014 89.2259 324.73 79.326 349.66 79.326V80.3777C325.069 80.3777 305.503 90.2005 286.582 99.7008C267.52 109.278 247.797 119.178 222.875 119.178Z" fill="white"/>
<path d="M222.875 112.125C197.945 112.125 178.23 102.225 159.16 92.6544C140.239 83.1541 120.665 73.3312 96.0825 73.3312C71.492 73.3312 51.9256 83.1541 33.0048 92.6544C22.8657 97.7446 12.3789 103.01 1.2135 106.726L0.75 105.745C11.8161 102.057 22.2615 96.8121 32.3592 91.7429C51.429 82.1725 71.1444 72.2725 96.0742 72.2725C121.004 72.2725 140.719 82.1725 159.789 91.7429C178.71 101.243 198.285 111.066 222.867 111.066C247.449 111.066 267.024 101.243 285.945 91.7429C305.014 82.1655 324.73 72.2725 349.66 72.2725V73.3242C325.069 73.3242 305.503 83.1471 286.582 92.6474C267.52 102.225 247.797 112.125 222.875 112.125Z" fill="white"/>
<path d="M222.875 105.071C197.945 105.071 178.23 95.1714 159.16 85.601C140.239 76.1006 120.665 66.2778 96.0825 66.2778C71.492 66.2778 51.9256 76.1006 33.0048 85.601C22.8657 90.6912 12.3789 95.9567 1.2135 99.6727L0.75 98.6911C11.8161 95.0031 22.2615 89.7657 32.3592 84.6895C51.429 75.1191 71.1444 65.2191 96.0742 65.2191C121.004 65.2191 140.719 75.1191 159.789 84.6895C178.71 94.1898 198.285 104.013 222.867 104.013C247.449 104.013 267.024 94.1898 285.945 84.6895C305.014 75.1121 324.73 65.2191 349.66 65.2191V66.2708C325.069 66.2708 305.503 76.0936 286.582 85.594C267.52 95.1714 247.797 105.071 222.875 105.071Z" fill="white"/>
<path d="M222.875 98.0179C197.945 98.0179 178.23 88.118 159.16 78.5475C140.239 69.0472 120.665 59.2244 96.0825 59.2244C71.492 59.2244 51.9256 69.0472 33.0048 78.5475C22.8657 83.6377 12.3789 88.9032 1.2135 92.6192L0.75 91.6376C11.8161 87.9497 22.2615 82.7122 32.3592 77.6361C51.429 68.0656 71.1444 58.1657 96.0742 58.1657C121.004 58.1657 140.719 68.0656 159.789 77.6361C178.71 87.1364 198.285 96.9662 222.867 96.9662C247.449 96.9662 267.024 87.1434 285.945 77.6361C305.014 68.0586 324.73 58.1657 349.66 58.1657V59.2174C325.069 59.2174 305.503 69.0402 286.582 78.5405C267.52 88.118 247.797 98.0179 222.875 98.0179Z" fill="white"/>
<path d="M222.875 90.9647C197.945 90.9647 178.23 81.0648 159.16 71.4943C140.239 61.994 120.665 52.1712 96.0825 52.1712C71.5003 52.1712 51.9256 61.994 33.0048 71.4943C22.8657 76.5845 12.3789 81.85 1.2135 85.566L0.75 84.5844C11.8161 80.8965 22.2615 75.659 32.3592 70.5829C51.429 61.0124 71.1444 51.1125 96.0742 51.1125C121.004 51.1125 140.719 61.0124 159.789 70.5829C178.71 80.0832 198.285 89.913 222.867 89.913C247.449 89.913 267.024 80.0902 285.945 70.5829C305.014 61.0124 324.73 51.1125 349.66 51.1125V52.1642C325.069 52.1642 305.503 61.987 286.582 71.4873C267.52 81.0648 247.797 90.9647 222.875 90.9647Z" fill="white"/>
<path d="M222.875 83.9043C197.945 83.9043 178.23 74.0043 159.16 64.4339C140.239 54.9336 120.665 45.1107 96.0825 45.1107C71.492 45.1107 51.9256 54.9336 33.0048 64.4339C22.8657 69.5241 12.3789 74.7896 1.2135 78.5056L0.75 77.531C11.8161 73.8431 22.2615 68.6056 32.3592 63.5294C51.429 53.959 71.1444 44.059 96.0742 44.059C121.004 44.059 140.719 53.959 159.789 63.5294C178.71 73.0297 198.285 82.8596 222.867 82.8596C247.449 82.8596 267.024 73.0368 285.945 63.5294C305.014 53.959 324.73 44.059 349.66 44.059V45.1107C325.069 45.1107 305.503 54.9336 286.582 64.4339C267.52 74.0043 247.797 83.9043 222.875 83.9043Z" fill="white"/>
<path d="M222.875 76.8513C197.945 76.8513 178.23 66.9514 159.16 57.3809C140.239 47.8806 120.665 38.0578 96.0825 38.0578C71.492 38.0578 51.9256 47.8806 33.0048 57.3809C22.8491 62.4711 12.3624 67.7366 1.20523 71.4526L0.75 70.471C11.8161 66.7831 22.2615 61.5456 32.3592 56.4695C51.429 46.899 71.1444 36.9991 96.0742 36.9991C121.004 36.9991 140.719 46.899 159.789 56.4695C178.71 65.9698 198.285 75.7926 222.867 75.7926C247.449 75.7926 267.024 65.9698 285.945 56.4695C305.014 46.892 324.73 36.9991 349.66 36.9991V38.0508C325.069 38.0508 305.503 47.8736 286.582 57.3739C267.52 66.9514 247.797 76.8513 222.875 76.8513Z" fill="white"/>
<path d="M222.875 69.7976C197.945 69.7976 178.23 59.8977 159.16 50.3272C140.239 40.8269 120.665 31.0041 96.0825 31.0041C71.492 31.0041 51.9256 40.8269 33.0048 50.3272C22.8491 55.4175 12.3624 60.6829 1.20523 64.3989L0.75 63.4174C11.8161 59.7294 22.2615 54.485 32.3592 49.4158C51.429 39.8453 71.1444 29.9454 96.0742 29.9454C121.004 29.9454 140.719 39.8453 159.789 49.4158C178.71 58.9161 198.285 68.7389 222.867 68.7389C247.449 68.7389 267.024 58.9161 285.945 49.4158C305.014 39.8453 324.73 29.9454 349.66 29.9454V30.9971C325.069 30.9971 305.503 40.8199 286.582 50.3202C267.52 59.8977 247.797 69.7976 222.875 69.7976Z" fill="white"/>
<path d="M222.875 62.7444C197.945 62.7444 178.23 52.8445 159.16 43.274C140.239 33.7737 120.665 23.9509 96.0825 23.9509C71.492 23.9509 51.9256 33.7737 33.0048 43.274C22.8491 48.3643 12.3624 53.6297 1.20523 57.3457L0.75 56.3642C11.8161 52.6762 22.2615 47.4388 32.3592 42.3626C51.429 32.7921 71.1444 22.8922 96.0742 22.8922C121.004 22.8922 140.719 32.7921 159.789 42.3626C178.71 51.8629 198.285 61.6857 222.867 61.6857C247.449 61.6857 267.024 51.8629 285.945 42.3626C305.014 32.7851 324.73 22.8922 349.66 22.8922V23.9439C325.069 23.9439 305.503 33.7667 286.582 43.267C267.52 52.8445 247.797 62.7444 222.875 62.7444Z" fill="white"/>
<path d="M222.875 55.6912C197.945 55.6912 178.23 45.7913 159.16 36.2208C140.239 26.7205 120.665 16.8907 96.0825 16.8907C71.492 16.8907 51.9256 26.7135 33.0048 36.2138C22.8491 41.304 12.3624 46.5695 1.20523 50.2855L0.75 49.311C11.8161 45.623 22.2615 40.3856 32.3592 35.3094C51.429 25.7389 71.1444 15.839 96.0742 15.839C121.004 15.839 140.719 25.7389 159.789 35.3094C178.71 44.8097 198.285 54.6325 222.867 54.6325C247.449 54.6325 267.024 44.8097 285.945 35.3094C305.014 25.7389 324.73 15.839 349.66 15.839V16.8907C325.069 16.8907 305.503 26.7135 286.582 36.2208C267.52 45.7913 247.797 55.6912 222.875 55.6912Z" fill="white"/>
<path d="M222.875 48.6373C197.945 48.6373 178.23 38.7374 159.16 29.1669C140.239 19.6666 120.665 9.83676 96.0825 9.83676C71.492 9.83676 51.9256 19.6596 33.0048 29.1599C22.8491 34.2501 12.3624 39.5156 1.20523 43.2316L0.75 42.257C11.8161 38.5691 22.2615 33.3316 32.3592 28.2555C51.429 18.685 71.1444 8.78506 96.0742 8.78506C121.004 8.78506 140.719 18.685 159.789 28.2555C178.71 37.7558 198.285 47.5856 222.867 47.5856C247.449 47.5856 267.024 37.7628 285.945 28.2555C305.014 18.685 324.73 8.78506 349.66 8.78506V9.83676C325.069 9.83676 305.503 19.6596 286.582 29.1669C267.52 38.7374 247.797 48.6373 222.875 48.6373Z" fill="white"/>
<path d="M222.875 41.5771C197.945 41.5771 178.23 31.6771 159.16 22.1067C140.239 12.6064 120.665 2.78355 96.0825 2.78355C71.492 2.78355 51.9256 12.6064 33.0048 22.1067C22.8491 27.1969 12.3624 32.4624 1.20523 36.1784L0.75 35.2038C11.8161 31.5159 22.2615 26.2714 32.3592 21.2023C51.429 11.6248 71.1444 1.72485 96.0742 1.72485C121.004 1.72485 140.719 11.6248 159.789 21.1952C178.71 30.6956 198.285 40.5184 222.867 40.5184C247.449 40.5184 267.024 30.6956 285.945 21.1952C305.014 11.6178 324.73 1.72485 349.66 1.72485V2.77654C325.069 2.77654 305.503 12.5994 286.582 22.0997C267.52 31.6771 247.797 41.5771 222.875 41.5771Z" fill="white"/>
<path d="M222.875 34.5237C197.945 34.5237 178.23 24.6237 159.16 15.0463C148.988 9.94904 138.476 4.66953 127.328 0.981583L127.783 0C139.031 3.723 149.584 9.02355 159.789 14.1488C178.718 23.6491 198.285 33.479 222.875 33.479C247.466 33.479 267.032 23.6561 285.953 14.1558C296.158 9.02355 306.719 3.723 317.968 0L318.423 0.981583C307.274 4.66953 296.762 9.94904 286.59 15.0533C267.52 24.6237 247.797 34.5237 222.875 34.5237Z" fill="white"/>
<path d="M1.20523 29.125L0.75 28.1434C11.8161 24.4554 22.2615 19.218 32.3592 14.1418C42.5728 9.02355 53.1258 3.723 64.374 0L64.8292 0.981583C53.672 4.66953 43.1605 9.94904 32.9965 15.0533C22.8491 20.1435 12.3624 25.409 1.20523 29.125Z" fill="white"/>
<path d="M222.875 27.4701C197.945 27.4701 178.23 17.5701 159.16 7.99265C154.467 5.63685 149.609 3.19692 144.75 0.94629L145.346 0.0207971C150.221 2.27844 155.088 4.71837 159.789 7.08118C178.71 16.5815 198.285 26.4114 222.875 26.4114C247.466 26.4114 267.032 16.5885 285.961 7.08118C290.671 4.71837 295.529 2.27844 300.404 0.0207971L301 0.94629C296.15 3.19692 291.292 5.63685 286.59 7.99265C267.52 17.5701 247.797 27.4701 222.875 27.4701Z" fill="white"/>
<path d="M1.20523 22.0708L0.75 21.0892C11.8161 17.4013 22.2615 12.1638 32.3592 7.09467C37.0687 4.73186 41.9355 2.29192 46.8105 0.0272695L47.4065 0.952762C42.548 3.20339 37.6895 5.63631 32.9882 7.99912C22.8491 13.0893 12.3624 18.3548 1.20523 22.0708Z" fill="white"/>
<path d="M222.875 20.4172C197.945 20.4172 178.23 10.5172 159.16 0.939766L159.789 0.0353072C178.718 9.53563 198.285 19.3655 222.875 19.3655C247.466 19.3655 267.032 9.54264 285.953 0.0423185L286.59 0.946777C267.512 10.5172 247.797 20.4172 222.875 20.4172Z" fill="white"/>
<path d="M1.20523 15.0175L0.75 14.036C11.8161 10.355 22.2532 5.11056 32.3426 0.0413825L32.9882 0.93883C22.8408 6.03605 12.3624 11.3015 1.20523 15.0175Z" fill="white"/>
<path d="M222.875 13.3629C203.061 13.3629 186.846 7.0878 173.603 0.95291L174.199 0.0274176C187.301 6.09921 203.342 12.3112 222.875 12.3112C242.409 12.3112 258.441 6.10622 271.551 0.0274176L272.147 0.95291C258.896 7.0878 242.69 13.3629 222.875 13.3629Z" fill="white"/>
<path d="M1.20523 7.95706L0.75 6.98249C6.08028 5.20863 11.543 3.00006 17.9492 0.0272695L18.5452 0.952762C12.0893 3.94659 6.57689 6.16917 1.20523 7.95706Z" fill="white"/>
<path d="M222.875 6.31018C212.372 6.31018 202.001 4.56436 191.167 0.981583L191.622 0C202.307 3.5337 212.529 5.25848 222.875 5.25848C233.221 5.25848 243.443 3.54071 254.128 0L254.584 0.981583C243.741 4.56436 233.37 6.31018 222.875 6.31018Z" fill="white"/>
</g>
<g filter="url(#filter0_b)">
<path d="M108.13 134.517C9.94608 111.203 -62.792 186.718 -78.9506 210.788L-64.7914 230.408L-34.2085 263.865L459.671 280.286L470.056 -98.8385C474.046 -132.63 359.002 -155.172 357.896 -122.08C355.563 -52.2918 360.644 1.44059 328.162 54.7149C302.198 97.2992 245.698 167.182 108.13 134.517Z" fill="url(#paint3_linear)" fill-opacity="0.1"/>
</g>
<g opacity="0.75" filter="url(#filter1_f)">
<ellipse cx="124.727" cy="246.635" rx="123.727" ry="152.635" fill="#316BFF"/>
</g>
</g>
<defs>
<filter id="filter0_b" x="-82.9507" y="-142.287" width="557.108" height="426.573" filterUnits="userSpaceOnUse" color-interpolation-filters="sRGB">
<feFlood flood-opacity="0" result="BackgroundImageFix"/>
<feGaussianBlur in="BackgroundImage" stdDeviation="2"/>
<feComposite in2="SourceAlpha" operator="in" result="effect1_backgroundBlur"/>
<feBlend mode="normal" in="SourceGraphic" in2="effect1_backgroundBlur" result="shape"/>
</filter>
<filter id="filter1_f" x="-149" y="-56" width="547.455" height="605.27" filterUnits="userSpaceOnUse" color-interpolation-filters="sRGB">
<feFlood flood-opacity="0" result="BackgroundImageFix"/>
<feBlend mode="normal" in="SourceGraphic" in2="BackgroundImageFix" result="shape"/>
<feGaussianBlur stdDeviation="75" result="effect1_foregroundBlur"/>
</filter>
<linearGradient id="paint0_linear" x1="28.9882" y1="213.586" x2="107.338" y2="-54.518" gradientUnits="userSpaceOnUse">
<stop stop-color="#03001E"/>
<stop offset="0.526042" stop-color="#7303C0"/>
<stop offset="1" stop-color="#EC38BC"/>
</linearGradient>
<linearGradient id="paint1_linear" x1="235.812" y1="291.477" x2="-113.31" y2="32.5307" gradientUnits="userSpaceOnUse">
<stop stop-color="#6713D2"/>
<stop offset="1" stop-color="#CC208E"/>
</linearGradient>
<linearGradient id="paint2_linear" x1="21.8354" y1="213.171" x2="210.535" y2="-67.6084" gradientUnits="userSpaceOnUse">
<stop stop-color="#2F3E85"/>
<stop offset="1" stop-color="#909FE7"/>
</linearGradient>
<linearGradient id="paint3_linear" x1="424.848" y1="-143.623" x2="-115.185" y2="123.171" gradientUnits="userSpaceOnUse">
<stop stop-color="white"/>
<stop offset="1" stop-color="white" stop-opacity="0.5"/>
</linearGradient>
</defs>
</svg>
