<svg width="349" height="225" viewBox="0 0 349 225" fill="none" xmlns="http://www.w3.org/2000/svg">
<mask id="mask0" mask-type="alpha" maskUnits="userSpaceOnUse" x="0" y="0" width="349" height="225">
<rect width="349" height="225" rx="10" fill="#025DFF"/>
</mask>
<g mask="url(#mask0)">
<mask id="mask1" mask-type="alpha" maskUnits="userSpaceOnUse" x="0" y="0" width="349" height="225">
<rect width="349" height="225" fill="#C4C4C4"/>
</mask>
<g mask="url(#mask1)">
<rect width="349" height="225" fill="#FF7D54"/>
<g filter="url(#filter0_f)">
<ellipse cx="325.832" cy="0.608032" rx="123.727" ry="152.635" fill="#FFDE89"/>
</g>
<g filter="url(#filter1_f)">
<ellipse cx="330.268" cy="193.378" rx="104.503" ry="128.919" fill="#FFF27E"/>
</g>
<g filter="url(#filter2_f)">
<ellipse cx="72.4618" cy="169.662" rx="123.727" ry="152.635" fill="#C800FA"/>
</g>
<g filter="url(#filter3_f)">
<ellipse cx="104.996" cy="-35.8784" rx="166.12" ry="204.932" fill="#FF7C1D"/>
</g>
</g>
<g opacity="0.12">
<path d="M222.125 225C197.195 225 177.48 215.1 158.41 205.53C139.489 196.029 119.915 186.199 95.3325 186.199C70.742 186.199 51.1756 196.022 32.2548 205.523C22.1157 210.613 11.6289 215.878 0.463502 219.594L0 218.62C11.0661 214.932 21.5115 209.694 31.6092 204.618C50.679 195.048 70.3944 185.148 95.3242 185.148C120.254 185.148 139.969 195.048 159.039 204.618C177.96 214.118 197.535 223.948 222.117 223.948C246.699 223.948 266.274 214.125 285.195 204.618C304.264 195.048 323.98 185.148 348.91 185.148V186.199C324.319 186.199 304.753 196.022 285.832 205.53C266.77 215.1 247.047 225 222.125 225Z" fill="white"/>
<path d="M222.125 217.946C197.195 217.946 177.48 208.047 158.41 198.469C139.489 188.969 119.915 179.139 95.3325 179.139C70.742 179.139 51.1756 188.962 32.2548 198.469C22.1157 203.559 11.6289 208.825 0.463502 212.541L0 211.566C11.0661 207.878 21.5115 202.634 31.6092 197.565C50.679 187.987 70.3944 178.087 95.3242 178.087C120.254 178.087 139.969 187.987 159.039 197.565C177.96 207.065 197.535 216.895 222.117 216.895C246.699 216.895 266.274 207.072 285.195 197.565C304.264 187.987 323.98 178.087 348.91 178.087V179.139C324.319 179.139 304.753 188.962 285.832 198.469C266.77 208.047 247.047 217.946 222.125 217.946Z" fill="white"/>
<path d="M222.125 210.893C197.195 210.893 177.48 200.993 158.41 191.423C139.489 181.922 119.915 172.092 95.3325 172.092C70.742 172.092 51.1756 181.915 32.2548 191.416C22.1157 196.506 11.6289 201.771 0.463502 205.487L0 204.513C11.0661 200.825 21.5115 195.587 31.6092 190.511C50.679 180.941 70.3944 171.041 95.3242 171.041C120.254 171.041 139.969 180.941 159.039 190.511C177.96 200.011 197.535 209.841 222.117 209.841C246.699 209.841 266.274 200.019 285.195 190.511C304.264 180.941 323.98 171.041 348.91 171.041V172.092C324.319 172.092 304.753 181.915 285.832 191.423C266.77 200.993 247.047 210.893 222.125 210.893Z" fill="white"/>
<path d="M222.125 203.833C197.195 203.833 177.48 193.933 158.41 184.362C139.489 174.862 119.915 165.032 95.3325 165.032C70.742 165.032 51.1756 174.855 32.2548 184.355C22.1157 189.446 11.6289 194.711 0.463502 198.427L0 197.46C11.0661 193.772 21.5115 188.534 31.6092 183.458C50.679 173.888 70.3944 163.988 95.3242 163.988C120.254 163.988 139.969 173.888 159.039 183.458C177.96 192.958 197.535 202.788 222.117 202.788C246.699 202.788 266.274 192.965 285.195 183.458C304.264 173.888 323.98 163.988 348.91 163.988V165.039C324.319 165.039 304.753 174.862 285.832 184.369C266.77 193.933 247.047 203.833 222.125 203.833Z" fill="white"/>
<path d="M222.125 196.779C197.195 196.779 177.48 186.879 158.41 177.309C139.489 167.808 119.915 157.986 95.3325 157.986C70.742 157.986 51.1756 167.808 32.2548 177.309C22.1157 182.399 11.6289 187.664 0.463502 191.38L0 190.399C11.0661 186.711 21.5115 181.473 31.6092 176.397C50.679 166.827 70.3944 156.927 95.3242 156.927C120.254 156.927 139.969 166.827 159.039 176.397C177.96 185.898 197.535 195.72 222.117 195.72C246.699 195.72 266.274 185.898 285.195 176.397C304.264 166.82 323.98 156.927 348.91 156.927V157.979C324.319 157.979 304.753 167.801 285.832 177.302C266.77 186.879 247.047 196.779 222.125 196.779Z" fill="white"/>
<path d="M222.125 189.726C197.195 189.726 177.48 179.826 158.41 170.256C139.489 160.755 119.915 150.926 95.3325 150.926C70.742 150.926 51.1756 160.748 32.2548 170.249C22.0991 175.346 11.6124 180.611 0.455225 184.327L0 183.346C11.0661 179.658 21.5115 174.421 31.6092 169.344C50.679 159.774 70.3944 149.874 95.3242 149.874C120.254 149.874 139.969 159.774 159.039 169.344C177.96 178.845 197.535 188.674 222.117 188.674C246.699 188.674 266.274 178.852 285.195 169.344C304.264 159.774 323.98 149.874 348.91 149.874V150.926C324.319 150.926 304.753 160.748 285.832 170.256C266.77 179.826 247.047 189.726 222.125 189.726Z" fill="white"/>
<path d="M222.125 182.673C197.195 182.673 177.48 172.773 158.41 163.202C139.489 153.702 119.915 143.879 95.3325 143.879C70.742 143.879 51.1756 153.702 32.2548 163.202C22.1157 168.293 11.6289 173.558 0.463502 177.274L0 176.292C11.0661 172.605 21.5115 167.367 31.6092 162.291C50.679 152.72 70.3944 142.82 95.3242 142.82C120.254 142.82 139.969 152.72 159.039 162.291C177.96 171.791 197.535 181.614 222.117 181.614C246.699 181.614 266.274 171.791 285.195 162.291C304.264 152.713 323.98 142.82 348.91 142.82V143.872C324.319 143.872 304.753 153.695 285.832 163.195C266.77 172.773 247.047 182.673 222.125 182.673Z" fill="white"/>
<path d="M222.125 175.62C197.195 175.62 177.48 165.72 158.41 156.149C139.489 146.649 119.915 136.819 95.3325 136.819C70.742 136.819 51.1756 146.642 32.2548 156.142C22.1157 161.232 11.6289 166.498 0.463502 170.214L0 169.239C11.0661 165.551 21.5115 160.314 31.6092 155.238C50.679 145.667 70.3944 135.767 95.3242 135.767C120.254 135.767 139.969 145.667 159.039 155.238C177.96 164.738 197.535 174.568 222.117 174.568C246.699 174.568 266.274 164.745 285.195 155.238C304.264 145.667 323.98 135.767 348.91 135.767V136.819C324.319 136.819 304.753 146.642 285.832 156.149C266.77 165.72 247.047 175.62 222.125 175.62Z" fill="white"/>
<path d="M222.125 168.566C197.195 168.566 177.48 158.666 158.41 149.095C139.489 139.595 119.915 129.765 95.3325 129.765C70.742 129.765 51.1756 139.588 32.2548 149.088C22.1157 154.179 11.6289 159.444 0.463502 163.16L0 162.186C11.0661 158.498 21.5115 153.26 31.6092 148.184C50.679 138.614 70.3944 128.714 95.3242 128.714C120.254 128.714 139.969 138.614 159.039 148.184C177.96 157.684 197.535 167.514 222.117 167.514C246.699 167.514 266.274 157.691 285.195 148.184C304.264 138.614 323.98 128.714 348.91 128.714V129.765C324.319 129.765 304.753 139.588 285.832 149.095C266.77 158.666 247.047 168.566 222.125 168.566Z" fill="white"/>
<path d="M222.125 161.506C197.195 161.506 177.48 151.606 158.41 142.035C139.489 132.535 119.915 122.712 95.3325 122.712C70.742 122.712 51.1756 132.535 32.2548 142.035C22.1157 147.125 11.6289 152.391 0.463502 156.107L0 155.132C11.0661 151.444 21.5115 146.2 31.6092 141.131C50.679 131.56 70.3944 121.66 95.3242 121.66C120.254 121.66 139.969 131.56 159.039 141.131C177.96 150.631 197.535 160.454 222.117 160.454C246.699 160.454 266.274 150.631 285.195 141.131C304.264 131.553 323.98 121.66 348.91 121.66V122.712C324.319 122.712 304.753 132.535 285.832 142.035C266.77 151.606 247.047 161.506 222.125 161.506Z" fill="white"/>
<path d="M222.125 154.452C197.195 154.452 177.48 144.552 158.41 134.982C139.489 125.482 119.915 115.652 95.3325 115.652C70.742 115.652 51.1756 125.474 32.2548 134.975C22.1157 140.065 11.6289 145.331 0.463502 149.047L0 148.072C11.0661 144.384 21.5115 139.14 31.6092 134.07C50.679 124.5 70.3944 114.6 95.3242 114.6C120.254 114.6 139.969 124.5 159.039 134.07C177.96 143.571 197.535 153.401 222.117 153.401C246.699 153.401 266.274 143.578 285.195 134.07C304.264 124.5 323.98 114.6 348.91 114.6V115.652C324.319 115.652 304.753 125.474 285.832 134.982C266.77 144.552 247.047 154.452 222.125 154.452Z" fill="white"/>
<path d="M222.125 147.399C197.195 147.399 177.48 137.499 158.41 127.928C139.489 118.428 119.915 108.605 95.3325 108.605C70.742 108.605 51.1756 118.428 32.2548 127.928C22.1157 133.018 11.6289 138.284 0.463502 142L0 141.018C11.0661 137.33 21.5115 132.093 31.6092 127.017C50.679 117.446 70.3944 107.546 95.3242 107.546C120.254 107.546 139.969 117.446 159.039 127.017C177.96 136.517 197.535 146.34 222.117 146.34C246.699 146.34 266.274 136.517 285.195 127.017C304.264 117.446 323.98 107.546 348.91 107.546V108.598C324.319 108.598 304.753 118.421 285.832 127.921C266.77 137.499 247.047 147.399 222.125 147.399Z" fill="white"/>
<path d="M222.125 140.345C197.195 140.345 177.48 130.445 158.41 120.875C139.489 111.375 119.915 101.545 95.3325 101.545C70.742 101.545 51.1756 111.368 32.2548 120.868C22.1157 125.958 11.6289 131.224 0.463502 134.94L0 133.965C11.0661 130.277 21.5115 125.033 31.6092 119.963C50.679 110.393 70.3944 100.493 95.3242 100.493C120.254 100.493 139.969 110.393 159.039 119.963C177.96 129.464 197.535 139.294 222.117 139.294C246.699 139.294 266.274 129.471 285.195 119.963C304.264 110.386 323.98 100.493 348.91 100.493V101.545C324.319 101.545 304.753 111.368 285.832 120.875C266.77 130.445 247.047 140.345 222.125 140.345Z" fill="white"/>
<path d="M222.125 133.292C197.195 133.292 177.48 123.392 158.41 113.821C139.489 104.321 119.915 94.4913 95.3325 94.4913C70.742 94.4913 51.1756 104.314 32.2548 113.821C22.0991 118.905 11.6124 124.17 0.455225 127.886L0 126.912C11.0661 123.224 21.5115 117.986 31.6092 112.91C50.679 103.34 70.3944 93.4396 95.3242 93.4396C120.254 93.4396 139.969 103.34 159.039 112.91C177.96 122.41 197.535 132.233 222.117 132.233C246.699 132.233 266.274 122.41 285.195 112.91C304.264 103.333 323.98 93.4396 348.91 93.4396V94.4913C324.319 94.4913 304.753 104.314 285.832 113.821C266.77 123.392 247.047 133.292 222.125 133.292Z" fill="white"/>
<path d="M222.125 126.231C197.195 126.231 177.48 116.331 158.41 106.761C139.489 97.2607 119.915 87.4379 95.3325 87.4379C70.742 87.4379 51.1756 97.2607 32.2548 106.761C22.1157 111.851 11.6289 117.117 0.463502 120.833L0 119.858C11.0661 116.17 21.5115 110.933 31.6092 105.857C50.679 96.2791 70.3944 86.3862 95.3242 86.3862C120.254 86.3862 139.969 96.2862 159.039 105.857C177.96 115.357 197.535 125.187 222.117 125.187C246.699 125.187 266.274 115.364 285.195 105.857C304.264 96.2791 323.98 86.3862 348.91 86.3862V87.4379C324.319 87.4379 304.753 97.2607 285.832 106.761C266.77 116.339 247.047 126.231 222.125 126.231Z" fill="white"/>
<path d="M222.125 119.178C197.195 119.178 177.48 109.278 158.41 99.7078C139.489 90.2075 119.915 80.3847 95.3325 80.3847C70.742 80.3847 51.1756 90.2075 32.2548 99.7078C22.1157 104.798 11.6289 110.064 0.463502 113.78L0 112.798C11.0661 109.11 21.5115 103.873 31.6092 98.7964C50.679 89.2259 70.3944 79.326 95.3242 79.326C120.254 79.326 139.969 89.2259 159.039 98.7964C177.96 108.297 197.535 118.12 222.117 118.12C246.699 118.12 266.274 108.297 285.195 98.7964C304.264 89.2259 323.98 79.326 348.91 79.326V80.3777C324.319 80.3777 304.753 90.2005 285.832 99.7008C266.77 109.278 247.047 119.178 222.125 119.178Z" fill="white"/>
<path d="M222.125 112.125C197.195 112.125 177.48 102.225 158.41 92.6544C139.489 83.1541 119.915 73.3312 95.3325 73.3312C70.742 73.3312 51.1756 83.1541 32.2548 92.6544C22.1157 97.7446 11.6289 103.01 0.463502 106.726L0 105.745C11.0661 102.057 21.5115 96.8121 31.6092 91.7429C50.679 82.1725 70.3944 72.2725 95.3242 72.2725C120.254 72.2725 139.969 82.1725 159.039 91.7429C177.96 101.243 197.535 111.066 222.117 111.066C246.699 111.066 266.274 101.243 285.195 91.7429C304.264 82.1655 323.98 72.2725 348.91 72.2725V73.3242C324.319 73.3242 304.753 83.1471 285.832 92.6474C266.77 102.225 247.047 112.125 222.125 112.125Z" fill="white"/>
<path d="M222.125 105.071C197.195 105.071 177.48 95.1714 158.41 85.601C139.489 76.1006 119.915 66.2778 95.3325 66.2778C70.742 66.2778 51.1756 76.1006 32.2548 85.601C22.1157 90.6912 11.6289 95.9567 0.463502 99.6727L0 98.6911C11.0661 95.0031 21.5115 89.7657 31.6092 84.6895C50.679 75.1191 70.3944 65.2191 95.3242 65.2191C120.254 65.2191 139.969 75.1191 159.039 84.6895C177.96 94.1898 197.535 104.013 222.117 104.013C246.699 104.013 266.274 94.1898 285.195 84.6895C304.264 75.1121 323.98 65.2191 348.91 65.2191V66.2708C324.319 66.2708 304.753 76.0936 285.832 85.594C266.77 95.1714 247.047 105.071 222.125 105.071Z" fill="white"/>
<path d="M222.125 98.0179C197.195 98.0179 177.48 88.118 158.41 78.5475C139.489 69.0472 119.915 59.2244 95.3325 59.2244C70.742 59.2244 51.1756 69.0472 32.2548 78.5475C22.1157 83.6377 11.6289 88.9032 0.463502 92.6192L0 91.6376C11.0661 87.9497 21.5115 82.7122 31.6092 77.6361C50.679 68.0656 70.3944 58.1657 95.3242 58.1657C120.254 58.1657 139.969 68.0656 159.039 77.6361C177.96 87.1364 197.535 96.9662 222.117 96.9662C246.699 96.9662 266.274 87.1434 285.195 77.6361C304.264 68.0586 323.98 58.1657 348.91 58.1657V59.2174C324.319 59.2174 304.753 69.0402 285.832 78.5405C266.77 88.118 247.047 98.0179 222.125 98.0179Z" fill="white"/>
<path d="M222.125 90.9647C197.195 90.9647 177.48 81.0648 158.41 71.4943C139.489 61.994 119.915 52.1712 95.3325 52.1712C70.7503 52.1712 51.1756 61.994 32.2548 71.4943C22.1157 76.5845 11.6289 81.85 0.463502 85.566L0 84.5844C11.0661 80.8965 21.5115 75.659 31.6092 70.5829C50.679 61.0124 70.3944 51.1125 95.3242 51.1125C120.254 51.1125 139.969 61.0124 159.039 70.5829C177.96 80.0832 197.535 89.913 222.117 89.913C246.699 89.913 266.274 80.0902 285.195 70.5829C304.264 61.0124 323.98 51.1125 348.91 51.1125V52.1642C324.319 52.1642 304.753 61.987 285.832 71.4873C266.77 81.0648 247.047 90.9647 222.125 90.9647Z" fill="white"/>
<path d="M222.125 83.9043C197.195 83.9043 177.48 74.0043 158.41 64.4339C139.489 54.9336 119.915 45.1107 95.3325 45.1107C70.742 45.1107 51.1756 54.9336 32.2548 64.4339C22.1157 69.5241 11.6289 74.7896 0.463502 78.5056L0 77.531C11.0661 73.8431 21.5115 68.6056 31.6092 63.5294C50.679 53.959 70.3944 44.059 95.3242 44.059C120.254 44.059 139.969 53.959 159.039 63.5294C177.96 73.0297 197.535 82.8596 222.117 82.8596C246.699 82.8596 266.274 73.0368 285.195 63.5294C304.264 53.959 323.98 44.059 348.91 44.059V45.1107C324.319 45.1107 304.753 54.9336 285.832 64.4339C266.77 74.0043 247.047 83.9043 222.125 83.9043Z" fill="white"/>
<path d="M222.125 76.8513C197.195 76.8513 177.48 66.9514 158.41 57.3809C139.489 47.8806 119.915 38.0578 95.3325 38.0578C70.742 38.0578 51.1756 47.8806 32.2548 57.3809C22.0991 62.4711 11.6124 67.7366 0.455225 71.4526L0 70.471C11.0661 66.7831 21.5115 61.5456 31.6092 56.4695C50.679 46.899 70.3944 36.9991 95.3242 36.9991C120.254 36.9991 139.969 46.899 159.039 56.4695C177.96 65.9698 197.535 75.7926 222.117 75.7926C246.699 75.7926 266.274 65.9698 285.195 56.4695C304.264 46.892 323.98 36.9991 348.91 36.9991V38.0508C324.319 38.0508 304.753 47.8736 285.832 57.3739C266.77 66.9514 247.047 76.8513 222.125 76.8513Z" fill="white"/>
<path d="M222.125 69.7976C197.195 69.7976 177.48 59.8977 158.41 50.3272C139.489 40.8269 119.915 31.0041 95.3325 31.0041C70.742 31.0041 51.1756 40.8269 32.2548 50.3272C22.0991 55.4175 11.6124 60.6829 0.455225 64.3989L0 63.4174C11.0661 59.7294 21.5115 54.485 31.6092 49.4158C50.679 39.8453 70.3944 29.9454 95.3242 29.9454C120.254 29.9454 139.969 39.8453 159.039 49.4158C177.96 58.9161 197.535 68.7389 222.117 68.7389C246.699 68.7389 266.274 58.9161 285.195 49.4158C304.264 39.8453 323.98 29.9454 348.91 29.9454V30.9971C324.319 30.9971 304.753 40.8199 285.832 50.3202C266.77 59.8977 247.047 69.7976 222.125 69.7976Z" fill="white"/>
<path d="M222.125 62.7444C197.195 62.7444 177.48 52.8445 158.41 43.274C139.489 33.7737 119.915 23.9509 95.3325 23.9509C70.742 23.9509 51.1756 33.7737 32.2548 43.274C22.0991 48.3643 11.6124 53.6297 0.455225 57.3457L0 56.3642C11.0661 52.6762 21.5115 47.4388 31.6092 42.3626C50.679 32.7921 70.3944 22.8922 95.3242 22.8922C120.254 22.8922 139.969 32.7921 159.039 42.3626C177.96 51.8629 197.535 61.6857 222.117 61.6857C246.699 61.6857 266.274 51.8629 285.195 42.3626C304.264 32.7851 323.98 22.8922 348.91 22.8922V23.9439C324.319 23.9439 304.753 33.7667 285.832 43.267C266.77 52.8445 247.047 62.7444 222.125 62.7444Z" fill="white"/>
<path d="M222.125 55.6912C197.195 55.6912 177.48 45.7913 158.41 36.2208C139.489 26.7205 119.915 16.8907 95.3325 16.8907C70.742 16.8907 51.1756 26.7135 32.2548 36.2138C22.0991 41.304 11.6124 46.5695 0.455225 50.2855L0 49.311C11.0661 45.623 21.5115 40.3856 31.6092 35.3094C50.679 25.7389 70.3944 15.839 95.3242 15.839C120.254 15.839 139.969 25.7389 159.039 35.3094C177.96 44.8097 197.535 54.6325 222.117 54.6325C246.699 54.6325 266.274 44.8097 285.195 35.3094C304.264 25.7389 323.98 15.839 348.91 15.839V16.8907C324.319 16.8907 304.753 26.7135 285.832 36.2208C266.77 45.7913 247.047 55.6912 222.125 55.6912Z" fill="white"/>
<path d="M222.125 48.6373C197.195 48.6373 177.48 38.7374 158.41 29.1669C139.489 19.6666 119.915 9.83676 95.3325 9.83676C70.742 9.83676 51.1756 19.6596 32.2548 29.1599C22.0991 34.2501 11.6124 39.5156 0.455225 43.2316L0 42.257C11.0661 38.5691 21.5115 33.3316 31.6092 28.2555C50.679 18.685 70.3944 8.78506 95.3242 8.78506C120.254 8.78506 139.969 18.685 159.039 28.2555C177.96 37.7558 197.535 47.5856 222.117 47.5856C246.699 47.5856 266.274 37.7628 285.195 28.2555C304.264 18.685 323.98 8.78506 348.91 8.78506V9.83676C324.319 9.83676 304.753 19.6596 285.832 29.1669C266.77 38.7374 247.047 48.6373 222.125 48.6373Z" fill="white"/>
<path d="M222.125 41.5771C197.195 41.5771 177.48 31.6771 158.41 22.1067C139.489 12.6064 119.915 2.78355 95.3325 2.78355C70.742 2.78355 51.1756 12.6064 32.2548 22.1067C22.0991 27.1969 11.6124 32.4624 0.455225 36.1784L0 35.2038C11.0661 31.5159 21.5115 26.2714 31.6092 21.2023C50.679 11.6248 70.3944 1.72485 95.3242 1.72485C120.254 1.72485 139.969 11.6248 159.039 21.1952C177.96 30.6956 197.535 40.5184 222.117 40.5184C246.699 40.5184 266.274 30.6956 285.195 21.1952C304.264 11.6178 323.98 1.72485 348.91 1.72485V2.77654C324.319 2.77654 304.753 12.5994 285.832 22.0997C266.77 31.6771 247.047 41.5771 222.125 41.5771Z" fill="white"/>
<path d="M222.125 34.5237C197.195 34.5237 177.48 24.6237 158.41 15.0463C148.238 9.94904 137.726 4.66953 126.578 0.981583L127.033 0C138.281 3.723 148.834 9.02355 159.039 14.1488C177.968 23.6491 197.535 33.479 222.125 33.479C246.716 33.479 266.282 23.6561 285.203 14.1558C295.408 9.02355 305.969 3.723 317.218 0L317.673 0.981583C306.524 4.66953 296.012 9.94904 285.84 15.0533C266.77 24.6237 247.047 34.5237 222.125 34.5237Z" fill="white"/>
<path d="M0.455225 29.125L0 28.1434C11.0661 24.4554 21.5115 19.218 31.6092 14.1418C41.8228 9.02355 52.3758 3.723 63.624 0L64.0792 0.981583C52.922 4.66953 42.4105 9.94904 32.2465 15.0533C22.0991 20.1435 11.6124 25.409 0.455225 29.125Z" fill="white"/>
<path d="M222.125 27.4701C197.195 27.4701 177.48 17.5701 158.41 7.99265C153.717 5.63685 148.859 3.19692 144 0.94629L144.596 0.0207971C149.471 2.27844 154.338 4.71837 159.039 7.08118C177.96 16.5815 197.535 26.4114 222.125 26.4114C246.716 26.4114 266.282 16.5885 285.211 7.08118C289.921 4.71837 294.779 2.27844 299.654 0.0207971L300.25 0.94629C295.4 3.19692 290.542 5.63685 285.84 7.99265C266.77 17.5701 247.047 27.4701 222.125 27.4701Z" fill="white"/>
<path d="M0.455225 22.0708L0 21.0892C11.0661 17.4013 21.5115 12.1638 31.6092 7.09467C36.3187 4.73186 41.1855 2.29192 46.0605 0.0272695L46.6565 0.952762C41.798 3.20339 36.9395 5.63631 32.2382 7.99912C22.0991 13.0893 11.6124 18.3548 0.455225 22.0708Z" fill="white"/>
<path d="M222.125 20.4172C197.195 20.4172 177.48 10.5172 158.41 0.939766L159.039 0.0353072C177.968 9.53563 197.535 19.3655 222.125 19.3655C246.716 19.3655 266.282 9.54264 285.203 0.0423185L285.84 0.946777C266.762 10.5172 247.047 20.4172 222.125 20.4172Z" fill="white"/>
<path d="M0.455225 15.0175L0 14.036C11.0661 10.355 21.5032 5.11056 31.5926 0.0413825L32.2382 0.93883C22.0908 6.03605 11.6124 11.3015 0.455225 15.0175Z" fill="white"/>
<path d="M222.125 13.3629C202.311 13.3629 186.096 7.0878 172.853 0.95291L173.449 0.0274176C186.551 6.09921 202.592 12.3112 222.125 12.3112C241.659 12.3112 257.691 6.10622 270.801 0.0274176L271.397 0.95291C258.146 7.0878 241.94 13.3629 222.125 13.3629Z" fill="white"/>
<path d="M0.455226 7.95706L0 6.98249C5.33028 5.20863 10.793 3.00006 17.1992 0.0272695L17.7952 0.952762C11.3393 3.94659 5.82689 6.16917 0.455226 7.95706Z" fill="white"/>
<path d="M222.125 6.31018C211.622 6.31018 201.251 4.56436 190.417 0.981583L190.872 0C201.557 3.5337 211.779 5.25848 222.125 5.25848C232.471 5.25848 242.693 3.54071 253.378 0L253.834 0.981583C242.991 4.56436 232.62 6.31018 222.125 6.31018Z" fill="white"/>
</g>
<g filter="url(#filter4_b)">
<path d="M107.38 134.517C9.19608 111.203 -63.542 186.718 -79.7006 210.788L-65.5414 230.408L-34.9585 263.865L458.921 280.286L469.306 -98.8385C473.296 -132.63 358.252 -155.172 357.146 -122.08C354.813 -52.2918 359.894 1.44059 327.412 54.7149C301.448 97.2992 244.948 167.182 107.38 134.517Z" fill="url(#paint0_linear)" fill-opacity="0.1"/>
</g>
</g>
<defs>
<filter id="filter0_f" x="1.12312" y="-353.008" width="649.418" height="707.233" filterUnits="userSpaceOnUse" color-interpolation-filters="sRGB">
<feFlood flood-opacity="0" result="BackgroundImageFix"/>
<feBlend mode="normal" in="SourceGraphic" in2="BackgroundImageFix" result="shape"/>
<feGaussianBlur stdDeviation="100.491" result="effect1_foregroundBlur"/>
</filter>
<filter id="filter1_f" x="24.7843" y="-136.522" width="610.968" height="659.801" filterUnits="userSpaceOnUse" color-interpolation-filters="sRGB">
<feFlood flood-opacity="0" result="BackgroundImageFix"/>
<feBlend mode="normal" in="SourceGraphic" in2="BackgroundImageFix" result="shape"/>
<feGaussianBlur stdDeviation="100.491" result="effect1_foregroundBlur"/>
</filter>
<filter id="filter2_f" x="-252.247" y="-183.954" width="649.418" height="707.233" filterUnits="userSpaceOnUse" color-interpolation-filters="sRGB">
<feFlood flood-opacity="0" result="BackgroundImageFix"/>
<feBlend mode="normal" in="SourceGraphic" in2="BackgroundImageFix" result="shape"/>
<feGaussianBlur stdDeviation="100.491" result="effect1_foregroundBlur"/>
</filter>
<filter id="filter3_f" x="-262.106" y="-441.792" width="734.203" height="811.828" filterUnits="userSpaceOnUse" color-interpolation-filters="sRGB">
<feFlood flood-opacity="0" result="BackgroundImageFix"/>
<feBlend mode="normal" in="SourceGraphic" in2="BackgroundImageFix" result="shape"/>
<feGaussianBlur stdDeviation="100.491" result="effect1_foregroundBlur"/>
</filter>
<filter id="filter4_b" x="-84.7007" y="-143.287" width="559.108" height="428.573" filterUnits="userSpaceOnUse" color-interpolation-filters="sRGB">
<feFlood flood-opacity="0" result="BackgroundImageFix"/>
<feGaussianBlur in="BackgroundImage" stdDeviation="2.5"/>
<feComposite in2="SourceAlpha" operator="in" result="effect1_backgroundBlur"/>
<feBlend mode="normal" in="SourceGraphic" in2="effect1_backgroundBlur" result="shape"/>
</filter>
<linearGradient id="paint0_linear" x1="424.098" y1="-143.623" x2="-115.935" y2="123.171" gradientUnits="userSpaceOnUse">
<stop stop-color="white"/>
<stop offset="1" stop-color="white" stop-opacity="0.5"/>
</linearGradient>
</defs>
</svg>
