<svg width="350" height="225" viewBox="0 0 350 225" fill="none" xmlns="http://www.w3.org/2000/svg">
<mask id="mask0" mask-type="alpha" maskUnits="userSpaceOnUse" x="0" y="0" width="350" height="225">
<rect x="0.5" width="349" height="225" rx="10" fill="#025DFF"/>
</mask>
<g mask="url(#mask0)">
<rect x="0.5" width="349" height="225" fill="url(#paint0_linear)"/>
<g opacity="0.08">
<path d="M222.625 225C197.695 225 177.98 215.1 158.91 205.53C139.989 196.029 120.415 186.199 95.8325 186.199C71.242 186.199 51.6756 196.022 32.7548 205.523C22.6157 210.613 12.1289 215.878 0.963502 219.594L0.5 218.62C11.5661 214.932 22.0115 209.694 32.1092 204.618C51.179 195.048 70.8944 185.148 95.8242 185.148C120.754 185.148 140.469 195.048 159.539 204.618C178.46 214.118 198.035 223.948 222.617 223.948C247.199 223.948 266.774 214.125 285.695 204.618C304.764 195.048 324.48 185.148 349.41 185.148V186.199C324.819 186.199 305.253 196.022 286.332 205.53C267.27 215.1 247.547 225 222.625 225Z" fill="white"/>
<path d="M222.625 217.946C197.695 217.946 177.98 208.047 158.91 198.469C139.989 188.969 120.415 179.139 95.8325 179.139C71.242 179.139 51.6756 188.962 32.7548 198.469C22.6157 203.559 12.1289 208.825 0.963502 212.541L0.5 211.566C11.5661 207.878 22.0115 202.634 32.1092 197.565C51.179 187.987 70.8944 178.087 95.8242 178.087C120.754 178.087 140.469 187.987 159.539 197.565C178.46 207.065 198.035 216.895 222.617 216.895C247.199 216.895 266.774 207.072 285.695 197.565C304.764 187.987 324.48 178.087 349.41 178.087V179.139C324.819 179.139 305.253 188.962 286.332 198.469C267.27 208.047 247.547 217.946 222.625 217.946Z" fill="white"/>
<path d="M222.625 210.893C197.695 210.893 177.98 200.993 158.91 191.423C139.989 181.922 120.415 172.092 95.8325 172.092C71.242 172.092 51.6756 181.915 32.7548 191.416C22.6157 196.506 12.1289 201.771 0.963502 205.487L0.5 204.513C11.5661 200.825 22.0115 195.587 32.1092 190.511C51.179 180.941 70.8944 171.041 95.8242 171.041C120.754 171.041 140.469 180.941 159.539 190.511C178.46 200.011 198.035 209.841 222.617 209.841C247.199 209.841 266.774 200.019 285.695 190.511C304.764 180.941 324.48 171.041 349.41 171.041V172.092C324.819 172.092 305.253 181.915 286.332 191.423C267.27 200.993 247.547 210.893 222.625 210.893Z" fill="white"/>
<path d="M222.625 203.833C197.695 203.833 177.98 193.933 158.91 184.362C139.989 174.862 120.415 165.032 95.8325 165.032C71.242 165.032 51.6756 174.855 32.7548 184.355C22.6157 189.446 12.1289 194.711 0.963502 198.427L0.5 197.46C11.5661 193.772 22.0115 188.534 32.1092 183.458C51.179 173.888 70.8944 163.988 95.8242 163.988C120.754 163.988 140.469 173.888 159.539 183.458C178.46 192.958 198.035 202.788 222.617 202.788C247.199 202.788 266.774 192.965 285.695 183.458C304.764 173.888 324.48 163.988 349.41 163.988V165.039C324.819 165.039 305.253 174.862 286.332 184.369C267.27 193.933 247.547 203.833 222.625 203.833Z" fill="white"/>
<path d="M222.625 196.779C197.695 196.779 177.98 186.879 158.91 177.309C139.989 167.808 120.415 157.986 95.8325 157.986C71.242 157.986 51.6756 167.808 32.7548 177.309C22.6157 182.399 12.1289 187.664 0.963502 191.38L0.5 190.399C11.5661 186.711 22.0115 181.473 32.1092 176.397C51.179 166.827 70.8944 156.927 95.8242 156.927C120.754 156.927 140.469 166.827 159.539 176.397C178.46 185.898 198.035 195.72 222.617 195.72C247.199 195.72 266.774 185.898 285.695 176.397C304.764 166.82 324.48 156.927 349.41 156.927V157.979C324.819 157.979 305.253 167.801 286.332 177.302C267.27 186.879 247.547 196.779 222.625 196.779Z" fill="white"/>
<path d="M222.625 189.726C197.695 189.726 177.98 179.826 158.91 170.256C139.989 160.755 120.415 150.926 95.8325 150.926C71.242 150.926 51.6756 160.748 32.7548 170.249C22.5991 175.346 12.1124 180.611 0.955225 184.327L0.5 183.346C11.5661 179.658 22.0115 174.421 32.1092 169.344C51.179 159.774 70.8944 149.874 95.8242 149.874C120.754 149.874 140.469 159.774 159.539 169.344C178.46 178.845 198.035 188.674 222.617 188.674C247.199 188.674 266.774 178.852 285.695 169.344C304.764 159.774 324.48 149.874 349.41 149.874V150.926C324.819 150.926 305.253 160.748 286.332 170.256C267.27 179.826 247.547 189.726 222.625 189.726Z" fill="white"/>
<path d="M222.625 182.673C197.695 182.673 177.98 172.773 158.91 163.202C139.989 153.702 120.415 143.879 95.8325 143.879C71.242 143.879 51.6756 153.702 32.7548 163.202C22.6157 168.293 12.1289 173.558 0.963502 177.274L0.5 176.292C11.5661 172.605 22.0115 167.367 32.1092 162.291C51.179 152.72 70.8944 142.82 95.8242 142.82C120.754 142.82 140.469 152.72 159.539 162.291C178.46 171.791 198.035 181.614 222.617 181.614C247.199 181.614 266.774 171.791 285.695 162.291C304.764 152.713 324.48 142.82 349.41 142.82V143.872C324.819 143.872 305.253 153.695 286.332 163.195C267.27 172.773 247.547 182.673 222.625 182.673Z" fill="white"/>
<path d="M222.625 175.62C197.695 175.62 177.98 165.72 158.91 156.149C139.989 146.649 120.415 136.819 95.8325 136.819C71.242 136.819 51.6756 146.642 32.7548 156.142C22.6157 161.232 12.1289 166.498 0.963502 170.214L0.5 169.239C11.5661 165.551 22.0115 160.314 32.1092 155.238C51.179 145.667 70.8944 135.767 95.8242 135.767C120.754 135.767 140.469 145.667 159.539 155.238C178.46 164.738 198.035 174.568 222.617 174.568C247.199 174.568 266.774 164.745 285.695 155.238C304.764 145.667 324.48 135.767 349.41 135.767V136.819C324.819 136.819 305.253 146.642 286.332 156.149C267.27 165.72 247.547 175.62 222.625 175.62Z" fill="white"/>
<path d="M222.625 168.566C197.695 168.566 177.98 158.666 158.91 149.095C139.989 139.595 120.415 129.765 95.8325 129.765C71.242 129.765 51.6756 139.588 32.7548 149.088C22.6157 154.179 12.1289 159.444 0.963502 163.16L0.5 162.186C11.5661 158.498 22.0115 153.26 32.1092 148.184C51.179 138.614 70.8944 128.714 95.8242 128.714C120.754 128.714 140.469 138.614 159.539 148.184C178.46 157.684 198.035 167.514 222.617 167.514C247.199 167.514 266.774 157.691 285.695 148.184C304.764 138.614 324.48 128.714 349.41 128.714V129.765C324.819 129.765 305.253 139.588 286.332 149.095C267.27 158.666 247.547 168.566 222.625 168.566Z" fill="white"/>
<path d="M222.625 161.506C197.695 161.506 177.98 151.606 158.91 142.035C139.989 132.535 120.415 122.712 95.8325 122.712C71.242 122.712 51.6756 132.535 32.7548 142.035C22.6157 147.125 12.1289 152.391 0.963502 156.107L0.5 155.132C11.5661 151.444 22.0115 146.2 32.1092 141.131C51.179 131.56 70.8944 121.66 95.8242 121.66C120.754 121.66 140.469 131.56 159.539 141.131C178.46 150.631 198.035 160.454 222.617 160.454C247.199 160.454 266.774 150.631 285.695 141.131C304.764 131.553 324.48 121.66 349.41 121.66V122.712C324.819 122.712 305.253 132.535 286.332 142.035C267.27 151.606 247.547 161.506 222.625 161.506Z" fill="white"/>
<path d="M222.625 154.452C197.695 154.452 177.98 144.552 158.91 134.982C139.989 125.482 120.415 115.652 95.8325 115.652C71.242 115.652 51.6756 125.474 32.7548 134.975C22.6157 140.065 12.1289 145.331 0.963502 149.047L0.5 148.072C11.5661 144.384 22.0115 139.14 32.1092 134.07C51.179 124.5 70.8944 114.6 95.8242 114.6C120.754 114.6 140.469 124.5 159.539 134.07C178.46 143.571 198.035 153.401 222.617 153.401C247.199 153.401 266.774 143.578 285.695 134.07C304.764 124.5 324.48 114.6 349.41 114.6V115.652C324.819 115.652 305.253 125.474 286.332 134.982C267.27 144.552 247.547 154.452 222.625 154.452Z" fill="white"/>
<path d="M222.625 147.399C197.695 147.399 177.98 137.499 158.91 127.928C139.989 118.428 120.415 108.605 95.8325 108.605C71.242 108.605 51.6756 118.428 32.7548 127.928C22.6157 133.018 12.1289 138.284 0.963502 142L0.5 141.018C11.5661 137.33 22.0115 132.093 32.1092 127.017C51.179 117.446 70.8944 107.546 95.8242 107.546C120.754 107.546 140.469 117.446 159.539 127.017C178.46 136.517 198.035 146.34 222.617 146.34C247.199 146.34 266.774 136.517 285.695 127.017C304.764 117.446 324.48 107.546 349.41 107.546V108.598C324.819 108.598 305.253 118.421 286.332 127.921C267.27 137.499 247.547 147.399 222.625 147.399Z" fill="white"/>
<path d="M222.625 140.345C197.695 140.345 177.98 130.445 158.91 120.875C139.989 111.375 120.415 101.545 95.8325 101.545C71.242 101.545 51.6756 111.368 32.7548 120.868C22.6157 125.958 12.1289 131.224 0.963502 134.94L0.5 133.965C11.5661 130.277 22.0115 125.033 32.1092 119.963C51.179 110.393 70.8944 100.493 95.8242 100.493C120.754 100.493 140.469 110.393 159.539 119.963C178.46 129.464 198.035 139.294 222.617 139.294C247.199 139.294 266.774 129.471 285.695 119.963C304.764 110.386 324.48 100.493 349.41 100.493V101.545C324.819 101.545 305.253 111.368 286.332 120.875C267.27 130.445 247.547 140.345 222.625 140.345Z" fill="white"/>
<path d="M222.625 133.292C197.695 133.292 177.98 123.392 158.91 113.821C139.989 104.321 120.415 94.4913 95.8325 94.4913C71.242 94.4913 51.6756 104.314 32.7548 113.821C22.5991 118.905 12.1124 124.17 0.955225 127.886L0.5 126.912C11.5661 123.224 22.0115 117.986 32.1092 112.91C51.179 103.34 70.8944 93.4396 95.8242 93.4396C120.754 93.4396 140.469 103.34 159.539 112.91C178.46 122.41 198.035 132.233 222.617 132.233C247.199 132.233 266.774 122.41 285.695 112.91C304.764 103.333 324.48 93.4396 349.41 93.4396V94.4913C324.819 94.4913 305.253 104.314 286.332 113.821C267.27 123.392 247.547 133.292 222.625 133.292Z" fill="white"/>
<path d="M222.625 126.231C197.695 126.231 177.98 116.331 158.91 106.761C139.989 97.2607 120.415 87.4379 95.8325 87.4379C71.242 87.4379 51.6756 97.2607 32.7548 106.761C22.6157 111.851 12.1289 117.117 0.963502 120.833L0.5 119.858C11.5661 116.17 22.0115 110.933 32.1092 105.857C51.179 96.2791 70.8944 86.3862 95.8242 86.3862C120.754 86.3862 140.469 96.2862 159.539 105.857C178.46 115.357 198.035 125.187 222.617 125.187C247.199 125.187 266.774 115.364 285.695 105.857C304.764 96.2791 324.48 86.3862 349.41 86.3862V87.4379C324.819 87.4379 305.253 97.2607 286.332 106.761C267.27 116.339 247.547 126.231 222.625 126.231Z" fill="white"/>
<path d="M222.625 119.178C197.695 119.178 177.98 109.278 158.91 99.7078C139.989 90.2075 120.415 80.3847 95.8325 80.3847C71.242 80.3847 51.6756 90.2075 32.7548 99.7078C22.6157 104.798 12.1289 110.064 0.963502 113.78L0.5 112.798C11.5661 109.11 22.0115 103.873 32.1092 98.7964C51.179 89.2259 70.8944 79.326 95.8242 79.326C120.754 79.326 140.469 89.2259 159.539 98.7964C178.46 108.297 198.035 118.12 222.617 118.12C247.199 118.12 266.774 108.297 285.695 98.7964C304.764 89.2259 324.48 79.326 349.41 79.326V80.3777C324.819 80.3777 305.253 90.2005 286.332 99.7008C267.27 109.278 247.547 119.178 222.625 119.178Z" fill="white"/>
<path d="M222.625 112.125C197.695 112.125 177.98 102.225 158.91 92.6544C139.989 83.1541 120.415 73.3312 95.8325 73.3312C71.242 73.3312 51.6756 83.1541 32.7548 92.6544C22.6157 97.7446 12.1289 103.01 0.963502 106.726L0.5 105.745C11.5661 102.057 22.0115 96.8121 32.1092 91.7429C51.179 82.1725 70.8944 72.2725 95.8242 72.2725C120.754 72.2725 140.469 82.1725 159.539 91.7429C178.46 101.243 198.035 111.066 222.617 111.066C247.199 111.066 266.774 101.243 285.695 91.7429C304.764 82.1655 324.48 72.2725 349.41 72.2725V73.3242C324.819 73.3242 305.253 83.1471 286.332 92.6474C267.27 102.225 247.547 112.125 222.625 112.125Z" fill="white"/>
<path d="M222.625 105.071C197.695 105.071 177.98 95.1714 158.91 85.601C139.989 76.1006 120.415 66.2778 95.8325 66.2778C71.242 66.2778 51.6756 76.1006 32.7548 85.601C22.6157 90.6912 12.1289 95.9567 0.963502 99.6727L0.5 98.6911C11.5661 95.0031 22.0115 89.7657 32.1092 84.6895C51.179 75.1191 70.8944 65.2191 95.8242 65.2191C120.754 65.2191 140.469 75.1191 159.539 84.6895C178.46 94.1898 198.035 104.013 222.617 104.013C247.199 104.013 266.774 94.1898 285.695 84.6895C304.764 75.1121 324.48 65.2191 349.41 65.2191V66.2708C324.819 66.2708 305.253 76.0936 286.332 85.594C267.27 95.1714 247.547 105.071 222.625 105.071Z" fill="white"/>
<path d="M222.625 98.0179C197.695 98.0179 177.98 88.118 158.91 78.5475C139.989 69.0472 120.415 59.2244 95.8325 59.2244C71.242 59.2244 51.6756 69.0472 32.7548 78.5475C22.6157 83.6377 12.1289 88.9032 0.963502 92.6192L0.5 91.6376C11.5661 87.9497 22.0115 82.7122 32.1092 77.6361C51.179 68.0656 70.8944 58.1657 95.8242 58.1657C120.754 58.1657 140.469 68.0656 159.539 77.6361C178.46 87.1364 198.035 96.9662 222.617 96.9662C247.199 96.9662 266.774 87.1434 285.695 77.6361C304.764 68.0586 324.48 58.1657 349.41 58.1657V59.2174C324.819 59.2174 305.253 69.0402 286.332 78.5405C267.27 88.118 247.547 98.0179 222.625 98.0179Z" fill="white"/>
<path d="M222.625 90.9647C197.695 90.9647 177.98 81.0648 158.91 71.4943C139.989 61.994 120.415 52.1712 95.8325 52.1712C71.2503 52.1712 51.6756 61.994 32.7548 71.4943C22.6157 76.5845 12.1289 81.85 0.963502 85.566L0.5 84.5844C11.5661 80.8965 22.0115 75.659 32.1092 70.5829C51.179 61.0124 70.8944 51.1125 95.8242 51.1125C120.754 51.1125 140.469 61.0124 159.539 70.5829C178.46 80.0832 198.035 89.913 222.617 89.913C247.199 89.913 266.774 80.0902 285.695 70.5829C304.764 61.0124 324.48 51.1125 349.41 51.1125V52.1642C324.819 52.1642 305.253 61.987 286.332 71.4873C267.27 81.0648 247.547 90.9647 222.625 90.9647Z" fill="white"/>
<path d="M222.625 83.9043C197.695 83.9043 177.98 74.0043 158.91 64.4339C139.989 54.9336 120.415 45.1107 95.8325 45.1107C71.242 45.1107 51.6756 54.9336 32.7548 64.4339C22.6157 69.5241 12.1289 74.7896 0.963502 78.5056L0.5 77.531C11.5661 73.8431 22.0115 68.6056 32.1092 63.5294C51.179 53.959 70.8944 44.059 95.8242 44.059C120.754 44.059 140.469 53.959 159.539 63.5294C178.46 73.0297 198.035 82.8596 222.617 82.8596C247.199 82.8596 266.774 73.0368 285.695 63.5294C304.764 53.959 324.48 44.059 349.41 44.059V45.1107C324.819 45.1107 305.253 54.9336 286.332 64.4339C267.27 74.0043 247.547 83.9043 222.625 83.9043Z" fill="white"/>
<path d="M222.625 76.8513C197.695 76.8513 177.98 66.9514 158.91 57.3809C139.989 47.8806 120.415 38.0578 95.8325 38.0578C71.242 38.0578 51.6756 47.8806 32.7548 57.3809C22.5991 62.4711 12.1124 67.7366 0.955225 71.4526L0.5 70.471C11.5661 66.7831 22.0115 61.5456 32.1092 56.4695C51.179 46.899 70.8944 36.9991 95.8242 36.9991C120.754 36.9991 140.469 46.899 159.539 56.4695C178.46 65.9698 198.035 75.7926 222.617 75.7926C247.199 75.7926 266.774 65.9698 285.695 56.4695C304.764 46.892 324.48 36.9991 349.41 36.9991V38.0508C324.819 38.0508 305.253 47.8736 286.332 57.3739C267.27 66.9514 247.547 76.8513 222.625 76.8513Z" fill="white"/>
<path d="M222.625 69.7976C197.695 69.7976 177.98 59.8977 158.91 50.3272C139.989 40.8269 120.415 31.0041 95.8325 31.0041C71.242 31.0041 51.6756 40.8269 32.7548 50.3272C22.5991 55.4175 12.1124 60.6829 0.955225 64.3989L0.5 63.4174C11.5661 59.7294 22.0115 54.485 32.1092 49.4158C51.179 39.8453 70.8944 29.9454 95.8242 29.9454C120.754 29.9454 140.469 39.8453 159.539 49.4158C178.46 58.9161 198.035 68.7389 222.617 68.7389C247.199 68.7389 266.774 58.9161 285.695 49.4158C304.764 39.8453 324.48 29.9454 349.41 29.9454V30.9971C324.819 30.9971 305.253 40.8199 286.332 50.3202C267.27 59.8977 247.547 69.7976 222.625 69.7976Z" fill="white"/>
<path d="M222.625 62.7444C197.695 62.7444 177.98 52.8445 158.91 43.274C139.989 33.7737 120.415 23.9509 95.8325 23.9509C71.242 23.9509 51.6756 33.7737 32.7548 43.274C22.5991 48.3643 12.1124 53.6297 0.955225 57.3457L0.5 56.3642C11.5661 52.6762 22.0115 47.4388 32.1092 42.3626C51.179 32.7921 70.8944 22.8922 95.8242 22.8922C120.754 22.8922 140.469 32.7921 159.539 42.3626C178.46 51.8629 198.035 61.6857 222.617 61.6857C247.199 61.6857 266.774 51.8629 285.695 42.3626C304.764 32.7851 324.48 22.8922 349.41 22.8922V23.9439C324.819 23.9439 305.253 33.7667 286.332 43.267C267.27 52.8445 247.547 62.7444 222.625 62.7444Z" fill="white"/>
<path d="M222.625 55.6912C197.695 55.6912 177.98 45.7913 158.91 36.2208C139.989 26.7205 120.415 16.8907 95.8325 16.8907C71.242 16.8907 51.6756 26.7135 32.7548 36.2138C22.5991 41.304 12.1124 46.5695 0.955225 50.2855L0.5 49.311C11.5661 45.623 22.0115 40.3856 32.1092 35.3094C51.179 25.7389 70.8944 15.839 95.8242 15.839C120.754 15.839 140.469 25.7389 159.539 35.3094C178.46 44.8097 198.035 54.6325 222.617 54.6325C247.199 54.6325 266.774 44.8097 285.695 35.3094C304.764 25.7389 324.48 15.839 349.41 15.839V16.8907C324.819 16.8907 305.253 26.7135 286.332 36.2208C267.27 45.7913 247.547 55.6912 222.625 55.6912Z" fill="white"/>
<path d="M222.625 48.6373C197.695 48.6373 177.98 38.7374 158.91 29.1669C139.989 19.6666 120.415 9.83676 95.8325 9.83676C71.242 9.83676 51.6756 19.6596 32.7548 29.1599C22.5991 34.2501 12.1124 39.5156 0.955225 43.2316L0.5 42.257C11.5661 38.5691 22.0115 33.3316 32.1092 28.2555C51.179 18.685 70.8944 8.78506 95.8242 8.78506C120.754 8.78506 140.469 18.685 159.539 28.2555C178.46 37.7558 198.035 47.5856 222.617 47.5856C247.199 47.5856 266.774 37.7628 285.695 28.2555C304.764 18.685 324.48 8.78506 349.41 8.78506V9.83676C324.819 9.83676 305.253 19.6596 286.332 29.1669C267.27 38.7374 247.547 48.6373 222.625 48.6373Z" fill="white"/>
<path d="M222.625 41.5771C197.695 41.5771 177.98 31.6771 158.91 22.1067C139.989 12.6064 120.415 2.78355 95.8325 2.78355C71.242 2.78355 51.6756 12.6064 32.7548 22.1067C22.5991 27.1969 12.1124 32.4624 0.955225 36.1784L0.5 35.2038C11.5661 31.5159 22.0115 26.2714 32.1092 21.2023C51.179 11.6248 70.8944 1.72485 95.8242 1.72485C120.754 1.72485 140.469 11.6248 159.539 21.1952C178.46 30.6956 198.035 40.5184 222.617 40.5184C247.199 40.5184 266.774 30.6956 285.695 21.1952C304.764 11.6178 324.48 1.72485 349.41 1.72485V2.77654C324.819 2.77654 305.253 12.5994 286.332 22.0997C267.27 31.6771 247.547 41.5771 222.625 41.5771Z" fill="white"/>
<path d="M222.625 34.5237C197.695 34.5237 177.98 24.6237 158.91 15.0463C148.738 9.94904 138.226 4.66953 127.078 0.981583L127.533 0C138.781 3.723 149.334 9.02355 159.539 14.1488C178.468 23.6491 198.035 33.479 222.625 33.479C247.216 33.479 266.782 23.6561 285.703 14.1558C295.908 9.02355 306.469 3.723 317.718 0L318.173 0.981583C307.024 4.66953 296.512 9.94904 286.34 15.0533C267.27 24.6237 247.547 34.5237 222.625 34.5237Z" fill="white"/>
<path d="M0.955225 29.125L0.5 28.1434C11.5661 24.4554 22.0115 19.218 32.1092 14.1418C42.3228 9.02355 52.8758 3.723 64.124 0L64.5792 0.981583C53.422 4.66953 42.9105 9.94904 32.7465 15.0533C22.5991 20.1435 12.1124 25.409 0.955225 29.125Z" fill="white"/>
<path d="M222.625 27.4701C197.695 27.4701 177.98 17.5701 158.91 7.99265C154.217 5.63685 149.359 3.19692 144.5 0.94629L145.096 0.0207971C149.971 2.27844 154.838 4.71837 159.539 7.08118C178.46 16.5815 198.035 26.4114 222.625 26.4114C247.216 26.4114 266.782 16.5885 285.711 7.08118C290.421 4.71837 295.279 2.27844 300.154 0.0207971L300.75 0.94629C295.9 3.19692 291.042 5.63685 286.34 7.99265C267.27 17.5701 247.547 27.4701 222.625 27.4701Z" fill="white"/>
<path d="M0.955225 22.0708L0.5 21.0892C11.5661 17.4013 22.0115 12.1638 32.1092 7.09467C36.8187 4.73186 41.6855 2.29192 46.5605 0.0272695L47.1565 0.952762C42.298 3.20339 37.4395 5.63631 32.7382 7.99912C22.5991 13.0893 12.1124 18.3548 0.955225 22.0708Z" fill="white"/>
<path d="M222.625 20.4172C197.695 20.4172 177.98 10.5172 158.91 0.939766L159.539 0.0353072C178.468 9.53563 198.035 19.3655 222.625 19.3655C247.216 19.3655 266.782 9.54264 285.703 0.0423185L286.34 0.946777C267.262 10.5172 247.547 20.4172 222.625 20.4172Z" fill="white"/>
<path d="M0.955225 15.0175L0.5 14.036C11.5661 10.355 22.0032 5.11056 32.0926 0.0413825L32.7382 0.93883C22.5908 6.03605 12.1124 11.3015 0.955225 15.0175Z" fill="white"/>
<path d="M222.625 13.3629C202.811 13.3629 186.596 7.0878 173.353 0.95291L173.949 0.0274176C187.051 6.09921 203.092 12.3112 222.625 12.3112C242.159 12.3112 258.191 6.10622 271.301 0.0274176L271.897 0.95291C258.646 7.0878 242.44 13.3629 222.625 13.3629Z" fill="white"/>
<path d="M0.955226 7.95706L0.5 6.98249C5.83028 5.20863 11.293 3.00006 17.6992 0.0272695L18.2952 0.952762C11.8393 3.94659 6.32689 6.16917 0.955226 7.95706Z" fill="white"/>
<path d="M222.625 6.31018C212.122 6.31018 201.751 4.56436 190.917 0.981583L191.372 0C202.057 3.5337 212.279 5.25848 222.625 5.25848C232.971 5.25848 243.193 3.54071 253.878 0L254.334 0.981583C243.491 4.56436 233.12 6.31018 222.625 6.31018Z" fill="white"/>
</g>
<g filter="url(#filter0_b)">
<path d="M107.88 134.517C9.69608 111.203 -63.042 186.718 -79.2006 210.788L-65.0414 230.408L-34.4585 263.865L459.421 280.286L469.806 -98.8385C473.796 -132.63 358.752 -155.172 357.646 -122.08C355.313 -52.2918 360.394 1.44059 327.912 54.7149C301.948 97.2992 245.448 167.182 107.88 134.517Z" fill="url(#paint1_linear)" fill-opacity="0.1"/>
</g>
</g>
<defs>
<filter id="filter0_b" x="-83.2007" y="-142.287" width="557.108" height="426.573" filterUnits="userSpaceOnUse" color-interpolation-filters="sRGB">
<feFlood flood-opacity="0" result="BackgroundImageFix"/>
<feGaussianBlur in="BackgroundImage" stdDeviation="2"/>
<feComposite in2="SourceAlpha" operator="in" result="effect1_backgroundBlur"/>
<feBlend mode="normal" in="SourceGraphic" in2="effect1_backgroundBlur" result="shape"/>
</filter>
<linearGradient id="paint0_linear" x1="-98.2171" y1="250" x2="179.074" y2="-104.904" gradientUnits="userSpaceOnUse">
<stop stop-color="#FDEFF9"/>
<stop offset="0.229167" stop-color="#EC38BC"/>
<stop offset="0.942708" stop-color="#7303C0"/>
</linearGradient>
<linearGradient id="paint1_linear" x1="424.598" y1="-143.623" x2="-115.435" y2="123.171" gradientUnits="userSpaceOnUse">
<stop stop-color="white"/>
<stop offset="1" stop-color="white" stop-opacity="0.5"/>
</linearGradient>
</defs>
</svg>
