<svg width="350" height="225" viewBox="0 0 350 225" fill="none" xmlns="http://www.w3.org/2000/svg">
<mask id="mask0" mask-type="alpha" maskUnits="userSpaceOnUse" x="0" y="0" width="350" height="225">
<rect x="0.25" width="349" height="225" rx="10" fill="#025DFF"/>
</mask>
<g mask="url(#mask0)">
<mask id="mask1" mask-type="alpha" maskUnits="userSpaceOnUse" x="0" y="0" width="350" height="225">
<rect x="0.25" width="349" height="225" fill="white"/>
</mask>
<g mask="url(#mask1)">
<rect x="0.25" width="349" height="225" fill="#61ECFF"/>
<g filter="url(#filter0_f)">
<ellipse cx="326.082" cy="0.608154" rx="123.727" ry="152.635" fill="#5BB0FF"/>
</g>
<g filter="url(#filter1_f)">
<ellipse cx="313.758" cy="225.708" rx="104.503" ry="128.919" fill="#6AD5ED"/>
</g>
<g filter="url(#filter2_f)">
<ellipse cx="72.7117" cy="169.662" rx="123.727" ry="152.635" fill="#316BFF"/>
</g>
<g filter="url(#filter3_f)">
<ellipse cx="105.246" cy="-35.8784" rx="166.12" ry="204.932" fill="#31DAFF"/>
</g>
</g>
<g opacity="0.12">
<path d="M222.375 225C197.445 225 177.73 215.1 158.66 205.53C139.739 196.029 120.165 186.199 95.5825 186.199C70.992 186.199 51.4256 196.022 32.5048 205.523C22.3657 210.613 11.8789 215.878 0.713502 219.594L0.25 218.62C11.3161 214.932 21.7615 209.694 31.8592 204.618C50.929 195.048 70.6444 185.148 95.5742 185.148C120.504 185.148 140.219 195.048 159.289 204.618C178.21 214.118 197.785 223.948 222.367 223.948C246.949 223.948 266.524 214.125 285.445 204.618C304.514 195.048 324.23 185.148 349.16 185.148V186.199C324.569 186.199 305.003 196.022 286.082 205.53C267.02 215.1 247.297 225 222.375 225Z" fill="white"/>
<path d="M222.375 217.946C197.445 217.946 177.73 208.047 158.66 198.469C139.739 188.969 120.165 179.139 95.5825 179.139C70.992 179.139 51.4256 188.962 32.5048 198.469C22.3657 203.559 11.8789 208.825 0.713502 212.541L0.25 211.566C11.3161 207.878 21.7615 202.634 31.8592 197.565C50.929 187.987 70.6444 178.087 95.5742 178.087C120.504 178.087 140.219 187.987 159.289 197.565C178.21 207.065 197.785 216.895 222.367 216.895C246.949 216.895 266.524 207.072 285.445 197.565C304.514 187.987 324.23 178.087 349.16 178.087V179.139C324.569 179.139 305.003 188.962 286.082 198.469C267.02 208.047 247.297 217.946 222.375 217.946Z" fill="white"/>
<path d="M222.375 210.893C197.445 210.893 177.73 200.993 158.66 191.423C139.739 181.922 120.165 172.092 95.5825 172.092C70.992 172.092 51.4256 181.915 32.5048 191.416C22.3657 196.506 11.8789 201.771 0.713502 205.487L0.25 204.513C11.3161 200.825 21.7615 195.587 31.8592 190.511C50.929 180.941 70.6444 171.041 95.5742 171.041C120.504 171.041 140.219 180.941 159.289 190.511C178.21 200.011 197.785 209.841 222.367 209.841C246.949 209.841 266.524 200.019 285.445 190.511C304.514 180.941 324.23 171.041 349.16 171.041V172.092C324.569 172.092 305.003 181.915 286.082 191.423C267.02 200.993 247.297 210.893 222.375 210.893Z" fill="white"/>
<path d="M222.375 203.833C197.445 203.833 177.73 193.933 158.66 184.362C139.739 174.862 120.165 165.032 95.5825 165.032C70.992 165.032 51.4256 174.855 32.5048 184.355C22.3657 189.446 11.8789 194.711 0.713502 198.427L0.25 197.46C11.3161 193.772 21.7615 188.534 31.8592 183.458C50.929 173.888 70.6444 163.988 95.5742 163.988C120.504 163.988 140.219 173.888 159.289 183.458C178.21 192.958 197.785 202.788 222.367 202.788C246.949 202.788 266.524 192.965 285.445 183.458C304.514 173.888 324.23 163.988 349.16 163.988V165.039C324.569 165.039 305.003 174.862 286.082 184.369C267.02 193.933 247.297 203.833 222.375 203.833Z" fill="white"/>
<path d="M222.375 196.779C197.445 196.779 177.73 186.879 158.66 177.309C139.739 167.808 120.165 157.986 95.5825 157.986C70.992 157.986 51.4256 167.808 32.5048 177.309C22.3657 182.399 11.8789 187.664 0.713502 191.38L0.25 190.399C11.3161 186.711 21.7615 181.473 31.8592 176.397C50.929 166.827 70.6444 156.927 95.5742 156.927C120.504 156.927 140.219 166.827 159.289 176.397C178.21 185.898 197.785 195.72 222.367 195.72C246.949 195.72 266.524 185.898 285.445 176.397C304.514 166.82 324.23 156.927 349.16 156.927V157.979C324.569 157.979 305.003 167.801 286.082 177.302C267.02 186.879 247.297 196.779 222.375 196.779Z" fill="white"/>
<path d="M222.375 189.726C197.445 189.726 177.73 179.826 158.66 170.256C139.739 160.755 120.165 150.926 95.5825 150.926C70.992 150.926 51.4256 160.748 32.5048 170.249C22.3491 175.346 11.8624 180.611 0.705225 184.327L0.25 183.346C11.3161 179.658 21.7615 174.421 31.8592 169.344C50.929 159.774 70.6444 149.874 95.5742 149.874C120.504 149.874 140.219 159.774 159.289 169.344C178.21 178.845 197.785 188.674 222.367 188.674C246.949 188.674 266.524 178.852 285.445 169.344C304.514 159.774 324.23 149.874 349.16 149.874V150.926C324.569 150.926 305.003 160.748 286.082 170.256C267.02 179.826 247.297 189.726 222.375 189.726Z" fill="white"/>
<path d="M222.375 182.673C197.445 182.673 177.73 172.773 158.66 163.202C139.739 153.702 120.165 143.879 95.5825 143.879C70.992 143.879 51.4256 153.702 32.5048 163.202C22.3657 168.293 11.8789 173.558 0.713502 177.274L0.25 176.292C11.3161 172.605 21.7615 167.367 31.8592 162.291C50.929 152.72 70.6444 142.82 95.5742 142.82C120.504 142.82 140.219 152.72 159.289 162.291C178.21 171.791 197.785 181.614 222.367 181.614C246.949 181.614 266.524 171.791 285.445 162.291C304.514 152.713 324.23 142.82 349.16 142.82V143.872C324.569 143.872 305.003 153.695 286.082 163.195C267.02 172.773 247.297 182.673 222.375 182.673Z" fill="white"/>
<path d="M222.375 175.62C197.445 175.62 177.73 165.72 158.66 156.149C139.739 146.649 120.165 136.819 95.5825 136.819C70.992 136.819 51.4256 146.642 32.5048 156.142C22.3657 161.232 11.8789 166.498 0.713502 170.214L0.25 169.239C11.3161 165.551 21.7615 160.314 31.8592 155.238C50.929 145.667 70.6444 135.767 95.5742 135.767C120.504 135.767 140.219 145.667 159.289 155.238C178.21 164.738 197.785 174.568 222.367 174.568C246.949 174.568 266.524 164.745 285.445 155.238C304.514 145.667 324.23 135.767 349.16 135.767V136.819C324.569 136.819 305.003 146.642 286.082 156.149C267.02 165.72 247.297 175.62 222.375 175.62Z" fill="white"/>
<path d="M222.375 168.566C197.445 168.566 177.73 158.666 158.66 149.095C139.739 139.595 120.165 129.765 95.5825 129.765C70.992 129.765 51.4256 139.588 32.5048 149.088C22.3657 154.179 11.8789 159.444 0.713502 163.16L0.25 162.186C11.3161 158.498 21.7615 153.26 31.8592 148.184C50.929 138.614 70.6444 128.714 95.5742 128.714C120.504 128.714 140.219 138.614 159.289 148.184C178.21 157.684 197.785 167.514 222.367 167.514C246.949 167.514 266.524 157.691 285.445 148.184C304.514 138.614 324.23 128.714 349.16 128.714V129.765C324.569 129.765 305.003 139.588 286.082 149.095C267.02 158.666 247.297 168.566 222.375 168.566Z" fill="white"/>
<path d="M222.375 161.506C197.445 161.506 177.73 151.606 158.66 142.035C139.739 132.535 120.165 122.712 95.5825 122.712C70.992 122.712 51.4256 132.535 32.5048 142.035C22.3657 147.125 11.8789 152.391 0.713502 156.107L0.25 155.132C11.3161 151.444 21.7615 146.2 31.8592 141.131C50.929 131.56 70.6444 121.66 95.5742 121.66C120.504 121.66 140.219 131.56 159.289 141.131C178.21 150.631 197.785 160.454 222.367 160.454C246.949 160.454 266.524 150.631 285.445 141.131C304.514 131.553 324.23 121.66 349.16 121.66V122.712C324.569 122.712 305.003 132.535 286.082 142.035C267.02 151.606 247.297 161.506 222.375 161.506Z" fill="white"/>
<path d="M222.375 154.452C197.445 154.452 177.73 144.552 158.66 134.982C139.739 125.482 120.165 115.652 95.5825 115.652C70.992 115.652 51.4256 125.474 32.5048 134.975C22.3657 140.065 11.8789 145.331 0.713502 149.047L0.25 148.072C11.3161 144.384 21.7615 139.14 31.8592 134.07C50.929 124.5 70.6444 114.6 95.5742 114.6C120.504 114.6 140.219 124.5 159.289 134.07C178.21 143.571 197.785 153.401 222.367 153.401C246.949 153.401 266.524 143.578 285.445 134.07C304.514 124.5 324.23 114.6 349.16 114.6V115.652C324.569 115.652 305.003 125.474 286.082 134.982C267.02 144.552 247.297 154.452 222.375 154.452Z" fill="white"/>
<path d="M222.375 147.399C197.445 147.399 177.73 137.499 158.66 127.928C139.739 118.428 120.165 108.605 95.5825 108.605C70.992 108.605 51.4256 118.428 32.5048 127.928C22.3657 133.018 11.8789 138.284 0.713502 142L0.25 141.018C11.3161 137.33 21.7615 132.093 31.8592 127.017C50.929 117.446 70.6444 107.546 95.5742 107.546C120.504 107.546 140.219 117.446 159.289 127.017C178.21 136.517 197.785 146.34 222.367 146.34C246.949 146.34 266.524 136.517 285.445 127.017C304.514 117.446 324.23 107.546 349.16 107.546V108.598C324.569 108.598 305.003 118.421 286.082 127.921C267.02 137.499 247.297 147.399 222.375 147.399Z" fill="white"/>
<path d="M222.375 140.345C197.445 140.345 177.73 130.445 158.66 120.875C139.739 111.375 120.165 101.545 95.5825 101.545C70.992 101.545 51.4256 111.368 32.5048 120.868C22.3657 125.958 11.8789 131.224 0.713502 134.94L0.25 133.965C11.3161 130.277 21.7615 125.033 31.8592 119.963C50.929 110.393 70.6444 100.493 95.5742 100.493C120.504 100.493 140.219 110.393 159.289 119.963C178.21 129.464 197.785 139.294 222.367 139.294C246.949 139.294 266.524 129.471 285.445 119.963C304.514 110.386 324.23 100.493 349.16 100.493V101.545C324.569 101.545 305.003 111.368 286.082 120.875C267.02 130.445 247.297 140.345 222.375 140.345Z" fill="white"/>
<path d="M222.375 133.292C197.445 133.292 177.73 123.392 158.66 113.821C139.739 104.321 120.165 94.4913 95.5825 94.4913C70.992 94.4913 51.4256 104.314 32.5048 113.821C22.3491 118.905 11.8624 124.17 0.705225 127.886L0.25 126.912C11.3161 123.224 21.7615 117.986 31.8592 112.91C50.929 103.34 70.6444 93.4396 95.5742 93.4396C120.504 93.4396 140.219 103.34 159.289 112.91C178.21 122.41 197.785 132.233 222.367 132.233C246.949 132.233 266.524 122.41 285.445 112.91C304.514 103.333 324.23 93.4396 349.16 93.4396V94.4913C324.569 94.4913 305.003 104.314 286.082 113.821C267.02 123.392 247.297 133.292 222.375 133.292Z" fill="white"/>
<path d="M222.375 126.231C197.445 126.231 177.73 116.331 158.66 106.761C139.739 97.2607 120.165 87.4379 95.5825 87.4379C70.992 87.4379 51.4256 97.2607 32.5048 106.761C22.3657 111.851 11.8789 117.117 0.713502 120.833L0.25 119.858C11.3161 116.17 21.7615 110.933 31.8592 105.857C50.929 96.2791 70.6444 86.3862 95.5742 86.3862C120.504 86.3862 140.219 96.2862 159.289 105.857C178.21 115.357 197.785 125.187 222.367 125.187C246.949 125.187 266.524 115.364 285.445 105.857C304.514 96.2791 324.23 86.3862 349.16 86.3862V87.4379C324.569 87.4379 305.003 97.2607 286.082 106.761C267.02 116.339 247.297 126.231 222.375 126.231Z" fill="white"/>
<path d="M222.375 119.178C197.445 119.178 177.73 109.278 158.66 99.7078C139.739 90.2075 120.165 80.3847 95.5825 80.3847C70.992 80.3847 51.4256 90.2075 32.5048 99.7078C22.3657 104.798 11.8789 110.064 0.713502 113.78L0.25 112.798C11.3161 109.11 21.7615 103.873 31.8592 98.7964C50.929 89.2259 70.6444 79.326 95.5742 79.326C120.504 79.326 140.219 89.2259 159.289 98.7964C178.21 108.297 197.785 118.12 222.367 118.12C246.949 118.12 266.524 108.297 285.445 98.7964C304.514 89.2259 324.23 79.326 349.16 79.326V80.3777C324.569 80.3777 305.003 90.2005 286.082 99.7008C267.02 109.278 247.297 119.178 222.375 119.178Z" fill="white"/>
<path d="M222.375 112.125C197.445 112.125 177.73 102.225 158.66 92.6544C139.739 83.1541 120.165 73.3312 95.5825 73.3312C70.992 73.3312 51.4256 83.1541 32.5048 92.6544C22.3657 97.7446 11.8789 103.01 0.713502 106.726L0.25 105.745C11.3161 102.057 21.7615 96.8121 31.8592 91.7429C50.929 82.1725 70.6444 72.2725 95.5742 72.2725C120.504 72.2725 140.219 82.1725 159.289 91.7429C178.21 101.243 197.785 111.066 222.367 111.066C246.949 111.066 266.524 101.243 285.445 91.7429C304.514 82.1655 324.23 72.2725 349.16 72.2725V73.3242C324.569 73.3242 305.003 83.1471 286.082 92.6474C267.02 102.225 247.297 112.125 222.375 112.125Z" fill="white"/>
<path d="M222.375 105.071C197.445 105.071 177.73 95.1714 158.66 85.601C139.739 76.1006 120.165 66.2778 95.5825 66.2778C70.992 66.2778 51.4256 76.1006 32.5048 85.601C22.3657 90.6912 11.8789 95.9567 0.713502 99.6727L0.25 98.6911C11.3161 95.0031 21.7615 89.7657 31.8592 84.6895C50.929 75.1191 70.6444 65.2191 95.5742 65.2191C120.504 65.2191 140.219 75.1191 159.289 84.6895C178.21 94.1898 197.785 104.013 222.367 104.013C246.949 104.013 266.524 94.1898 285.445 84.6895C304.514 75.1121 324.23 65.2191 349.16 65.2191V66.2708C324.569 66.2708 305.003 76.0936 286.082 85.594C267.02 95.1714 247.297 105.071 222.375 105.071Z" fill="white"/>
<path d="M222.375 98.0179C197.445 98.0179 177.73 88.118 158.66 78.5475C139.739 69.0472 120.165 59.2244 95.5825 59.2244C70.992 59.2244 51.4256 69.0472 32.5048 78.5475C22.3657 83.6377 11.8789 88.9032 0.713502 92.6192L0.25 91.6376C11.3161 87.9497 21.7615 82.7122 31.8592 77.6361C50.929 68.0656 70.6444 58.1657 95.5742 58.1657C120.504 58.1657 140.219 68.0656 159.289 77.6361C178.21 87.1364 197.785 96.9662 222.367 96.9662C246.949 96.9662 266.524 87.1434 285.445 77.6361C304.514 68.0586 324.23 58.1657 349.16 58.1657V59.2174C324.569 59.2174 305.003 69.0402 286.082 78.5405C267.02 88.118 247.297 98.0179 222.375 98.0179Z" fill="white"/>
<path d="M222.375 90.9647C197.445 90.9647 177.73 81.0648 158.66 71.4943C139.739 61.994 120.165 52.1712 95.5825 52.1712C71.0003 52.1712 51.4256 61.994 32.5048 71.4943C22.3657 76.5845 11.8789 81.85 0.713502 85.566L0.25 84.5844C11.3161 80.8965 21.7615 75.659 31.8592 70.5829C50.929 61.0124 70.6444 51.1125 95.5742 51.1125C120.504 51.1125 140.219 61.0124 159.289 70.5829C178.21 80.0832 197.785 89.913 222.367 89.913C246.949 89.913 266.524 80.0902 285.445 70.5829C304.514 61.0124 324.23 51.1125 349.16 51.1125V52.1642C324.569 52.1642 305.003 61.987 286.082 71.4873C267.02 81.0648 247.297 90.9647 222.375 90.9647Z" fill="white"/>
<path d="M222.375 83.9043C197.445 83.9043 177.73 74.0043 158.66 64.4339C139.739 54.9336 120.165 45.1107 95.5825 45.1107C70.992 45.1107 51.4256 54.9336 32.5048 64.4339C22.3657 69.5241 11.8789 74.7896 0.713502 78.5056L0.25 77.531C11.3161 73.8431 21.7615 68.6056 31.8592 63.5294C50.929 53.959 70.6444 44.059 95.5742 44.059C120.504 44.059 140.219 53.959 159.289 63.5294C178.21 73.0297 197.785 82.8596 222.367 82.8596C246.949 82.8596 266.524 73.0368 285.445 63.5294C304.514 53.959 324.23 44.059 349.16 44.059V45.1107C324.569 45.1107 305.003 54.9336 286.082 64.4339C267.02 74.0043 247.297 83.9043 222.375 83.9043Z" fill="white"/>
<path d="M222.375 76.8513C197.445 76.8513 177.73 66.9514 158.66 57.3809C139.739 47.8806 120.165 38.0578 95.5825 38.0578C70.992 38.0578 51.4256 47.8806 32.5048 57.3809C22.3491 62.4711 11.8624 67.7366 0.705225 71.4526L0.25 70.471C11.3161 66.7831 21.7615 61.5456 31.8592 56.4695C50.929 46.899 70.6444 36.9991 95.5742 36.9991C120.504 36.9991 140.219 46.899 159.289 56.4695C178.21 65.9698 197.785 75.7926 222.367 75.7926C246.949 75.7926 266.524 65.9698 285.445 56.4695C304.514 46.892 324.23 36.9991 349.16 36.9991V38.0508C324.569 38.0508 305.003 47.8736 286.082 57.3739C267.02 66.9514 247.297 76.8513 222.375 76.8513Z" fill="white"/>
<path d="M222.375 69.7976C197.445 69.7976 177.73 59.8977 158.66 50.3272C139.739 40.8269 120.165 31.0041 95.5825 31.0041C70.992 31.0041 51.4256 40.8269 32.5048 50.3272C22.3491 55.4175 11.8624 60.6829 0.705225 64.3989L0.25 63.4174C11.3161 59.7294 21.7615 54.485 31.8592 49.4158C50.929 39.8453 70.6444 29.9454 95.5742 29.9454C120.504 29.9454 140.219 39.8453 159.289 49.4158C178.21 58.9161 197.785 68.7389 222.367 68.7389C246.949 68.7389 266.524 58.9161 285.445 49.4158C304.514 39.8453 324.23 29.9454 349.16 29.9454V30.9971C324.569 30.9971 305.003 40.8199 286.082 50.3202C267.02 59.8977 247.297 69.7976 222.375 69.7976Z" fill="white"/>
<path d="M222.375 62.7444C197.445 62.7444 177.73 52.8445 158.66 43.274C139.739 33.7737 120.165 23.9509 95.5825 23.9509C70.992 23.9509 51.4256 33.7737 32.5048 43.274C22.3491 48.3643 11.8624 53.6297 0.705225 57.3457L0.25 56.3642C11.3161 52.6762 21.7615 47.4388 31.8592 42.3626C50.929 32.7921 70.6444 22.8922 95.5742 22.8922C120.504 22.8922 140.219 32.7921 159.289 42.3626C178.21 51.8629 197.785 61.6857 222.367 61.6857C246.949 61.6857 266.524 51.8629 285.445 42.3626C304.514 32.7851 324.23 22.8922 349.16 22.8922V23.9439C324.569 23.9439 305.003 33.7667 286.082 43.267C267.02 52.8445 247.297 62.7444 222.375 62.7444Z" fill="white"/>
<path d="M222.375 55.6912C197.445 55.6912 177.73 45.7913 158.66 36.2208C139.739 26.7205 120.165 16.8907 95.5825 16.8907C70.992 16.8907 51.4256 26.7135 32.5048 36.2138C22.3491 41.304 11.8624 46.5695 0.705225 50.2855L0.25 49.311C11.3161 45.623 21.7615 40.3856 31.8592 35.3094C50.929 25.7389 70.6444 15.839 95.5742 15.839C120.504 15.839 140.219 25.7389 159.289 35.3094C178.21 44.8097 197.785 54.6325 222.367 54.6325C246.949 54.6325 266.524 44.8097 285.445 35.3094C304.514 25.7389 324.23 15.839 349.16 15.839V16.8907C324.569 16.8907 305.003 26.7135 286.082 36.2208C267.02 45.7913 247.297 55.6912 222.375 55.6912Z" fill="white"/>
<path d="M222.375 48.6373C197.445 48.6373 177.73 38.7374 158.66 29.1669C139.739 19.6666 120.165 9.83676 95.5825 9.83676C70.992 9.83676 51.4256 19.6596 32.5048 29.1599C22.3491 34.2501 11.8624 39.5156 0.705225 43.2316L0.25 42.257C11.3161 38.5691 21.7615 33.3316 31.8592 28.2555C50.929 18.685 70.6444 8.78506 95.5742 8.78506C120.504 8.78506 140.219 18.685 159.289 28.2555C178.21 37.7558 197.785 47.5856 222.367 47.5856C246.949 47.5856 266.524 37.7628 285.445 28.2555C304.514 18.685 324.23 8.78506 349.16 8.78506V9.83676C324.569 9.83676 305.003 19.6596 286.082 29.1669C267.02 38.7374 247.297 48.6373 222.375 48.6373Z" fill="white"/>
<path d="M222.375 41.5771C197.445 41.5771 177.73 31.6771 158.66 22.1067C139.739 12.6064 120.165 2.78355 95.5825 2.78355C70.992 2.78355 51.4256 12.6064 32.5048 22.1067C22.3491 27.1969 11.8624 32.4624 0.705225 36.1784L0.25 35.2038C11.3161 31.5159 21.7615 26.2714 31.8592 21.2023C50.929 11.6248 70.6444 1.72485 95.5742 1.72485C120.504 1.72485 140.219 11.6248 159.289 21.1952C178.21 30.6956 197.785 40.5184 222.367 40.5184C246.949 40.5184 266.524 30.6956 285.445 21.1952C304.514 11.6178 324.23 1.72485 349.16 1.72485V2.77654C324.569 2.77654 305.003 12.5994 286.082 22.0997C267.02 31.6771 247.297 41.5771 222.375 41.5771Z" fill="white"/>
<path d="M222.375 34.5237C197.445 34.5237 177.73 24.6237 158.66 15.0463C148.488 9.94904 137.976 4.66953 126.828 0.981583L127.283 0C138.531 3.723 149.084 9.02355 159.289 14.1488C178.218 23.6491 197.785 33.479 222.375 33.479C246.966 33.479 266.532 23.6561 285.453 14.1558C295.658 9.02355 306.219 3.723 317.468 0L317.923 0.981583C306.774 4.66953 296.262 9.94904 286.09 15.0533C267.02 24.6237 247.297 34.5237 222.375 34.5237Z" fill="white"/>
<path d="M0.705225 29.125L0.25 28.1434C11.3161 24.4554 21.7615 19.218 31.8592 14.1418C42.0728 9.02355 52.6258 3.723 63.874 0L64.3292 0.981583C53.172 4.66953 42.6605 9.94904 32.4965 15.0533C22.3491 20.1435 11.8624 25.409 0.705225 29.125Z" fill="white"/>
<path d="M222.375 27.4701C197.445 27.4701 177.73 17.5701 158.66 7.99265C153.967 5.63685 149.109 3.19692 144.25 0.94629L144.846 0.0207971C149.721 2.27844 154.588 4.71837 159.289 7.08118C178.21 16.5815 197.785 26.4114 222.375 26.4114C246.966 26.4114 266.532 16.5885 285.461 7.08118C290.171 4.71837 295.029 2.27844 299.904 0.0207971L300.5 0.94629C295.65 3.19692 290.792 5.63685 286.09 7.99265C267.02 17.5701 247.297 27.4701 222.375 27.4701Z" fill="white"/>
<path d="M0.705225 22.0708L0.25 21.0892C11.3161 17.4013 21.7615 12.1638 31.8592 7.09467C36.5687 4.73186 41.4355 2.29192 46.3105 0.0272695L46.9065 0.952762C42.048 3.20339 37.1895 5.63631 32.4882 7.99912C22.3491 13.0893 11.8624 18.3548 0.705225 22.0708Z" fill="white"/>
<path d="M222.375 20.4172C197.445 20.4172 177.73 10.5172 158.66 0.939766L159.289 0.0353072C178.218 9.53563 197.785 19.3655 222.375 19.3655C246.966 19.3655 266.532 9.54264 285.453 0.0423185L286.09 0.946777C267.012 10.5172 247.297 20.4172 222.375 20.4172Z" fill="white"/>
<path d="M0.705225 15.0175L0.25 14.036C11.3161 10.355 21.7532 5.11056 31.8426 0.0413825L32.4882 0.93883C22.3408 6.03605 11.8624 11.3015 0.705225 15.0175Z" fill="white"/>
<path d="M222.375 13.3629C202.561 13.3629 186.346 7.0878 173.103 0.95291L173.699 0.0274176C186.801 6.09921 202.842 12.3112 222.375 12.3112C241.909 12.3112 257.941 6.10622 271.051 0.0274176L271.647 0.95291C258.396 7.0878 242.19 13.3629 222.375 13.3629Z" fill="white"/>
<path d="M0.705226 7.95706L0.25 6.98249C5.58028 5.20863 11.043 3.00006 17.4492 0.0272695L18.0452 0.952762C11.5893 3.94659 6.07689 6.16917 0.705226 7.95706Z" fill="white"/>
<path d="M222.375 6.31018C211.872 6.31018 201.501 4.56436 190.667 0.981583L191.122 0C201.807 3.5337 212.029 5.25848 222.375 5.25848C232.721 5.25848 242.943 3.54071 253.628 0L254.084 0.981583C243.241 4.56436 232.87 6.31018 222.375 6.31018Z" fill="white"/>
</g>
<g filter="url(#filter4_b)">
<path d="M107.38 134.517C9.19608 111.203 -63.542 186.718 -79.7006 210.788L-65.5414 230.408L-34.9585 263.865L458.921 280.286L469.306 -98.8385C473.296 -132.63 358.252 -155.172 357.146 -122.08C354.813 -52.2918 359.894 1.44059 327.412 54.7149C301.448 97.2992 244.948 167.182 107.38 134.517Z" fill="url(#paint0_linear)" fill-opacity="0.1"/>
</g>
</g>
<defs>
<filter id="filter0_f" x="80.5834" y="-273.798" width="490.997" height="548.812" filterUnits="userSpaceOnUse" color-interpolation-filters="sRGB">
<feFlood flood-opacity="0" result="BackgroundImageFix"/>
<feBlend mode="normal" in="SourceGraphic" in2="BackgroundImageFix" result="shape"/>
<feGaussianBlur stdDeviation="60.8855" result="effect1_foregroundBlur"/>
</filter>
<filter id="filter1_f" x="87.4846" y="-24.9822" width="452.548" height="501.38" filterUnits="userSpaceOnUse" color-interpolation-filters="sRGB">
<feFlood flood-opacity="0" result="BackgroundImageFix"/>
<feBlend mode="normal" in="SourceGraphic" in2="BackgroundImageFix" result="shape"/>
<feGaussianBlur stdDeviation="60.8855" result="effect1_foregroundBlur"/>
</filter>
<filter id="filter2_f" x="-172.787" y="-104.744" width="490.997" height="548.812" filterUnits="userSpaceOnUse" color-interpolation-filters="sRGB">
<feFlood flood-opacity="0" result="BackgroundImageFix"/>
<feBlend mode="normal" in="SourceGraphic" in2="BackgroundImageFix" result="shape"/>
<feGaussianBlur stdDeviation="60.8855" result="effect1_foregroundBlur"/>
</filter>
<filter id="filter3_f" x="-182.645" y="-362.582" width="575.782" height="653.407" filterUnits="userSpaceOnUse" color-interpolation-filters="sRGB">
<feFlood flood-opacity="0" result="BackgroundImageFix"/>
<feBlend mode="normal" in="SourceGraphic" in2="BackgroundImageFix" result="shape"/>
<feGaussianBlur stdDeviation="60.8855" result="effect1_foregroundBlur"/>
</filter>
<filter id="filter4_b" x="-84.7006" y="-143.287" width="559.108" height="428.573" filterUnits="userSpaceOnUse" color-interpolation-filters="sRGB">
<feFlood flood-opacity="0" result="BackgroundImageFix"/>
<feGaussianBlur in="BackgroundImage" stdDeviation="2.5"/>
<feComposite in2="SourceAlpha" operator="in" result="effect1_backgroundBlur"/>
<feBlend mode="normal" in="SourceGraphic" in2="effect1_backgroundBlur" result="shape"/>
</filter>
<linearGradient id="paint0_linear" x1="424.098" y1="-143.623" x2="-115.935" y2="123.171" gradientUnits="userSpaceOnUse">
<stop stop-color="white"/>
<stop offset="1" stop-color="white" stop-opacity="0.5"/>
</linearGradient>
</defs>
</svg>
