<svg width="28" height="28" viewBox="0 0 28 28" fill="none" xmlns="http://www.w3.org/2000/svg">
<circle cx="14" cy="14" r="14" fill="#EBEBEB"/>
<path d="M9.27655 20.1715L11.1814 16.8728L13.0863 13.5857L14.9795 10.2871L15.2931 9.76438L15.4325 10.2871L16.0133 12.4591L15.3628 13.5857L13.458 16.8728L11.5647 20.1715H13.8413L15.7461 16.8728L16.7334 15.1654L17.198 16.8728L18.0808 20.1715H20.125L19.2423 16.8728L18.3595 13.5857L18.1272 12.7378L19.5442 10.2871H17.4768L17.4071 10.0431L16.6869 7.34845L16.594 7H14.6079L14.5614 7.06969L12.703 10.2871L10.7981 13.5857L8.90487 16.8728L7 20.1715H9.27655Z" fill="black"/>
</svg>
