<svg width="34" height="24" viewBox="0 0 34 24" fill="none" xmlns="http://www.w3.org/2000/svg">
<rect width="34" height="24" rx="3" fill="#0080D3"/>
<path fill-rule="evenodd" clip-rule="evenodd" d="M30.6557 16.9877H29.0095V16.1172H30.4463C30.4463 16.1172 30.9702 16.1811 30.9702 15.8177C30.9702 15.4772 30.1869 15.5037 30.1869 15.5037C30.1869 15.5037 28.9105 15.619 28.9105 14.3777C28.9105 13.143 30.0636 13.2134 30.0636 13.2134H31.8344V14.0962H30.4092C30.4092 14.0962 29.9156 13.9931 29.9156 14.3655C29.9156 14.6775 30.5879 14.6331 30.5879 14.6331C30.5879 14.6331 32 14.5248 32 15.6634C32 16.8838 31.0903 16.9926 30.7675 16.9926C30.698 16.9926 30.6557 16.9877 30.6557 16.9877V16.9877ZM22.4424 16.9937V13.2199H25.3276V14.0961H23.3729V14.6774H25.2789V15.5354H23.3729V16.1757H25.3276V16.9937H22.4424ZM27.3939 16.9877H25.7473V16.1172H27.1904C27.1904 16.1172 27.7083 16.1811 27.7083 15.8177C27.7083 15.4772 26.9251 15.5037 26.9251 15.5037C26.9251 15.5037 25.6487 15.619 25.6487 14.3777C25.6487 13.143 26.8018 13.2134 26.8018 13.2134H28.5786V14.0962H27.1478C27.1478 14.0962 26.6538 13.9931 26.6538 14.3655C26.6538 14.6775 27.3253 14.6331 27.3253 14.6331C27.3253 14.6331 28.7382 14.5248 28.7382 15.6634C28.7382 16.8838 27.8284 16.9926 27.5057 16.9926C27.4358 16.9926 27.3939 16.9877 27.3939 16.9877V16.9877ZM14.9188 16.9941H14.1112L13.1305 15.8738L12.1442 16.9941H11.5828H8.70319V13.2072H11.5828H12.0699L13.1305 14.4097L14.1974 13.2137H14.9068V13.2072H17.1512C17.1512 13.2072 18.3231 13.0728 18.3231 14.3193C18.3231 15.4326 17.9336 15.7785 16.7382 15.7785H15.8317V16.9941H14.9188V16.9941ZM13.7597 15.1329L14.9068 16.4499V13.8208L13.7597 15.1329V15.1329ZM9.63446 16.1754H11.5828L12.4957 15.1334L11.5828 14.0966H9.63446V14.6779H11.5337V15.5358H9.63446V16.1754V16.1754ZM15.8317 14.7923H16.7873C17.065 14.7923 17.2933 14.6326 17.2933 14.4342C17.2933 14.2366 17.065 14.0761 16.7873 14.0761H15.8317V14.7923V14.7923ZM21.0858 16.9999V16.2642C21.0858 16.2642 21.0479 15.6886 20.4681 15.6886H19.5688V16.9999H18.6431V13.2196H20.8883C20.8883 13.2196 22.0597 13.0725 22.0597 14.326C22.0597 14.9786 21.5418 15.2087 21.5418 15.2087C21.5418 15.2087 21.9859 15.4263 21.9859 16.0654V16.9999H21.0858V16.9999ZM19.5688 14.7994H20.5244C20.8021 14.7994 21.0299 14.6397 21.0299 14.4414C21.0299 14.243 20.8021 14.0833 20.5244 14.0833H19.5688V14.7994V14.7994ZM18.8717 11.8249H19.8022V8.0323H18.8717V11.8249ZM11.7061 11.8123V8.0323H14.592V8.91466H12.6373V9.49679H14.5429V10.3539H12.6373V10.9943H14.592V11.8123H11.7061ZM10.2569 11.8116V9.20154L9.09781 11.8116H8.33931L7.17383 9.21417V11.8116H6.36586H6.24257H5.34841L5.02761 11.0184H3.33825L3.01146 11.8116H2L3.53535 8.03076H4.83649L6.24257 11.5044V8.03076H7.7041L8.72155 10.3784L9.73262 8.03076H11.1942V11.8116H10.2569ZM3.73288 10.0536H4.63302L4.18295 8.928L3.73288 10.0536ZM28.4293 11.8126L26.9626 9.28566V11.8126H26.167H26.0182H25.1495L24.8228 11.0194H23.133L22.8118 11.8126H21.9607H21.8067H21.3626C21.3626 11.8126 20.1178 11.6268 20.1178 10.0279C20.1178 7.92953 21.5298 8.01263 21.5785 8L22.7192 8.03177V8.88277L21.7828 8.8954C21.7828 8.8954 21.1719 8.8954 21.0973 9.72073C21.0893 9.81605 21.0849 9.90241 21.0857 9.98348C21.0893 11.2614 22.1546 10.865 22.1898 10.8528L23.3365 8.03177H24.6308L26.0182 11.4606V8.03177H27.3257L28.7749 10.5204V8.03177H29.7065V11.8126H28.4293V11.8126ZM23.5276 10.0536H24.4282L23.9841 8.928L23.5276 10.0536V10.0536ZM17.5147 11.8122V11.0765C17.5147 11.0765 17.478 10.5009 16.8982 10.5009H15.9981V11.8122H15.0728V8.03146H17.3176C17.3176 8.03146 18.4891 7.8844 18.4891 9.13828C18.4891 9.79088 17.9711 10.021 17.9711 10.021C17.9711 10.021 18.4212 10.2386 18.4212 10.8782V11.8122H17.5147ZM15.9981 9.61175H16.9537C17.2314 9.61175 17.4592 9.45165 17.4592 9.25327C17.4592 9.05528 17.2314 8.89519 16.9537 8.89519H15.9981V9.61175Z" fill="white"/>
</svg>
