<svg width="28" height="28" viewBox="0 0 28 28" fill="none" xmlns="http://www.w3.org/2000/svg">
<circle cx="14" cy="14" r="14" fill="#F7931A"/>
<path d="M20.1728 12.0055C20.4515 10.1426 19.0331 9.14117 17.0936 8.47311L17.7228 5.94961L16.1867 5.5668L15.5742 8.0238C15.1704 7.92317 14.7556 7.82824 14.3435 7.73417L14.9604 5.26099L13.4252 4.87817L12.7956 7.4008C12.4614 7.32467 12.1333 7.24942 11.8148 7.17024L11.8165 7.16236L9.69815 6.63342L9.28952 8.27405C9.28952 8.27405 10.4292 8.53524 10.4051 8.55142C11.0273 8.70674 11.1397 9.11842 11.1209 9.4448L10.4043 12.3196C10.4471 12.3305 10.5027 12.3463 10.564 12.3708C10.5128 12.3581 10.4581 12.3441 10.4016 12.3305L9.39715 16.3577C9.32102 16.5467 9.12809 16.8302 8.69321 16.7226C8.70852 16.7449 7.57671 16.4439 7.57671 16.4439L6.81415 18.2022L8.81309 18.7005C9.18496 18.7937 9.5494 18.8913 9.90815 18.9832L9.27246 21.5355L10.8068 21.9184L11.4363 19.3931C11.8555 19.5069 12.2623 19.6119 12.6605 19.7107L12.0331 22.2242L13.5691 22.607L14.2048 20.0594C16.8241 20.5551 18.7938 20.3552 19.6228 17.9861C20.2909 16.0786 19.5896 14.9783 18.2115 14.2608C19.2151 14.0294 19.9711 13.3692 20.1728 12.0055V12.0055ZM16.6631 16.9269C16.1885 18.8344 12.9768 17.8032 11.9355 17.5447L12.779 14.1632C13.8203 14.4231 17.1593 14.9376 16.6631 16.9269ZM17.1383 11.9779C16.7051 13.713 14.032 12.8315 13.1649 12.6154L13.9296 9.54849C14.7968 9.76461 17.5893 10.168 17.1383 11.9779V11.9779Z" fill="white"/>
</svg>
