<svg width="28" height="28" viewBox="0 0 28 28" fill="none" xmlns="http://www.w3.org/2000/svg">
<circle cx="14" cy="14" r="14" fill="#00C58A"/>
<path d="M18.4955 8.9934C17.8361 7.22898 16.11 7.04075 14.0899 7.3967L13.4167 4.8846L11.8876 5.29448L12.5431 7.74036C12.1411 7.84812 11.7323 7.96616 11.3263 8.0837L10.6668 5.62153L9.1385 6.03099L9.81086 8.54254C9.48162 8.63801 9.15815 8.73127 8.84119 8.81642L8.8389 8.80869L6.72969 9.37307L7.1677 11.0061C7.1677 11.0061 8.29112 10.682 8.27792 10.7078C8.89734 10.5421 9.19527 10.8476 9.33705 11.1422L10.104 14.004C10.1468 13.9928 10.203 13.9796 10.2685 13.9713C10.2176 13.9851 10.163 13.9993 10.107 14.0148L11.1809 18.0241C11.2059 18.2263 11.1746 18.5678 10.7421 18.6845C10.7663 18.6966 9.63048 18.982 9.63048 18.982L9.81598 20.8896L11.8059 20.3563C12.1763 20.2575 12.5424 20.1662 12.9007 20.0726L13.5821 22.6131L15.1096 22.2041L14.436 19.6902C14.8577 19.5865 15.2645 19.4811 15.6606 19.3746L16.3305 21.877L17.8595 21.4672L17.1804 18.9308C19.7116 18.0945 21.3374 16.9647 20.9139 14.4908C20.5735 12.4986 19.4266 11.8762 17.8735 11.9168C18.639 11.2278 18.9802 10.2839 18.4955 8.9934V8.9934ZM17.8118 14.9993C18.3214 16.8977 15.0125 17.5529 13.9764 17.8316L13.0748 14.4652C14.1115 14.1876 17.2813 13.0189 17.8118 14.9993ZM15.8281 10.4404C16.2904 12.168 13.5251 12.6929 12.6619 12.9243L11.8439 9.87118C12.7071 9.63981 15.3451 8.63876 15.8281 10.4404V10.4404Z" fill="white"/>
</svg>
