<svg width="28" height="28" viewBox="0 0 28 28" fill="none" xmlns="http://www.w3.org/2000/svg">
<circle cx="14" cy="14" r="14" fill="#008DE4"/>
<path d="M16.528 7.38403H10.5917L10.1001 10.1328L15.4571 10.1403C18.0955 10.1403 18.8755 11.0983 18.8529 12.6859C18.8404 13.501 18.4893 14.8778 18.3363 15.3242C17.93 16.513 17.0948 17.8723 13.9649 17.8673L8.75838 17.8648L8.26431 20.616H14.1856C16.2747 20.616 17.1626 20.3728 18.103 19.9389C20.1897 18.9758 21.4311 16.9168 21.9277 14.2308C22.6675 10.2306 21.7446 7.38403 16.528 7.38403" fill="white"/>
<path d="M8.03092 12.6206C6.47598 12.6206 6.25278 13.6338 6.10731 14.2458C5.9142 15.0483 5.8515 15.3718 5.8515 15.3718H11.9283C13.4832 15.3718 13.7064 14.3586 13.8519 13.7467C14.045 12.9441 14.1077 12.6206 14.1077 12.6206H8.03092Z" fill="white"/>
</svg>
