<svg width="34" height="24" viewBox="0 0 34 24" fill="none" xmlns="http://www.w3.org/2000/svg">
<rect width="34" height="24" rx="3" fill="#FF9C00"/>
<path fill-rule="evenodd" clip-rule="evenodd" d="M28.8858 12.3135H28.6279V10.8629H28.8858C29.453 10.8629 29.7108 11.1315 29.7108 11.5613C29.7108 12.0449 29.453 12.3135 28.8858 12.3135V12.3135ZM30.639 11.5077C30.639 10.5943 30.0718 10.1108 29.0405 10.1108H27.7513V14.8925H28.628V12.9583H28.7311L29.9171 14.8925H31L29.6077 12.9046C30.2265 12.7971 30.6906 12.2062 30.639 11.5077V11.5077ZM24.709 14.8925H27.1841V14.0866H25.5856V12.7971H27.1326V11.9912H25.5856V10.9167H27.1841V10.1108H24.709V14.8925V14.8925ZM22.1308 13.3344L20.9448 10.1108H20.0166L21.9245 15H22.3886L24.2965 10.1108H23.3684L22.1308 13.3344V13.3344ZM11.663 12.5284C11.663 13.8715 12.6943 14.9998 13.9834 14.9998C14.3959 14.9998 14.7569 14.8924 15.1178 14.7312V13.6566C14.86 13.979 14.4991 14.1939 14.0865 14.1939C13.2615 14.1939 12.5911 13.5492 12.5911 12.6896V12.5821C12.5396 11.7225 13.2099 10.9703 14.035 10.9166C14.4475 10.9166 14.86 11.1315 15.1178 11.4538V10.3793C14.8085 10.1644 14.3959 10.1107 14.035 10.1107C12.6943 10.0032 11.663 11.1315 11.663 12.5284V12.5284ZM10.0645 11.9376C9.54885 11.7227 9.39415 11.6152 9.39415 11.3466C9.44572 11.0242 9.70354 10.7556 10.0129 10.8093C10.2708 10.8093 10.5286 10.9705 10.7349 11.1854L11.1989 10.5407C10.838 10.2183 10.3739 10.0034 9.90981 10.0034C9.18789 9.94967 8.56911 10.5407 8.51754 11.2928V11.3466C8.51754 11.9913 8.77537 12.3674 9.60041 12.636C9.80668 12.6897 10.0129 12.7972 10.2192 12.9046C10.3739 13.0121 10.477 13.1733 10.477 13.3882C10.477 13.7643 10.1676 14.0866 9.85824 14.0866H9.80668C9.39415 14.0866 9.03319 13.818 8.8785 13.4419L8.31128 14.0329C8.62067 14.6239 9.23946 14.9463 9.85824 14.9463C10.6833 15 11.3536 14.3553 11.4052 13.4956V13.3345C11.3536 12.6897 11.0958 12.3674 10.0645 11.9376V11.9376ZM7.07373 14.8925H7.95034V10.1108H7.07373V14.8925V14.8925ZM5.32042 13.7106C5.01103 13.9793 4.54694 14.1405 4.13441 14.0867H3.87659V10.9168H4.13441C4.54694 10.8631 5.01103 11.0243 5.32042 11.2929C5.62981 11.6153 5.78451 12.0451 5.78451 12.4749C5.78451 12.9585 5.62981 13.3883 5.32042 13.7106V13.7106ZM4.28913 10.1108H3V14.8925H4.28913C4.85635 14.9462 5.42357 14.7313 5.88766 14.3552C6.40331 13.8717 6.71271 13.227 6.71271 12.5285C6.76427 11.2391 5.78453 10.1645 4.54696 10.1108H4.28913V10.1108ZM17.7477 10C16.4586 10 15.3757 11.0745 15.3757 12.4714C15.3757 13.8146 16.407 14.9429 17.7477 14.9966C19.0884 15.0503 20.1198 13.9221 20.1713 12.5252C20.1198 11.1283 19.0884 10 17.7477 10V10Z" fill="white"/>
</svg>
