<svg width="28" height="28" viewBox="0 0 28 28" fill="none" xmlns="http://www.w3.org/2000/svg">
<circle cx="14" cy="14" r="14" fill="black"/>
<path d="M21.8565 8.03806V9.37826L6.34375 17.283V15.9421L6.90753 15.6547C7.11737 15.5477 7.2909 15.3811 7.40628 15.1758C7.52166 14.9705 7.57375 14.7357 7.55597 14.5008C7.54329 14.335 7.53694 14.1685 7.53694 14.0014C7.53682 12.7912 7.8713 11.6045 8.50342 10.5725C9.13554 9.54056 10.0407 8.70344 11.1188 8.15371C12.197 7.60398 13.4061 7.36305 14.6126 7.45754C15.8191 7.55203 16.976 7.97826 17.9554 8.68913L16.7267 9.31526C15.9095 8.8588 14.9871 8.62379 14.051 8.63349C13.115 8.64319 12.1977 8.89727 11.39 9.37056C10.5824 9.84386 9.91236 10.5199 9.44639 11.3318C8.98042 12.1437 8.73465 13.0633 8.73341 13.9994C8.73351 14.234 8.74886 14.4684 8.77936 14.701L21.8565 8.03806Z" fill="white"/>
<path d="M9.61091 16.9549L21.8565 10.7198V12.0561L21.2921 12.3436C21.0824 12.4506 20.9091 12.6173 20.7939 12.8226C20.6786 13.0278 20.6266 13.2626 20.6443 13.4974C20.6568 13.6641 20.6634 13.8327 20.6634 14.0014C20.663 15.2114 20.3281 16.3978 19.6957 17.4294C19.0633 18.461 18.158 19.2978 17.0799 19.8471C16.0017 20.3965 14.7927 20.6371 13.5864 20.5424C12.3801 20.4476 11.2234 20.0213 10.2443 19.3104L11.4033 18.7197L11.469 18.6849C12.2864 19.1433 13.2096 19.3798 14.1467 19.3712C15.0839 19.3625 16.0025 19.1088 16.8113 18.6354C17.6201 18.1619 18.291 17.4851 18.7575 16.6723C19.2239 15.8594 19.4696 14.9386 19.4702 14.0014C19.4701 13.7653 19.4547 13.5294 19.4242 13.2952L6.34375 19.9602V18.6206L9.61091 16.9549Z" fill="white"/>
</svg>
