<svg width="34" height="24" viewBox="0 0 34 24" fill="none" xmlns="http://www.w3.org/2000/svg">
<rect width="34" height="24" rx="3" fill="#343A49"/>
<path fill-rule="evenodd" clip-rule="evenodd" d="M17.5 17.4472C16.3879 18.4155 14.9452 19 13.3689 19C9.85143 19 7 16.0899 7 12.5C7 8.91015 9.85143 6 13.3689 6C14.9452 6 16.3879 6.58452 17.5 7.55277C18.6121 6.58452 20.0548 6 21.6312 6C25.1486 6 28 8.91015 28 12.5C28 16.0899 25.1486 19 21.6312 19C20.0548 19 18.6121 18.4155 17.5 17.4472Z" fill="#FF4D00"/>
<path fill-rule="evenodd" clip-rule="evenodd" d="M17.5 17.4472C16.3879 18.4155 14.9452 19 13.3689 19C9.85143 19 7 16.0899 7 12.5C7 8.91015 9.85143 6 13.3689 6C14.9452 6 16.3879 6.58452 17.5 7.55277C16.1306 8.74499 15.2623 10.519 15.2623 12.5C15.2623 14.481 16.1306 16.255 17.5 17.4472Z" fill="#FF0000"/>
<path fill-rule="evenodd" clip-rule="evenodd" d="M17.5 17.4473C18.6121 18.4155 20.0547 19 21.6311 19C25.1485 19 28 16.0899 28 12.5C28 8.91015 25.1485 6 21.6311 6C20.0547 6 18.6121 6.5845 17.5 7.55272C18.8694 8.74494 19.7378 10.519 19.7378 12.5C19.7378 14.481 18.8694 16.2551 17.5 17.4473Z" fill="#FF9B00"/>
</svg>
