<svg width="18" height="18" viewBox="0 0 18 18" fill="none" xmlns="http://www.w3.org/2000/svg">
<path fill-rule="evenodd" clip-rule="evenodd" d="M9 0C4.0374 0.00089989 0 4.0381 0 9.00045C0 13.9619 4.0374 17.9991 9 18C13.9626 18 18 13.9628 18 9.00045C18 4.0381 13.9635 0.00089989 9 0V0ZM9.00016 16.2002C5.03026 16.1993 1.80016 12.9694 1.80016 9.00059C1.80016 5.03089 5.03026 1.80095 9.00016 1.80005C12.9701 1.80095 16.2002 5.03089 16.2002 9.00059C16.2002 12.9703 12.9701 16.2002 9.00016 16.2002V16.2002Z" fill="#16AB6B"/>
<path fill-rule="evenodd" clip-rule="evenodd" d="M9.90043 5.40601H8.10043V9.00583H5.39233L8.99683 12.6101L12.6004 9.00583H9.90043V5.40601Z" fill="#16AB6B"/>
</svg>
