<svg width="28" height="28" viewBox="0 0 28 28" fill="none" xmlns="http://www.w3.org/2000/svg">
<path d="M0 14C0 6.26801 6.26801 0 14 0V0C21.732 0 28 6.26801 28 14V14C28 21.732 21.732 28 14 28V28C6.26801 28 0 21.732 0 14V14Z" fill="#F16868"/>
<path d="M18.5454 14.659C18.5454 15.6882 17.7314 16.5225 16.7273 16.5225C15.7231 16.5225 14.9091 15.6882 14.9091 14.659C14.9091 13.6299 15.7231 12.7955 16.7273 12.7955C17.7314 12.7955 18.5454 13.6299 18.5454 14.659Z" fill="white"/>
<path fill-rule="evenodd" clip-rule="evenodd" d="M21.1258 8.30868L20.943 7.26246C20.7659 6.24946 19.8212 5.57534 18.8327 5.75681L7.65539 7.80892C7.18009 7.89616 6.7812 8.16543 6.51492 8.53411C6.09073 8.87526 5.81818 9.40551 5.81818 10.001V19.3184C5.81818 20.3476 6.63222 21.1818 7.63636 21.1818H20.3636C21.3678 21.1818 22.1818 20.3476 22.1818 19.3184V10.001C22.1818 9.25083 21.7493 8.60412 21.1258 8.30868ZM20.3636 10.466C20.3636 10.2087 20.1601 10.0001 19.9091 10.0001H8.0909C7.83989 10.0001 7.63636 10.2087 7.63636 10.466V18.8516C7.63636 19.109 7.83989 19.3175 8.0909 19.3175H19.9091C20.1601 19.3175 20.3636 19.109 20.3636 18.8516V10.466Z" fill="white"/>
</svg>
