<svg width="18" height="18" viewBox="0 0 18 18" fill="none" xmlns="http://www.w3.org/2000/svg">
<path fill-rule="evenodd" clip-rule="evenodd" d="M9 18C4.0374 17.9991 0 13.9619 0 8.99955C0 4.0381 4.0374 0.000898633 9 -4.43832e-07C13.9626 -4.43832e-07 18 4.0372 18 8.99955C18 13.9619 13.9635 17.9991 9 18V18ZM9.00016 1.79977C5.03026 1.80067 1.80016 5.03061 1.80016 8.99941C1.80016 12.9691 5.03026 16.1991 9.00016 16.2C12.9701 16.1991 16.2002 12.9691 16.2002 8.99941C16.2002 5.02971 12.9701 1.79977 9.00016 1.79977V1.79977Z" fill="#F16868"/>
<path fill-rule="evenodd" clip-rule="evenodd" d="M9.90043 12.594H8.10043V8.99417H5.39233L8.99683 5.38985L12.6004 8.99417H9.90043V12.594Z" fill="#F16868"/>
</svg>
