<svg width="28" height="28" viewBox="0 0 28 28" fill="none" xmlns="http://www.w3.org/2000/svg">
<circle cx="14" cy="14" r="14" fill="#2C7DF7"/>
<path d="M15.3919 22.3269C14.2611 22.3269 13.4375 22.0563 12.9201 21.515C12.4032 20.974 12.1444 20.3904 12.1444 19.7652C12.1444 19.5365 12.1894 19.3442 12.2796 19.1878C12.3677 19.0336 12.4954 18.9058 12.6497 18.8178C12.806 18.7276 12.9984 18.6826 13.227 18.6826C13.4556 18.6826 13.6477 18.7276 13.8043 18.8178C13.9606 18.908 14.0839 19.0315 14.1741 19.1878C14.2643 19.3442 14.3093 19.5365 14.3093 19.7652C14.3093 20.0418 14.2432 20.2672 14.111 20.4416C13.9785 20.6161 13.8222 20.7302 13.6418 20.7846C13.7983 21.0008 14.0449 21.1541 14.3816 21.2443C14.7184 21.3408 15.0551 21.3887 15.3919 21.3887C15.8608 21.3887 16.2848 21.2625 16.6638 21.01C17.0425 20.7572 17.3224 20.3845 17.5028 19.8914C17.6832 19.3983 17.7734 18.8389 17.7734 18.2134C17.7734 17.5339 17.674 16.9534 17.4757 16.4725C17.2831 15.9854 16.9976 15.6245 16.6186 15.3899C16.2513 15.1588 15.8258 15.0368 15.3919 15.0383C15.1031 15.0383 14.7425 15.1586 14.3093 15.3991L13.5155 15.796V15.3991L17.0878 10.6362H12.1444V15.5793C12.1444 15.9884 12.2347 16.3251 12.4151 16.5898C12.5955 16.8545 12.8721 16.9867 13.2451 16.9867C13.5334 16.9867 13.8103 16.8905 14.0749 16.6979C14.3413 16.5037 14.573 16.2659 14.7604 15.9946C14.7845 15.9402 14.8145 15.9012 14.8506 15.877C14.883 15.8484 14.9246 15.8325 14.9679 15.8321C15.034 15.8321 15.112 15.8651 15.2025 15.9315C15.2867 16.0274 15.3287 16.1387 15.3287 16.265C15.3184 16.35 15.3033 16.4344 15.2835 16.5177C15.0792 16.9748 14.7964 17.3234 14.4356 17.564C14.0842 17.8016 13.6693 17.9274 13.2451 17.9249C12.1745 17.9249 11.4347 17.7144 11.0258 17.2936C10.617 16.8724 10.4125 16.301 10.4125 15.5796V10.6362H7.88654V9.71597H10.4125V7.62343L9.83519 7.04561V6.5769H11.5129L12.1442 6.90147V9.71597L18.6753 9.69808L19.325 10.3475L15.3198 14.3526C15.5623 14.256 15.8175 14.1952 16.0775 14.1722C16.5105 14.1722 16.9976 14.3106 17.5388 14.5872C18.0861 14.8579 18.5071 15.2309 18.8016 15.7056C19.0963 16.1748 19.2857 16.6258 19.3699 17.0588C19.4601 17.4919 19.5054 17.8766 19.5054 18.2134C19.5054 18.9833 19.3428 19.6988 19.0183 20.3606C18.6935 21.0219 18.2004 21.515 17.5388 21.8398C16.8773 22.1646 16.1615 22.3269 15.3919 22.3269Z" fill="white"/>
</svg>
