<svg width="34" height="24" viewBox="0 0 34 24" fill="none" xmlns="http://www.w3.org/2000/svg">
<rect width="34" height="24" rx="3" fill="#0A4EC1"/>
<path fill-rule="evenodd" clip-rule="evenodd" d="M11.0003 15.9378H8.9232L7.36567 9.73162C7.29174 9.44614 7.13477 9.19375 6.90388 9.0748C6.32765 8.77587 5.69269 8.53797 5 8.41798V8.17904H8.34596C8.80776 8.17904 9.1541 8.53797 9.21182 8.95482L10.02 13.4315L12.096 8.17904H14.1153L11.0003 15.9378ZM15.27 15.9377H13.3084L14.9236 8.17896H16.8852L15.27 15.9377ZM19.423 10.3283C19.4807 9.91047 19.8271 9.67153 20.2311 9.67153C20.8661 9.61154 21.5578 9.73152 22.135 10.0294L22.4814 8.35892C21.9041 8.11999 21.2692 8 20.6929 8C18.7891 8 17.4037 9.0747 17.4037 10.5663C17.4037 11.7009 18.385 12.2967 19.0777 12.6557C19.8271 13.0136 20.1157 13.2525 20.058 13.6104C20.058 14.1472 19.4807 14.3862 18.9045 14.3862C18.2118 14.3862 17.5191 14.2072 16.8852 13.9083L16.5388 15.5798C17.2315 15.8777 17.9809 15.9977 18.6736 15.9977C20.8084 16.0566 22.135 14.983 22.135 13.3714C22.135 11.342 19.423 11.2231 19.423 10.3283V10.3283ZM28.9999 15.9377L27.4424 8.17896H25.7694C25.4231 8.17896 25.0767 8.41789 24.9613 8.77578L22.0771 15.9377H24.0964L24.4995 14.804H26.9806L27.2115 15.9377H28.9999ZM26.0581 10.2686L26.6343 13.1927H25.0191L26.0581 10.2686Z" fill="white"/>
</svg>
